<?xml version="1.0" encoding="utf-8"?>
<!-- Generator: Adobe Illustrator 16.0.4, SVG Export Plug-In . SVG Version: 6.00 Build 0)  -->
<!DOCTYPE svg PUBLIC "-//W3C//DTD SVG 1.1//EN" "http://www.w3.org/Graphics/SVG/1.1/DTD/svg11.dtd">
<svg version="1.1" id="Your_Icon" xmlns="http://www.w3.org/2000/svg" xmlns:xlink="http://www.w3.org/1999/xlink" x="0px" y="0px"
	 width="80px" height="80px" viewBox="10 10 80 80" enable-background="new 10 10 80 80" xml:space="preserve">
<path fill="#B5B5B5" d="M89.498,49.878c0,22.031-17.407,39.56-39.437,39.56c-21.912,0-39.56-17.528-39.56-39.56
	c0-21.787,17.648-39.318,39.56-39.318C72.091,10.561,89.498,28.091,89.498,49.878z M30.95,59.979
	c-0.49-3.044-0.729-6.452-0.729-9.737c0-2.436,0.122-4.382,0.361-6.696c-5.596-1.094-8.882-1.946-11.438-3.041
	c-0.853,2.921-1.342,6.206-1.342,9.373c0,1.582,0,3.164,0.245,4.502C19.628,56.207,23.644,58.642,30.95,59.979z M37.644,79.58
	c-2.8-3.895-4.627-8.888-5.841-14.731c-4.873-1.094-9.25-2.433-12.173-4.018c1.826,4.506,4.137,8.521,7.668,11.809
	C30.221,75.804,33.873,77.996,37.644,79.58z M20.971,36.243c1.092,0.975,2.917,1.098,10.102,3.044
	c1.337-7.791,3.654-14.24,7.301-19.109c-4.138,1.947-7.79,3.651-11.076,7.181C24.496,29.915,22.43,33.08,20.971,36.243z
	 M35.333,60.831c4.138,0.732,8.153,1.098,12.291,1.221V44.886c-4.381-0.121-8.76-0.364-12.903-0.852c0,2.19-0.117,4.017-0.117,6.208
	C34.603,53.773,34.842,57.547,35.333,60.831z M35.333,39.896c4.015,0.365,8.153,0.61,12.291,0.729V17.986c0,0-0.118,0-0.241,0
	C41.904,20.177,37.282,28.698,35.333,39.896z M47.628,82.013V66.312c-3.776-0.122-7.552-0.367-11.199-0.732
	c0.73,3.167,1.82,5.965,3.284,8.522C41.541,78.482,44.337,82.013,47.628,82.013z M52.251,17.986v22.639
	c4.26-0.12,8.276-0.364,12.413-0.729c-1.582-8.765-5.107-16.433-9.251-20.207C54.321,18.961,53.103,17.986,52.251,17.986z
	 M64.544,60.955c0.609-3.287,0.73-7.062,0.73-10.711c0-2.191,0-4.018-0.121-6.086c-4.138,0.365-8.397,0.608-12.902,0.729v17.166
	C56.511,61.929,60.526,61.563,64.544,60.955z M63.571,65.579c-3.775,0.365-7.546,0.609-11.32,0.732v15.701
	C58.582,82.013,61.99,71.057,63.571,65.579z M61.622,20.055c3.652,4.747,5.965,11.442,7.185,19.355
	c6.571-1.217,9.25-2.312,10.223-3.044C75.623,28.82,69.168,22.733,61.622,20.055z M80.005,61.319
	c-3.168,1.463-7.306,2.679-11.807,3.653c-1.342,5.842-3.044,10.589-5.97,14.607c3.776-1.584,7.553-3.774,10.471-6.939
	C76.105,69.475,78.418,65.579,80.005,61.319z M69.658,50.244c0,3.285-0.245,6.816-0.607,9.86
	c12.658-2.069,13.142-4.989,13.142-10.225c0-3.043-0.482-6.331-1.459-9.253c-2.312,0.975-6.454,2.436-11.32,2.922
	C69.658,45.86,69.658,47.807,69.658,50.244z"/>
</svg>
