<?xml version="1.0" encoding="UTF-8" standalone="no"?>
<svg width="64px" height="64px" viewBox="0 0 64 64" version="1.1" xmlns="http://www.w3.org/2000/svg" xmlns:xlink="http://www.w3.org/1999/xlink" xmlns:sketch="http://www.bohemiancoding.com/sketch/ns">
    <!-- Generator: Sketch 3.0.4 (8054) - http://www.bohemiancoding.com/sketch -->
    <title>add_image_hover</title>
    <desc>Created with Sketch.</desc>
    <defs></defs>
    <g id="Icon" stroke="none" stroke-width="1" fill="none" fill-rule="evenodd" sketch:type="MSPage">
        <g id="add_image_hover" sketch:type="MSArtboardGroup" fill="#89CEB7">
            <path d="M55.6533333,53.9565222 L55.6533333,54.0654556 L8.43857143,54.0654556 L8.43857143,53.9565222 C4.80238095,53.4300111 2,50.3230222 2,46.5289889 L2,27.1493667 C2,23.3558111 4.80190476,20.2483444 8.43857143,19.7213556 L8.43857143,19.6129 L14.8771429,19.6129 C14.8771429,17.4595556 21.3147619,11 23.4614286,11 L32.0457143,11 L40.63,11 C42.7757143,11 49.2142857,17.4600333 49.2142857,19.6129 L55.6528571,19.6129 L55.6528571,19.7213556 C59.2866667,20.2483444 62.0909524,23.3558111 62.0909524,27.1493667 L62.0909524,46.5289889 C62.0914286,50.3225444 59.2871429,53.4300111 55.6533333,53.9565222 L55.6533333,53.9565222 Z M32.0457143,21.7662444 C24.9333333,21.7662444 19.1690476,27.5497444 19.1690476,34.6858333 C19.1690476,41.8209667 24.9333333,47.6059 32.0457143,47.6059 C39.1571429,47.6059 44.922381,41.8209667 44.922381,34.6858333 C44.922381,27.5502222 39.1571429,21.7662444 32.0457143,21.7662444 L32.0457143,21.7662444 Z M32.0457143,43.2992111 C27.3038095,43.2992111 23.4614286,39.4421111 23.4614286,34.6858333 C23.4614286,29.9290778 27.3038095,26.0729333 32.0457143,26.0729333 C36.7861905,26.0729333 40.63,29.9295556 40.63,34.6858333 C40.63,39.4421111 36.7861905,43.2992111 32.0457143,43.2992111 L32.0457143,43.2992111 Z" id="Shape" sketch:type="MSShapeGroup"></path>
        </g>
    </g>
</svg>