<?xml version="1.0" encoding="UTF-8" standalone="no"?>
<svg width="36px" height="30px" viewBox="0 0 36 30" version="1.1" xmlns="http://www.w3.org/2000/svg" xmlns:xlink="http://www.w3.org/1999/xlink" xmlns:sketch="http://www.bohemiancoding.com/sketch/ns">
    <!-- Generator: Sketch 3.0.4 (8054) - http://www.bohemiancoding.com/sketch -->
    <title>get_param</title>
    <desc>Created with Sketch.</desc>
    <defs></defs>
    <g id="Icon" stroke="none" stroke-width="1" fill="none" fill-rule="evenodd" sketch:type="MSPage">
        <g id="get_param" sketch:type="MSArtboardGroup" fill="#FDFDFC">
            <g id="Admin" sketch:type="MSLayerGroup" transform="translate(3.000000, 0.000000)">
                <path d="M26.5548,15.0009 C26.5548,14.538 26.5254,14.0835 26.4735,13.6365 L30,10.4514 C29.6997,9.4581 29.3037,8.5077 28.8225,7.6101 L24.0753,7.8528 C23.5107,7.1352 22.8636,6.4884 22.1475,5.9229 L22.3902,1.1784 C21.4911,0.6954 20.5413,0.3015 19.5486,0 L16.3644,3.5268 C15.9162,3.4764 15.4617,3.4446 15.0003,3.4446 C14.538,3.4446 14.0838,3.4764 13.6356,3.5268 L10.452,0 C9.4587,0.3015 8.5086,0.6954 7.6104,1.1784 L7.8525,5.9229 C7.1361,6.4884 6.4893,7.1352 5.9244,7.8528 L1.1775,7.6101 C0.696,8.5077 0.3009,9.4581 0,10.4514 L3.528,13.6365 C3.4752,14.0835 3.4449,14.538 3.4449,15.0009 C3.4449,15.4626 3.4755,15.9165 3.528,16.3656 L0,19.5504 C0.3009,20.5419 0.696,21.492 1.1775,22.3899 L5.9244,22.1469 C6.4893,22.8648 7.1361,23.5116 7.8525,24.0771 L7.6104,28.8234 C8.5086,29.3046 9.4587,29.7003 10.452,30 L13.6356,26.4732 C14.0838,26.5254 14.538,26.5551 15.0003,26.5551 C15.4617,26.5551 15.9162,26.5251 16.3644,26.4732 L19.5486,30 C20.5413,29.7003 21.4911,29.3046 22.3902,28.8234 L22.1475,24.0771 C22.8636,23.5116 23.5107,22.8648 24.0753,22.1469 L28.8225,22.3899 C29.3037,21.492 29.6997,20.5419 30,19.5504 L26.4732,16.3656 C26.5254,15.9165 26.5548,15.4626 26.5548,15.0009 L26.5548,15.0009 Z M15.0003,23.1129 C10.5195,23.1129 6.888,19.4808 6.888,15.0009 C6.888,10.5192 10.5195,6.8868 15.0003,6.8868 C19.4808,6.8868 23.1123,10.5189 23.1123,15.0009 C23.1123,19.4808 19.4808,23.1129 15.0003,23.1129 L15.0003,23.1129 Z" id="Shape" sketch:type="MSShapeGroup"></path>
                <path d="M19.2609,14.9952 C19.2609,17.3505 17.3532,19.257 14.9997,19.257 C12.6456,19.257 10.7385,17.3505 10.7385,14.9952 C10.7385,12.642 12.6456,10.7337 14.9997,10.7337 C17.3532,10.7337 19.2609,12.6423 19.2609,14.9952 L19.2609,14.9952 Z" id="Shape" sketch:type="MSShapeGroup"></path>
            </g>
        </g>
    </g>
</svg>