<?xml version="1.0" encoding="iso-8859-1"?>
<!-- Generator: Adobe Illustrator 16.0.4, SVG Export Plug-In . SVG Version: 6.00 Build 0)  -->
<!DOCTYPE svg PUBLIC "-//W3C//DTD SVG 1.1//EN" "http://www.w3.org/Graphics/SVG/1.1/DTD/svg11.dtd">
<svg version="1.1" id="Calque_1" xmlns="http://www.w3.org/2000/svg" xmlns:xlink="http://www.w3.org/1999/xlink" x="0px" y="0px"
	 width="60px" height="60px" viewBox="0 0 60 60" style="enable-background:new 0 0 60 60;" xml:space="preserve">
<g id="gear">
	<g>
		<path style="fill:#FDFDFC;" d="M30,22.874c-3.902,0-7.064,3.161-7.064,7.064c0,3.903,3.162,7.063,7.064,7.063
			s7.063-3.16,7.063-7.063C37.063,26.035,33.902,22.874,30,22.874z M54.572,29.209l-3.458-0.928
			c-0.102-1.271-0.302-2.552-0.644-3.828c-0.344-1.279-0.808-2.486-1.357-3.64l2.532-2.532c2.759-2.757,2.759-7.229,0-9.989
			c-2.76-2.759-7.232-2.759-9.989,0l-2.534,2.532c-2.32-1.108-4.848-1.789-7.465-1.996l-0.929-3.463
			c-1.009-3.769-4.883-6.006-8.65-4.994c-3.769,1.009-6.006,4.881-4.997,8.65l0.929,3.463c-2.164,1.488-4.01,3.341-5.466,5.464
			l-3.461-0.929c-3.768-1.009-7.641,1.228-8.65,4.997c-1.012,3.767,1.225,7.641,4.994,8.65l3.459,0.928
			c0.101,1.271,0.301,2.552,0.643,3.828c0.343,1.278,0.807,2.486,1.357,3.641l-2.532,2.531c-2.759,2.757-2.759,7.229,0,9.989
			c2.76,2.759,7.232,2.759,9.989,0l2.534-2.532c2.321,1.109,4.847,1.789,7.465,1.996l0.929,3.463c1.009,3.77,4.883,6.007,8.65,4.995
			c3.769-1.01,6.007-4.882,4.996-8.651l-0.929-3.465c2.164-1.485,4.011-3.34,5.467-5.462l3.46,0.929
			c3.77,1.011,7.642-1.228,8.651-4.996C60.579,34.093,58.342,30.218,54.572,29.209z M30,41.711c-6.503,0-11.773-5.271-11.773-11.773
			S23.497,18.164,30,18.164s11.773,5.271,11.773,11.773S36.503,41.711,30,41.711z"/>
	</g>
</g>
<g>
</g>
<g>
</g>
<g>
</g>
<g>
</g>
<g>
</g>
<g>
</g>
<g>
</g>
<g>
</g>
<g>
</g>
<g>
</g>
<g>
</g>
<g>
</g>
<g>
</g>
<g>
</g>
<g>
</g>
</svg>
