<?xml version="1.0" encoding="iso-8859-1"?>
<!-- Generator: Adobe Illustrator 16.0.4, SVG Export Plug-In . SVG Version: 6.00 Build 0)  -->
<!DOCTYPE svg PUBLIC "-//W3C//DTD SVG 1.1//EN" "http://www.w3.org/Graphics/SVG/1.1/DTD/svg11.dtd">
<svg version="1.1" id="Calque_1" xmlns="http://www.w3.org/2000/svg" xmlns:xlink="http://www.w3.org/1999/xlink" x="0px" y="0px"
	 width="60px" height="60px" viewBox="0 0 60 60" style="enable-background:new 0 0 60 60;" xml:space="preserve">
<g id="list_1_">
	<g>
		<path style="fill:#1A1A1A;" d="M53.85,23.733H6.152c-3.294,0-5.963,2.806-5.963,6.267c0,3.46,2.669,6.267,5.963,6.267H53.85
			c3.293,0,5.961-2.807,5.961-6.267C59.811,26.54,57.143,23.733,53.85,23.733z M6.152,17.467H53.85c3.293,0,5.961-2.805,5.961-6.266
			c0-3.461-2.668-6.267-5.961-6.267H6.152c-3.294,0-5.963,2.805-5.963,6.267C0.189,14.662,2.858,17.467,6.152,17.467z M53.85,42.533
			H6.152c-3.294,0-5.963,2.806-5.963,6.266c0,3.461,2.669,6.267,5.963,6.267H53.85c3.293,0,5.961-2.806,5.961-6.267
			C59.811,45.339,57.143,42.533,53.85,42.533z"/>
	</g>
</g>
<g>
</g>
<g>
</g>
<g>
</g>
<g>
</g>
<g>
</g>
<g>
</g>
<g>
</g>
<g>
</g>
<g>
</g>
<g>
</g>
<g>
</g>
<g>
</g>
<g>
</g>
<g>
</g>
<g>
</g>
</svg>
