<?xml version="1.0" encoding="UTF-8" standalone="no"?>
<svg width="36px" height="60px" viewBox="0 0 36 60" version="1.1" xmlns="http://www.w3.org/2000/svg" xmlns:xlink="http://www.w3.org/1999/xlink" xmlns:sketch="http://www.bohemiancoding.com/sketch/ns">
    <!-- Generator: Sketch 3.0.4 (8054) - http://www.bohemiancoding.com/sketch -->
    <title>getNav</title>
    <desc>Created with Sketch.</desc>
    <defs></defs>
    <g id="Icon" stroke="none" stroke-width="1" fill="none" fill-rule="evenodd" sketch:type="MSPage">
        <g id="getNav" sketch:type="MSArtboardGroup" fill="#FDFDFC">
            <g id="Arrow-Down-2" sketch:type="MSLayerGroup" transform="translate(18.000000, 15.000000) scale(1, -1) translate(-18.000000, -15.000000) translate(1.000000, 4.000000)">
                <path d="M17,20.7132034 L16.9748737,20.7383297 L12.732233,16.495689 L12.7573593,16.4705627 L0.761670299,4.47487373 L5.00431099,0.232233047 L17,12.2279221 L28.995689,0.232233047 L33.2383297,4.47487373 L21.2426407,16.4705627 L21.267767,16.495689 L17.0251263,20.7383297 L17,20.7132034 L17,20.7132034 Z" id="Rectangle-32" sketch:type="MSShapeGroup" transform="translate(17.000000, 11.000000) scale(1, -1) translate(-17.000000, -11.000000) "></path>
            </g>
            <g id="Arrow-Down-3" sketch:type="MSLayerGroup" transform="translate(1.000000, 34.000000)">
                <path d="M17,20.7132034 L16.9748737,20.7383297 L12.732233,16.495689 L12.7573593,16.4705627 L0.761670299,4.47487373 L5.00431099,0.232233047 L17,12.2279221 L28.995689,0.232233047 L33.2383297,4.47487373 L21.2426407,16.4705627 L21.267767,16.495689 L17.0251263,20.7383297 L17,20.7132034 L17,20.7132034 Z" id="Rectangle-32" sketch:type="MSShapeGroup" transform="translate(17.000000, 11.000000) scale(1, -1) translate(-17.000000, -11.000000) "></path>
            </g>
        </g>
    </g>
</svg>