<?xml version="1.0" encoding="utf-8"?>
<!-- Generator: Adobe Illustrator 16.0.4, SVG Export Plug-In . SVG Version: 6.00 Build 0)  -->
<!DOCTYPE svg PUBLIC "-//W3C//DTD SVG 1.1//EN" "http://www.w3.org/Graphics/SVG/1.1/DTD/svg11.dtd">
<svg version="1.1" id="Your_Icon" xmlns="http://www.w3.org/2000/svg" xmlns:xlink="http://www.w3.org/1999/xlink" x="0px" y="0px"
	 width="80px" height="80px" viewBox="10 10 80 80" enable-background="new 10 10 80 80" xml:space="preserve">
<path fill="#363331" d="M69.262,22.357c-3.884,0-7.024,3.136-7.024,7.003c0,3.877,3.141,7.013,7.024,7.013
	c3.862,0,7.003-3.136,7.003-7.013C76.265,25.493,73.124,22.357,69.262,22.357z"/>
<path fill="#363331" d="M81.946,62.294c-0.793,0.34-1.717-0.052-2.058-0.837l-3.268-13.644l-0.449,14.5h-0.011l1.3,23.98
	c0.083,1.443-0.995,2.691-2.434,2.794c-0.067,0.011-0.129,0.011-0.196,0.011c-1.361,0-2.522-1.052-2.599-2.434l-2.987-22.627
	l-2.958,22.627c-0.109,1.382-1.259,2.434-2.626,2.434c-0.056,0-0.117,0-0.189-0.011c-1.436-0.103-2.523-1.351-2.429-2.794
	l1.278-23.98l-0.44-14.5c0,0-8.709,8.777-9.251,9.014c-0.949,0.402-2.043-0.043-2.449-0.99l-7.075-15.398l5.362,26.013h-5.177
	l-1.599,21.287c0,1.021-0.841,1.866-1.857,1.866c-1.051,0-1.876-0.845-1.876-1.866l-1.594-21.287h-0.938h-0.943l-1.594,21.287
	c0,1.021-0.83,1.866-1.877,1.866c-1.021,0-1.856-0.845-1.856-1.866L27.55,66.451h-5.17l5.358-26.013l-7.07,15.398
	c-0.403,0.947-1.506,1.393-2.456,0.99c-0.938-0.403-1.382-1.497-0.969-2.456c0,0,4.203-15.284,6.147-19.266
	c1.939-3.977,3.878-6.395,11.273-6.395h0.763h0.758c7.391,0,9.334,2.418,11.272,6.395c1.425,2.908,4.034,11.83,5.344,16.43
	c1.883-2.568,4.436-6.188,5.41-8.209c1.64-3.363,4.177-5.384,10.406-5.384h1.27c6.234,0,8.757,2.021,10.406,5.384
	c1.641,3.341,2.492,16.904,2.492,16.904C83.129,61.045,82.748,61.953,81.946,62.294z"/>
<path fill="#363331" d="M47.345,23.41c0,2.011-1.702,3.641-3.816,3.641c-1.475,0-2.713-0.82-3.347-1.99
	c-1.444,1.187-3.212,1.99-5.224,1.99c-2.022,0-3.786-0.805-5.23-1.99c-0.634,1.17-1.877,1.99-3.346,1.99
	c-2.114,0-3.817-1.63-3.817-3.641c0-2.006,1.702-3.641,3.817-3.641c0.16,0,0.304,0.072,0.464,0.093
	c-0.057-0.387-0.232-0.732-0.232-1.14c0-4.6,3.733-8.328,8.345-8.328c4.605,0,8.333,3.729,8.333,8.328
	c0,0.408-0.17,0.753-0.227,1.14c0.153-0.021,0.298-0.093,0.464-0.093C45.643,19.769,47.345,21.404,47.345,23.41z"/>
</svg>
