<?xml version="1.0" encoding="UTF-8" standalone="no"?>
<svg width="90px" height="90px" viewBox="0 0 90 90" version="1.1" xmlns="http://www.w3.org/2000/svg" xmlns:xlink="http://www.w3.org/1999/xlink" xmlns:sketch="http://www.bohemiancoding.com/sketch/ns">
    <!-- Generator: Sketch 3.2.2 (9983) - http://www.bohemiancoding.com/sketch -->
    <title>info</title>
    <desc>Created with Sketch.</desc>
    <defs></defs>
    <g id="Icon" stroke="none" stroke-width="1" fill="none" fill-rule="evenodd" sketch:type="MSPage">
        <g id="info" sketch:type="MSArtboardGroup" fill="#FDFDFC">
            <g id="info-2" sketch:type="MSLayerGroup" transform="translate(21.000000, 5.000000)">
                <path d="M21.605,69.205 C20.98,70.335 21.131,71.093 22.225,71.093 C24.422,71.093 33.032,66.188 36.954,63.17 C38.824,63.17 40.39,64.559 39.926,66.188 C33.813,72.732 19.883,81.14 7.045,81.14 C2.964,81.14 -0.161,77.626 -0.161,76.122 C-0.161,74.732 0.462,73.223 1.703,70.718 L17.996,39.403 C18.467,38.402 18.467,37.651 17.685,37.651 C15.027,37.651 6.258,42.931 3.752,44.806 C1.866,44.56 0.613,42.931 1.247,41.791 C9.701,33.498 24.422,27.332 32.717,27.332 C36.167,27.332 39.925,30.096 39.925,32.86 C39.925,34.117 38.823,36.505 37.875,38.402 L21.605,69.205 L21.605,69.205 Z M39.451,-0.202 C44.773,-0.202 48.221,2.445 48.221,7.214 C48.221,12.756 43.525,17.402 36.32,17.402 C30.532,17.402 27.088,14.259 27.088,10.24 C27.087,4.703 32.243,-0.202 39.451,-0.202 L39.451,-0.202 Z" id="Shape" sketch:type="MSShapeGroup"></path>
            </g>
        </g>
    </g>
</svg>