<?xml version="1.0" encoding="utf-8"?>
<!-- Generator: Adobe Illustrator 16.0.4, SVG Export Plug-In . SVG Version: 6.00 Build 0)  -->
<!DOCTYPE svg PUBLIC "-//W3C//DTD SVG 1.1//EN" "http://www.w3.org/Graphics/SVG/1.1/DTD/svg11.dtd">
<svg version="1.1" id="Your_Icon" xmlns="http://www.w3.org/2000/svg" xmlns:xlink="http://www.w3.org/1999/xlink" x="0px" y="0px"
	 width="80px" height="80px" viewBox="10 10 80 80" enable-background="new 10 10 80 80" xml:space="preserve">
<path fill="#B5B5B5" d="M89.5,27.688c0-1.54-1.248-2.788-2.789-2.788H13.288c-1.54,0-2.788,1.248-2.788,2.788v44.624
	c0,1.538,1.249,2.787,2.788,2.787h73.425c1.539,0,2.787-1.249,2.787-2.787V27.688z M39.303,59.464H17.084
	c-0.737-2.914,1.143-4.521,4.19-5.224c2.983-0.687,5.083-2.041,3.216-3.91c-5.459-5.46-1.379-12.104,3.68-12.104
	c5.061,0,9.186,6.646,3.727,12.104c-1.867,1.869,0.188,3.223,3.17,3.91C38.113,54.942,40.039,56.55,39.303,59.464z M82.918,59.464
	H44.24v-3.292h38.678V59.464z M82.918,51.234H44.24v-3.292h38.678V51.234z M82.918,43.005H44.24v-3.292h38.678V43.005z"/>
</svg>
