<?xml version="1.0" encoding="utf-8"?>
<!-- Generator: Adobe Illustrator 16.0.4, SVG Export Plug-In . SVG Version: 6.00 Build 0)  -->
<!DOCTYPE svg PUBLIC "-//W3C//DTD SVG 1.1//EN" "http://www.w3.org/Graphics/SVG/1.1/DTD/svg11.dtd">
<svg version="1.1" id="Your_Icon" xmlns="http://www.w3.org/2000/svg" xmlns:xlink="http://www.w3.org/1999/xlink" x="0px" y="0px"
	 width="80px" height="80px" viewBox="10 10 80 80" enable-background="new 10 10 80 80" xml:space="preserve">
<polygon fill="#B5B5B5" points="73.859,51.396 76.279,40.178 23.722,40.178 26.142,51.396 37.439,51.396 39.427,83.911 32.6,83.911 
	32.6,89.561 67.402,89.561 67.402,83.911 60.572,83.911 62.561,51.396 "/>
<path fill="#B5B5B5" d="M49.998,10.439c5.016,0,9.077,4.065,9.077,9.077c0,5.01-4.061,9.073-9.077,9.073
	c-5.011,0-9.07-4.063-9.07-9.073C40.927,14.503,44.986,10.439,49.998,10.439"/>
<path fill="#B5B5B5" d="M57.41,27.796c-1.967,1.764-4.564,2.84-7.413,2.84c-2.843,0-5.441-1.076-7.408-2.84
	c-5.284,2.809-8.915,3.682-8.954,10.288h32.73C66.324,31.478,62.697,30.603,57.41,27.796z"/>
</svg>
