<?xml version="1.0" encoding="utf-8"?>
<!-- Generator: Adobe Illustrator 16.0.4, SVG Export Plug-In . SVG Version: 6.00 Build 0)  -->
<!DOCTYPE svg PUBLIC "-//W3C//DTD SVG 1.1//EN" "http://www.w3.org/Graphics/SVG/1.1/DTD/svg11.dtd">
<svg version="1.1" id="Your_Icon" xmlns="http://www.w3.org/2000/svg" xmlns:xlink="http://www.w3.org/1999/xlink" x="0px" y="0px"
	 width="80px" height="80px" viewBox="10 10 80 80" enable-background="new 10 10 80 80" xml:space="preserve">
<g>
	<path fill="#B5B5B5" d="M68.622,23.958c3.561,0.295,6.651-2.353,6.945-5.91c0.271-3.557-2.379-6.646-5.941-6.94
		c-3.531-0.271-6.646,2.377-6.914,5.935C62.417,20.576,65.065,23.689,68.622,23.958z"/>
	<path fill="#B5B5B5" d="M62.69,25.77c1.624-0.986,3.282-0.633,4.998-0.485c2.207,0.172,4.029,1.543,5.134,3.214l6.498,12.899
		l8.877,6.107c0.761,0.588,1.228,1.521,1.129,2.551c-0.122,1.594-1.522,2.796-3.114,2.647c-0.49-0.024-0.884-0.222-1.325-0.417
		l-9.688-6.67c-0.293-0.245-0.54-0.539-0.734-0.857l-2.429-4.831l-2.926,12.85l11.437,13.513c0.269,0.416,0.44,0.906,0.54,1.396
		l3.089,16.31c-0.024,0.369,0.023,0.59,0,0.884c-0.172,2.427-2.281,4.193-4.684,4.021c-1.985-0.171-3.46-1.642-3.924-3.46
		L72.65,70.161l-9.302-10.178l-2.157,9.908c-0.073,0.464-0.687,1.447-0.857,1.84l-8.926,15.031c-0.884,1.373-2.381,2.257-4.073,2.11
		c-2.429-0.171-4.217-2.281-4.022-4.685c0.05-0.688,0.345-1.396,0.59-1.889l8.287-13.904l7.352-29.874l-4.284,5.401l-6.901,8.789
		c-0.894,1.122-2.544,1.607-3.838,0.848c-1.406-0.813-1.862-2.584-1.046-3.989c0.052-0.11,0.126-0.209,0.214-0.332l8.086-10.234
		c0.322-0.339,7.096-8.86,9.406-11.771C61.657,26.631,62.69,25.77,62.69,25.77z"/>
	
		<rect x="39.373" y="47.331" transform="matrix(-0.7919 -0.6107 0.6107 -0.7919 36.9522 129.2841)" fill="#B5B5B5" width="2.266" height="22.029"/>
	<circle fill="#B5B5B5" cx="21.392" cy="86.15" r="2.761"/>
	<path fill="#B5B5B5" d="M38.215,62.939l-7.694-6.009c-1.142-0.893-2.79-0.688-3.681,0.453l-1.077,1.377l-0.056-0.045
		c-1.142-0.893-2.792-0.688-3.683,0.452L11.217,73.009c-0.89,1.141-0.688,2.789,0.452,3.682l0.057,0.045l-0.089,0.115
		c-0.89,1.141-0.687,2.79,0.454,3.681l5.582,4.359c0.528-1.558,1.986-2.684,3.719-2.684c1.508,0,2.803,0.855,3.467,2.1
		l13.809-17.684C39.559,65.479,39.356,63.831,38.215,62.939z"/>
</g>
</svg>
