<?xml version="1.0" encoding="utf-8"?>
<!-- Generator: Adobe Illustrator 16.0.4, SVG Export Plug-In . SVG Version: 6.00 Build 0)  -->
<!DOCTYPE svg PUBLIC "-//W3C//DTD SVG 1.1//EN" "http://www.w3.org/Graphics/SVG/1.1/DTD/svg11.dtd">
<svg version="1.1" id="Layer_1" xmlns="http://www.w3.org/2000/svg" xmlns:xlink="http://www.w3.org/1999/xlink" x="0px" y="0px"
	 width="80px" height="80px" viewBox="10 10 80 80" enable-background="new 10 10 80 80" xml:space="preserve">
<g>
	<g>
		<path fill="#363331" d="M88.872,43.868c-3.312-12.25-14.258-21.386-26.979-22.166c-12.958-0.796-24.861,6.991-29.68,18.867
			c-6.499-1.575-12.996-3.15-19.493-4.726c-2.58-0.624-3.651,3.353-1.066,3.981c0.165,0.041,0.327,0.079,0.493,0.12
			c13.172,3.193,26.346,6.387,39.519,9.58c11.562,2.805,23.122,5.609,34.682,8.411c0.646,0.157,1.196,0.026,1.619-0.271
			c0.731-0.172,1.399-0.678,1.509-1.449C90.06,52.09,89.965,47.906,88.872,43.868z"/>
		<path fill="#363331" d="M32.868,46.889c-0.271,1.526-0.414,3.101-0.414,4.707c0,14.777,11.979,26.758,26.756,26.758
			c12.034,0,22.212-7.945,25.578-18.876c-10.9-2.644-21.801-5.286-32.701-7.927C45.68,49.996,39.272,48.441,32.868,46.889z
			 M46.567,66.286c-1.139,0-2.06-1.791-2.06-3.996c0-2.21,0.923-3.998,2.06-3.998c1.138,0,2.06,1.788,2.06,3.998
			C48.627,64.495,47.705,66.286,46.567,66.286z M66.786,58.291c1.139,0,2.06,1.787,2.06,3.997c0,2.207-0.921,3.995-2.06,3.995
			c-1.14,0-2.061-1.788-2.061-3.995C64.729,60.078,65.649,58.291,66.786,58.291z M63.245,70.845
			c1.041-0.687,2.004,0.978,0.972,1.657C60.02,75.269,54.2,75.86,50.201,72.353c-0.934-0.822,0.43-2.174,1.36-1.36
			C54.735,73.777,59.735,73.154,63.245,70.845z"/>
	</g>
</g>
</svg>
