<?xml version="1.0" encoding="UTF-8" standalone="no"?>
<svg width="60px" height="40px" viewBox="0 0 60 40" version="1.1" xmlns="http://www.w3.org/2000/svg" xmlns:xlink="http://www.w3.org/1999/xlink" xmlns:sketch="http://www.bohemiancoding.com/sketch/ns">
    <!-- Generator: Sketch 3.2.2 (9983) - http://www.bohemiancoding.com/sketch -->
    <title>kids</title>
    <desc>Created with Sketch.</desc>
    <defs></defs>
    <g id="Icon" stroke="none" stroke-width="1" fill="none" fill-rule="evenodd" sketch:type="MSPage">
        <g id="kids" sketch:type="MSArtboardGroup" fill="#363331">
            <g id="Kids-2" sketch:type="MSLayerGroup" transform="translate(4.000000, 2.000000)">
                <path d="M51.408,14.415 C49.245,6.413 42.094,0.446 33.786,-0.064 C25.322,-0.584 17.547,4.503 14.399,12.26 C10.154,11.231 5.91,10.202 1.666,9.173 C-0.019,8.765 -0.719,11.363 0.969,11.773 C1.077,11.8 1.183,11.825 1.291,11.852 C9.895,13.938 18.5,16.024 27.105,18.11 C34.656,19.942 42.208,21.773 49.759,23.604 C50.181,23.706 50.54,23.621 50.817,23.427 C51.294,23.315 51.731,22.985 51.802,22.48 C52.183,19.786 52.122,17.053 51.408,14.415 L51.408,14.415 Z" id="Shape" sketch:type="MSShapeGroup"></path>
                <path d="M14.826,16.388 C14.649,17.386 14.556,18.414 14.556,19.463 C14.556,29.115 22.381,36.941 32.033,36.941 C39.894,36.941 46.542,31.751 48.74,24.612 C41.62,22.885 34.5,21.158 27.38,19.433 C23.195,18.418 19.01,17.402 14.826,16.388 L14.826,16.388 Z M23.775,29.058 C23.031,29.058 22.429,27.889 22.429,26.448 C22.429,25.005 23.032,23.837 23.775,23.837 C24.518,23.837 25.12,25.005 25.12,26.448 C25.12,27.889 24.518,29.058 23.775,29.058 L23.775,29.058 Z M36.982,23.836 C37.725,23.836 38.327,25.004 38.327,26.447 C38.327,27.888 37.725,29.057 36.982,29.057 C36.238,29.057 35.636,27.888 35.636,26.447 C35.637,25.004 36.239,23.836 36.982,23.836 L36.982,23.836 Z M34.669,32.036 C35.348,31.588 35.977,32.675 35.303,33.119 C32.561,34.926 28.761,35.312 26.148,33.021 C25.538,32.485 26.429,31.601 27.036,32.133 C29.11,33.952 32.376,33.545 34.669,32.036 L34.669,32.036 Z" id="Shape" sketch:type="MSShapeGroup"></path>
            </g>
        </g>
    </g>
</svg>