<?xml version="1.0" encoding="UTF-8" standalone="no"?>
<svg width="30px" height="30px" viewBox="0 0 30 30" version="1.1" xmlns="http://www.w3.org/2000/svg" xmlns:xlink="http://www.w3.org/1999/xlink" xmlns:sketch="http://www.bohemiancoding.com/sketch/ns">
    <!-- Generator: Sketch 3.2.2 (9983) - http://www.bohemiancoding.com/sketch -->
    <title>link_facebook</title>
    <desc>Created with Sketch.</desc>
    <defs></defs>
    <g id="Icon" stroke="none" stroke-width="1" fill="none" fill-rule="evenodd" sketch:type="MSPage">
        <g id="link_facebook" sketch:type="MSArtboardGroup" fill="#363331">
            <g id="Link---Facebook" sketch:type="MSLayerGroup" transform="translate(1.000000, 1.000000)">
                <path d="M26.4014925,0.0626865672 L1.59850746,0.0626865672 C0.752238806,0.0626865672 0.0626865672,0.752238806 0.0626865672,1.59850746 L0.0626865672,26.4014925 C0.0626865672,27.2477612 0.752238806,27.9373134 1.59850746,27.9373134 L14.9507463,27.9373134 L14.9507463,17.1447761 L11.3149254,17.1447761 L11.3149254,12.9343284 L14.9507463,12.9343284 L14.9507463,9.83134328 C14.9507463,6.22686567 17.1552239,4.27313433 20.3626866,4.27313433 C21.8985075,4.27313433 23.2253731,4.3880597 23.6119403,4.44029851 L23.6119403,8.20149254 L21.3865672,8.20149254 C19.641791,8.20149254 19.2970149,9.02686567 19.2970149,10.2492537 L19.2970149,12.9343284 L23.4656716,12.9343284 L22.9223881,17.1447761 L19.2970149,17.1447761 L19.2970149,27.9477612 L26.4014925,27.9477612 C27.2477612,27.9477612 27.9373134,27.258209 27.9373134,26.4119403 L27.9373134,1.59850746 C27.9373134,0.741791045 27.258209,0.0626865672 26.4014925,0.0626865672 L26.4014925,0.0626865672 Z" id="Blue_1_" sketch:type="MSShapeGroup"></path>
            </g>
        </g>
    </g>
</svg>