<?xml version="1.0" encoding="UTF-8" standalone="no"?>
<svg width="64px" height="30px" viewBox="0 0 64 30" version="1.1" xmlns="http://www.w3.org/2000/svg" xmlns:xlink="http://www.w3.org/1999/xlink" xmlns:sketch="http://www.bohemiancoding.com/sketch/ns">
    <!-- Generator: Sketch 3.2.2 (9983) - http://www.bohemiancoding.com/sketch -->
    <title>link_gctv_hover</title>
    <desc>Created with Sketch.</desc>
    <defs></defs>
    <g id="Icon" stroke="none" stroke-width="1" fill="none" fill-rule="evenodd" sketch:type="MSPage">
        <g id="link_gctv_hover" sketch:type="MSArtboardGroup" fill="#878787">
            <g id="Link---GCTV-Hover" sketch:type="MSLayerGroup" transform="translate(1.000000, 1.000000)">
                <g id="Group" transform="translate(0.018847, 0.423512)" sketch:type="MSShapeGroup">
                    <path d="M19.1604411,22.0828025 C17.7446663,22.1390353 16.3297588,21.9996757 14.9387004,21.6630936 C13.1361351,21.2258628 11.4710279,20.4601996 9.9893426,19.3877006 C8.46386154,18.2821954 7.23324321,16.9427942 6.33347823,15.406578 C5.43631498,13.8748441 4.86003177,12.242869 4.61763725,10.5562911 C4.37567636,8.86889813 4.48148004,7.15298129 4.93288021,5.45580873 C5.38644849,3.7553763 6.21206416,2.16659459 7.38717891,0.733064449 C7.55759223,0.525654886 7.7349435,0.325987526 7.91619736,0.13039501 C6.1088622,1.03908524 4.4706395,2.30962162 3.13855371,3.93426195 C-1.89752846,10.075052 -0.682954143,18.8901622 5.85172455,23.6218711 C9.66455996,26.3833929 14.445239,27.1417214 18.7675799,26.0765572 L16.9585102,24.7669023 L19.1604411,22.0828025 L19.1604411,22.0828025 Z" id="Shape"></path>
                    <path d="M20.986422,0.408706861 C19.7904934,0.133654886 18.5824234,0.068049896 17.3960345,0.211484407 C16.2126809,0.355733888 15.0614154,0.709022869 13.9764939,1.26116424 C12.8980768,1.81126819 11.9627549,2.56185447 11.1995807,3.49377131 C10.4199289,4.44483992 9.87660097,5.49451975 9.58564082,6.61469439 C9.29424705,7.74179626 9.22269947,8.8774553 9.37706879,9.98948025 C9.53057087,11.1019127 9.90998983,12.1776715 10.5053524,13.1853805 C11.0985469,14.190237 11.9128884,15.0716258 12.9266959,15.8055052 C13.9383352,16.5385696 15.0410352,17.0458877 16.2053094,17.3140125 C17.374787,17.5833597 18.5689811,17.6477422 19.7532019,17.5022703 C19.9574377,17.4774137 20.1616736,17.443185 20.366343,17.404474 L15.9212872,14.1849397 L19.1543704,10.2429356 L28.9880428,17.3653555 C30.7377063,12.9144033 29.9619571,7.88360083 26.9166321,4.07525156 C26.2250055,3.23746362 25.2827456,2.3911185 24.3162029,1.77866944 C23.2555642,1.10713514 22.1788816,0.682128898 20.986422,0.408706861 Z" id="Shape"></path>
                </g>
                <path d="M44.7752759,8.09616216 L33.0722571,8.09616216 L33.0722571,9.37545946 L38.194726,9.37545946 L38.194726,21.7234595 L39.652807,21.7234595 L39.652807,9.37545946 L44.7752759,9.37545946 L44.7752759,8.09616216 Z M61.9936419,8.09616216 L60.4204492,8.09616216 L55.3939067,18.8496757 L50.3481789,8.09616216 L48.7749863,8.09616216 L55.3555362,21.9459459 L55.4322773,21.9459459 L61.9936419,8.09616216 Z" id="TV-3" sketch:type="MSShapeGroup"></path>
            </g>
        </g>
    </g>
</svg>