<?xml version="1.0" encoding="UTF-8" standalone="no"?>
<svg width="24px" height="24px" viewBox="0 0 24 24" version="1.1" xmlns="http://www.w3.org/2000/svg" xmlns:xlink="http://www.w3.org/1999/xlink" xmlns:sketch="http://www.bohemiancoding.com/sketch/ns">
    <!-- Generator: Sketch 3.2.2 (9983) - http://www.bohemiancoding.com/sketch -->
    <title>link</title>
    <desc>Created with Sketch.</desc>
    <defs></defs>
    <g id="Icon" stroke="none" stroke-width="1" fill="none" fill-rule="evenodd" sketch:type="MSPage">
        <g id="link" sketch:type="MSArtboardGroup">
            <g id="Link-2" sketch:type="MSLayerGroup" transform="translate(2.000000, 2.000000)">
                <circle id="Oval-227" stroke="#878787" sketch:type="MSShapeGroup" cx="10" cy="10" r="10"></circle>
                <g id="Group-+-Shape" transform="translate(4.000000, 4.000000)" fill="#878787" sketch:type="MSShapeGroup">
                    <g id="Group">
                        <path d="M4.90752,8.7564 C4.90344,8.76024 4.90056,8.7648 4.89648,8.76912 L3.49848,10.14312 C3.27,10.36824 2.96712,10.48992 2.64672,10.48728 C2.32632,10.48464 2.02608,10.35696 1.80144,10.12872 C1.338,9.65664 1.34472,8.89536 1.81656,8.43144 L3.2148,7.05744 C3.21888,7.05336 3.22392,7.05072 3.22848,7.0464 L4.89048,5.41296 C4.63224,5.32608 4.35984,5.27592 4.0788,5.27328 C3.37368,5.26704 2.70864,5.53608 2.20584,6.02976 L0.80736,7.40424 C-0.23088,8.42376 -0.24576,10.09872 0.77448,11.13744 C1.2684,11.64048 1.9296,11.92128 2.63448,11.92728 C3.33936,11.93328 4.00512,11.66472 4.50792,11.1708 L5.90592,9.79632 C6.40896,9.30216 6.68952,8.6412 6.696,7.9368 C6.69816,7.65552 6.65256,7.38312 6.57048,7.12248 L4.90752,8.7564 L4.90752,8.7564 Z" id="Shape"></path>
                        <path d="M11.23152,0.86256 C10.73664,0.35952 10.0764,0.0792 9.37152,0.07296 C8.66592,0.06672 8.00112,0.33552 7.49784,0.82992 L6.09984,2.20344 C5.36928,2.92128 5.148,3.96192 5.4348,4.87824 L7.09608,3.246 C7.10088,3.24096 7.104,3.2352 7.1088,3.23064 L8.50704,1.85688 C8.736,1.63224 9.03792,1.51008 9.3588,1.51296 C9.6792,1.5156 9.9792,1.64328 10.20408,1.87176 C10.42872,2.10024 10.55088,2.40264 10.54824,2.72328 C10.54512,3.04368 10.41768,3.34416 10.18944,3.5688 L8.7912,4.94232 C8.78736,4.94616 8.78304,4.94832 8.7792,4.95216 L7.11576,6.58656 C7.37424,6.6732 7.64616,6.7236 7.92696,6.72624 C8.63208,6.732 9.29736,6.46344 9.80016,5.96928 L11.19864,4.59576 C11.70144,4.1016 11.982,3.44088 11.98824,2.736 C11.99424,2.03064 11.72544,1.36512 11.23152,0.86256 L11.23152,0.86256 Z" id="Shape"></path>
                    </g>
                    <path d="M8.5416,3.50496 C8.82552,3.79368 8.78184,4.29672 8.4444,4.62816 L4.5888,8.41656 C4.2516,8.748 3.7476,8.78304 3.46368,8.49432 L3.46368,8.49432 C3.18048,8.2056 3.22416,7.70304 3.5616,7.37112 L7.4172,3.58296 C7.75488,3.25152 8.25792,3.21648 8.5416,3.50496 L8.5416,3.50496 L8.5416,3.50496 Z" id="Shape"></path>
                </g>
            </g>
        </g>
    </g>
</svg>