<?xml version="1.0" encoding="UTF-8" standalone="no"?>
<svg width="30px" height="30px" viewBox="0 0 30 30" version="1.1" xmlns="http://www.w3.org/2000/svg" xmlns:xlink="http://www.w3.org/1999/xlink" xmlns:sketch="http://www.bohemiancoding.com/sketch/ns">
    <!-- Generator: Sketch 3.4.1 (15681) - http://www.bohemiancoding.com/sketch -->
    <title>link_twitter_hover</title>
    <desc>Created with Sketch.</desc>
    <defs></defs>
    <g id="Icon" stroke="none" stroke-width="1" fill="none" fill-rule="evenodd" sketch:type="MSPage">
        <g id="link_twitter_hover" sketch:type="MSArtboardGroup" fill="#878787">
            <path d="M29.301497,6.72269532 C28.2601833,7.18450072 27.1411256,7.49661533 25.9665808,7.63698926 C27.1654529,6.91834925 28.0860616,5.78045081 28.5196059,4.4246415 C27.3977532,5.0899684 26.1550919,5.57320257 24.8325127,5.8336604 C23.7732899,4.70518233 22.2642701,4 20.5942758,4 C17.3875181,4 14.7877018,6.59971284 14.7877018,9.80626345 C14.7877018,10.26134 14.8391515,10.7045117 14.9381172,11.1294638 C10.1124009,10.8873291 5.83399797,8.57571407 2.97020407,5.06284601 C2.47040661,5.92041066 2.18406863,6.91783165 2.18406863,7.9819199 C2.18406863,9.99632727 3.20923314,11.7735689 4.76721818,12.8147791 C3.81534625,12.7846546 2.9201001,12.5234722 2.1371738,12.0885821 C2.13675972,12.1128059 2.13675972,12.1371333 2.13675972,12.1615642 C2.13675972,14.97484 4.13822701,17.321652 6.7944621,17.8549901 C6.30719063,17.9877036 5.79424605,18.0586152 5.26463466,18.0586152 C4.89051121,18.0586152 4.52673982,18.0222794 4.17228528,17.9544734 C4.91111181,20.2613265 7.05543753,21.9400166 9.59624715,21.9869114 C7.6090657,23.5441718 5.10541998,24.472441 2.38510564,24.472441 C1.91646788,24.472441 1.4542484,24.4450081 1,24.3913844 C3.56958835,26.0388112 6.62168622,27 9.90070124,27 C20.5807146,27 26.4209328,18.1524048 26.4209328,10.4795614 C26.4209328,10.2277993 26.4153427,9.977383 26.4041624,9.72841595 C27.5385412,8.90977505 28.5230221,7.88709503 29.301497,6.72269532" id="Fill-1" sketch:type="MSShapeGroup"></path>
        </g>
    </g>
</svg>