<?xml version="1.0" encoding="UTF-8" standalone="no"?>
<svg width="70px" height="30px" viewBox="0 0 70 30" version="1.1" xmlns="http://www.w3.org/2000/svg" xmlns:xlink="http://www.w3.org/1999/xlink" xmlns:sketch="http://www.bohemiancoding.com/sketch/ns">
    <!-- Generator: Sketch 3.2.2 (9983) - http://www.bohemiancoding.com/sketch -->
    <title>link_youtube_hover</title>
    <desc>Created with Sketch.</desc>
    <defs>
        <path id="path-1" d="M0.00812749004,0.123066667 L67.8676574,0.123066667 L67.8676574,27.992 L0.00812749004,27.992"></path>
        <path id="path-3" d="M0.00812749004,0.123066667 L67.8676574,0.123066667 L67.8676574,27.992 L0.00812749004,27.992 L0.00812749004,0.123066667 Z"></path>
    </defs>
    <g id="Icon" stroke="none" stroke-width="1" fill="none" fill-rule="evenodd" sketch:type="MSPage">
        <g id="link_youtube_hover" sketch:type="MSArtboardGroup">
            <g id="Link---YouTube-Hover" sketch:type="MSLayerGroup" transform="translate(1.000000, 1.000000)">
                <mask id="mask-2" sketch:name="Clip 2" fill="white">
                    <use xlink:href="#path-1"></use>
                </mask>
                <g id="Clip-2"></g>
                <path d="M67.4637211,6.13693333 C67.4637211,6.13693333 67.0684542,3.4056 65.8556972,2.2028 C64.3177052,0.624266667 62.5933227,0.616266667 61.8027888,0.524 C56.1426693,0.123066667 47.6521514,0.123066667 47.6521514,0.123066667 L47.6344064,0.123066667 C47.6344064,0.123066667 39.143753,0.123066667 33.4836335,0.524 C32.6928287,0.616266667 30.9691235,0.624266667 29.4307251,2.2028 C28.2178327,3.4056 27.8231076,6.13693333 27.8231076,6.13693333 C27.8231076,6.13693333 27.4186295,9.34426667 27.4186295,12.5518667 L27.4186295,15.5589333 C27.4186295,18.7661333 27.8231076,21.9734667 27.8231076,21.9734667 C27.8231076,21.9734667 28.2178327,24.7046667 29.4307251,25.9076 C30.9691235,27.4865333 32.9907012,27.4362667 33.8906853,27.6016 C37.1266454,27.906 47.6432112,28 47.6432112,28 C47.6432112,28 56.1426693,27.9874667 61.8027888,27.5868 C62.5933227,27.4942667 64.3177052,27.4865333 65.8556972,25.9076 C67.0684542,24.7046667 67.4637211,21.9734667 67.4637211,21.9734667 C67.4637211,21.9734667 67.8676574,18.7661333 67.8676574,15.5589333 L67.8676574,12.5518667 C67.8676574,9.34426667 67.4637211,6.13693333 67.4637211,6.13693333 Z M59.6015936,12.9437333 C59.6015936,11.6976 59.9487729,11.3577333 60.767753,11.3577333 C61.5807729,11.3577333 61.9043825,11.728 61.9043825,12.9604 L61.9043825,14.4158667 L59.6015936,14.4184 L59.6015936,12.9437333 Z M64.4828287,16.4158667 L64.4822869,13.6901333 C64.4822869,12.2661333 64.1974183,11.2244 63.6847092,10.5505333 C62.997259,9.6388 62.020741,9.15626667 60.79051,9.15626667 C59.5386056,9.15626667 58.5620876,9.6388 57.8528287,10.5505333 C57.3318566,11.2244 57.0278884,12.3252 57.0278884,13.7492 L57.0278884,18.4158667 C57.0278884,19.8317333 57.3620637,20.8229333 57.8830359,21.4896 C58.5920239,22.4 59.5685418,22.8544 60.8514661,22.8544 C62.1327649,22.8544 63.1390837,22.3776 63.8174582,21.4101333 C64.1156016,20.9830667 64.3082231,20.4989333 64.390988,19.9638667 C64.4130677,19.7221333 64.4780876,19.1716 64.4780876,18.3937333 L64.4780876,18.0158667 L61.9045179,18.0158667 C61.9045179,18.9844 61.9088526,19.5601333 61.8860956,19.6917333 C61.7461673,20.3369333 61.394247,20.6601333 60.79051,20.6601333 C59.9487729,20.6601333 59.5931952,20.0406667 59.6015936,18.8102667 L59.6015936,16.4158667 L64.4828287,16.4158667 Z M52.8286853,18.8158667 C52.8286853,20.1492 52.5094104,20.6601333 51.8021833,20.6601333 C51.3983825,20.6601333 50.9332191,20.4556 50.5230518,20.052 L50.5258964,11.9658667 C50.9359283,11.5674667 51.3983825,11.3577333 51.8021833,11.3577333 C52.5094104,11.3577333 52.8286853,11.7492 52.8286853,13.0825333 L52.8286853,18.8158667 Z M53.1140956,9.13533333 C52.2119442,9.13533333 51.3152112,9.68146667 50.5230518,10.6409333 L50.5258964,4.81586667 L48.0876494,4.81586667 L48.0876494,22.6825333 L50.5258964,22.6825333 L50.5292829,21.3401333 C51.3486693,22.338 52.2421514,22.8544 53.1140956,22.8544 C54.0906135,22.8544 54.8042072,22.3398667 55.1314741,21.3492 C55.295243,20.7844 55.4023904,19.9148 55.4023904,18.6825333 L55.4023904,13.3492 C55.4023904,12.0872 55.2380797,11.2244 55.0743108,10.6885333 C54.7470438,9.69053333 54.0906135,9.13533333 53.1140956,9.13533333 Z M46.0557769,22.6825333 L43.4820717,22.6825333 L43.4820717,21.2158667 C42.5063665,22.3166667 41.679259,22.8726667 40.7776494,22.8726667 C39.9865737,22.8726667 39.4372908,22.5053333 39.1621753,21.8417333 C38.9950199,21.4381333 38.876494,20.8081333 38.876494,19.8825333 L38.876494,9.3492 L41.4501992,9.3492 L41.4501992,19.2158667 L41.4501992,20.1492 C41.5102072,20.5234667 41.6716733,20.6601333 41.9989402,20.6601333 C42.4916016,20.6601333 42.9373944,20.2388 43.4820717,19.4825333 L43.4820717,9.3492 L46.0557769,9.3492 L46.0557769,22.6825333 Z M36.3027888,22.6825333 L33.5936255,22.6825333 L33.5936255,7.3492 L30.749004,7.3492 L30.749004,4.81866667 L39.2828685,4.81586667 L39.2828685,7.3492 L36.3027888,7.3492 L36.3027888,22.6825333 Z" id="Fill-1" fill="#878787" sketch:type="MSShapeGroup" mask="url(#mask-2)"></path>
                <path d="M25.3306773,22.6825333 L22.7569721,22.6825333 L22.7569721,21.2158667 C21.7812669,22.3166667 20.9541594,22.8726667 20.0525498,22.8726667 C19.2614741,22.8726667 18.7121912,22.5053333 18.4370757,21.8417333 C18.2699203,21.4381333 18.1513944,20.8081333 18.1513944,19.8825333 L18.1513944,9.21586667 L20.7250996,9.21586667 L20.7250996,19.2158667 L20.7250996,20.1492 C20.7851076,20.5234667 20.9465737,20.6601333 21.2738406,20.6601333 C21.766502,20.6601333 22.2122948,20.2388 22.7569721,19.4825333 L22.7569721,9.21586667 L25.3306773,9.21586667 L25.3306773,22.6825333" id="Fill-4" fill="#878787" sketch:type="MSShapeGroup" mask="url(#mask-2)"></path>
                <mask id="mask-4" sketch:name="Clip 6" fill="white">
                    <use xlink:href="#path-3"></use>
                </mask>
                <g id="Clip-6"></g>
                <path d="M13.6812749,18.6825333 C13.8167331,20.0158667 13.3965418,20.6774667 12.5973386,20.6774667 C11.7982709,20.6774667 11.3784861,20.0158667 11.5139442,18.6825333 L11.5139442,13.3492 C11.3784861,12.0158667 11.7984064,11.3909333 12.5976096,11.3909333 C13.3968127,11.3909333 13.8180876,12.0158667 13.6826295,13.3492 L13.6812749,18.6825333 L13.6812749,18.6825333 Z M16.2549801,13.6158667 C16.2549801,12.1768 15.9613068,11.0961333 15.4422311,10.4158667 C14.7565418,9.4948 13.6812749,9.11773333 12.5976096,9.11773333 C11.3710359,9.11773333 10.4375936,9.4948 9.75298805,10.4158667 C9.2256494,11.0961333 8.94281275,12.1885333 8.94281275,13.6276 L8.94023904,18.4158667 C8.94023904,19.8469333 9.19178486,20.8357333 9.71925896,21.5093333 C10.4038645,22.4276 11.5139442,22.9141333 12.5976096,22.9141333 C13.6812749,22.9141333 14.8108606,22.4276 15.4964143,21.5093333 C16.01549,20.8357333 16.2549801,19.8469333 16.2549801,18.4158667 L16.2549801,13.6158667 L16.2549801,13.6158667 Z" id="Fill-5" fill="#878787" sketch:type="MSShapeGroup" mask="url(#mask-4)"></path>
                <path d="M6.09561753,15.3492 L6.09561753,22.6825333 L3.38645418,22.6825333 L3.38645418,15.3492 C3.38645418,15.3492 0.579083665,6.3584 0,4.68253333 L2.84462151,4.68253333 L4.74577689,11.706 L6.6374502,4.68253333 L9.48207171,4.68253333 L6.09561753,15.3492" id="Fill-7" fill="#878787" sketch:type="MSShapeGroup" mask="url(#mask-4)"></path>
            </g>
        </g>
    </g>
</svg>