<?xml version="1.0" encoding="UTF-8" standalone="no"?>
<svg width="30px" height="30px" viewBox="0 0 30 30" version="1.1" xmlns="http://www.w3.org/2000/svg" xmlns:xlink="http://www.w3.org/1999/xlink">
    <!-- Generator: Sketch 3.8.3 (29802) - http://www.bohemiancoding.com/sketch -->
    <title>link_instagram_hover</title>
    <desc>Created with Sketch.</desc>
    <defs></defs>
    <g id="Icon" stroke="none" stroke-width="1" fill="none" fill-rule="evenodd">
        <g id="link_instagram_hover" fill="#878787">
            <g id="Group" transform="translate(1.000000, 1.000000)">
                <path d="M20.48032,13.6261575 C20.48032,17.1999932 17.57896,20.0982118 14,20.0982118 C10.42132,20.0982118 7.52052,17.2002729 7.52052,13.6261575 C7.52052,12.8171507 7.67564,12.0470143 7.9464,11.3328064 L0,11.3328064 L0,20.9734939 C0,24.8350821 3.13432,27.9642857 7,27.9642857 L21.00028,27.9642857 C24.86624,27.9642857 28,24.8350821 28,20.9734939 L28,11.3328064 L20.05332,11.3328064 C20.32464,12.0467346 20.48032,12.8171507 20.48032,13.6261575 L20.48032,13.6261575 Z" id="Shape"></path>
                <ellipse id="Oval" cx="14" cy="13.6258779" rx="3.88892" ry="3.88395964"></ellipse>
                <path d="M21.00028,0.000559285714 L7.36876,0.000559285714 L7.36876,7.29056893 L5.838,7.29056893 L5.838,0.104866071 C5.30544,0.193233214 4.79164,0.33669 4.30724,0.5383125 L4.30724,7.29084857 L2.77676,7.29084857 L2.77676,1.42561929 C1.092,2.70218893 0,4.71729536 0,6.99191036 L0,9.03889607 L9.42984,9.03889607 C10.60192,7.87474286 12.21668,7.1546625 14,7.1546625 C15.78332,7.1546625 17.3978,7.87474286 18.5696,9.03889607 L28,9.03889607 L28,6.99191036 C28,3.13088143 24.86624,0.000559285714 21.00028,0.000559285714 L21.00028,0.000559285714 Z M24.1276,6.61215536 C24.1276,7.04532214 23.7748,7.39795179 23.34052,7.39795179 L20.98068,7.39795179 C20.54556,7.39795179 20.1936,7.04644071 20.1936,6.61215536 L20.1936,4.25476607 C20.1936,3.82104 20.54556,3.46869 20.98068,3.46869 L23.34052,3.46869 C23.7748,3.46869 24.1276,3.82020107 24.1276,4.25476607 L24.1276,6.61215536 L24.1276,6.61215536 Z" id="Shape"></path>
            </g>
        </g>
    </g>
</svg>