<?xml version="1.0" encoding="UTF-8"?>
<svg width="1940px" height="791px" viewBox="0 0 1940 791" version="1.1" xmlns="http://www.w3.org/2000/svg" xmlns:xlink="http://www.w3.org/1999/xlink">
    <!-- Generator: Sketch 41.2 (35397) - http://www.bohemiancoding.com/sketch -->
    <title>LogoGCFribourg</title>
    <desc>Created with Sketch.</desc>
    <defs>
        <linearGradient x1="49.9996203%" y1="-14.0711459%" x2="49.9996203%" y2="81.589717%" id="linearGradient-1">
            <stop stop-color="#E42616" offset="0%"></stop>
            <stop stop-color="#D11015" offset="100%"></stop>
        </linearGradient>
        <linearGradient x1="49.9975529%" y1="-21.350347%" x2="49.9975529%" y2="123.500565%" id="linearGradient-2">
            <stop stop-color="#E42616" offset="0%"></stop>
            <stop stop-color="#D11015" offset="100%"></stop>
        </linearGradient>
    </defs>
    <g id="Icon" stroke="none" stroke-width="1" fill="none" fill-rule="evenodd">
        <g id="LogoGCFribourg">
            <g id="Group" transform="translate(1437.509294, 24.277778)">
                <path d="M315.736506,384.607639 C292.432416,385.592806 269.142602,383.151306 246.245353,377.254583 C216.574572,369.601694 189.166394,356.187722 164.777398,337.391028 C139.660372,318.023222 119.411152,294.557694 104.593606,267.644083 C89.8331599,240.801861 80.3473606,212.210611 76.3574721,182.669889 C72.3747212,153.100611 74.1162825,123.03875 81.5464684,93.3052778 C89.012342,63.5218333 102.60223,35.6801667 121.944981,10.5655556 C124.7429,6.92472222 127.669294,3.43380556 130.652788,0.00713888889 C100.903494,15.9197222 73.9378439,38.1859167 52.0113011,66.6486667 C-30.8841636,174.224583 -10.8990335,328.667306 96.6709294,411.556944 C159.424238,459.937194 238.122825,473.222667 309.269888,454.56875 L279.492045,431.624361 L315.736506,384.607639 L315.736506,384.607639 Z" id="Shape" fill="url(#linearGradient-1)"></path>
                <path d="M400.609071,28.8839444 C383.143494,17.1261944 365.428104,9.68033333 345.792714,4.883 C326.107361,0.06425 306.229294,-1.08511111 286.700967,1.42777778 C267.222602,3.95494444 248.272416,10.1515 230.414275,19.8175556 C212.656059,29.4550556 197.267509,42.6048889 184.705428,58.9315278 C171.872119,75.6008333 162.928773,93.9834722 158.13948,113.608278 C153.335911,133.361583 152.158216,153.257667 154.70632,172.732556 C157.233011,192.221722 163.471227,211.06125 173.278216,228.722861 C183.042379,246.327361 196.439554,261.768778 213.134275,274.625917 C229.786171,287.468778 247.936952,296.363833 267.101264,301.054083 C286.344089,305.772889 306.00803,306.900833 325.500669,304.35225 C328.855316,303.916778 332.2171,303.317111 335.59316,302.638917 L262.426171,246.241694 L315.63658,177.180083 L477.508996,301.960722 C506.308996,223.982639 493.539926,135.838778 443.405799,69.1258611 C432.014275,54.4483056 416.511524,39.6136944 400.609071,28.8839444 L400.609071,28.8839444 Z" id="Shape" fill="url(#linearGradient-2)"></path>
            </g>
            <g id="Group-41" transform="translate(10.000000, 10.000000)" fill="#3B3B3B">
                <path d="M0,127.161558 C0,52.7237688 56.447422,5.44790642 125.586872,5.44790642 C174.266688,5.44790642 204.963193,30.140567 222.600807,58.0150532 L181.328789,80.584145 C170.386413,64.0118422 150.286587,49.9017505 125.586872,49.9017505 C82.5440367,49.9017505 51.5018349,82.7077138 51.5018349,127.161558 C51.5018349,171.608347 82.5440367,204.41431 125.586872,204.41431 C146.399257,204.41431 165.800633,195.24275 175.332,186.423943 L175.332,158.20376 L113.240541,158.20376 L113.240541,114.45542 L225.422826,114.45542 L225.422826,204.767062 C201.43567,231.583292 167.924202,248.861099 125.586872,248.861099 C56.447422,248.861099 0,201.239539 0,127.161558 L0,127.161558 Z" id="Fill-6"></path>
                <path d="M448.360864,127.161558 C448.360864,83.0604661 420.486378,49.9017505 377.090791,49.9017505 C333.349506,49.9017505 305.482075,83.0604661 305.482075,127.161558 C305.482075,170.895787 333.349506,204.41431 377.090791,204.41431 C420.486378,204.41431 448.360864,170.895787 448.360864,127.161558 M253.973185,127.161558 C253.973185,56.2512917 305.841883,5.44790642 377.090791,5.44790642 C448.001057,5.44790642 499.862699,56.2512917 499.862699,127.161558 C499.862699,198.064769 448.001057,248.861099 377.090791,248.861099 C305.841883,248.861099 253.973185,198.064769 253.973185,127.161558" id="Fill-8"></path>
                <path d="M518.890158,211.470767 L546.404837,172.315262 C562.99125,189.600125 588.742167,204.415721 621.195378,204.415721 C649.062809,204.415721 662.121699,192.062336 662.121699,178.312051 C662.121699,137.38573 526.657763,165.965721 526.657763,77.4178404 C526.657763,38.2552807 560.514928,5.80912477 615.904094,5.80912477 C653.302892,5.80912477 684.345094,17.0901431 707.61969,38.6150881 L679.759314,76.0068312 C660.703635,58.3692165 635.30547,50.2488587 611.318314,50.2488587 C590.153176,50.2488587 578.152543,59.4204183 578.152543,73.5305101 C578.152543,110.576556 713.270782,85.5381982 713.270782,173.373519 C713.270782,216.409299 682.221525,248.86251 619.078864,248.86251 C573.573818,248.86251 541.113552,233.694161 518.890158,211.470767" id="Fill-10"></path>
                <path d="M884.705574,85.1762743 C884.705574,65.4221459 869.537226,53.4285679 849.783097,53.4285679 L796.863198,53.4285679 L796.863198,116.578283 L849.783097,116.578283 C869.537226,116.578283 884.705574,104.57765 884.705574,85.1762743 L884.705574,85.1762743 Z M746.765317,244.634421 L746.765317,9.33453119 L856.838143,9.33453119 C907.987226,9.33453119 935.861712,43.904256 935.861712,85.1762743 C935.861712,126.102595 907.634473,160.67232 856.838143,160.67232 L796.863198,160.67232 L796.863198,244.634421 L746.765317,244.634421 Z" id="Fill-12"></path>
                <polygon id="Fill-14" points="967.237617 244.630894 967.237617 9.33100367 1133.75081 9.33100367 1133.75081 53.4250404 1017.3355 53.4250404 1017.3355 102.810361 1131.28154 102.810361 1131.28154 146.904398 1017.3355 146.904398 1017.3355 200.536857 1133.75081 200.536857 1133.75081 244.630894"></polygon>
                <polygon id="Fill-16" points="1170.77287 244.630894 1170.77287 9.33100367 1221.21645 9.33100367 1221.21645 200.536857 1320.7067 200.536857 1320.7067 244.630894"></polygon>
                <path d="M6.00102202,416.418439 C6.00102202,344.090108 59.2666183,294.704787 126.995059,294.704787 C168.626884,294.704787 197.545517,314.465971 216.248444,341.275145 L191.915591,355.032484 C178.503949,334.925604 153.811288,320.815512 126.995059,320.815512 C75.4932239,320.815512 36.3377193,359.971017 36.3377193,416.418439 C36.3377193,472.153301 75.4932239,512.021365 126.995059,512.021365 C153.811288,512.021365 178.503949,497.551466 191.915591,477.790283 L216.608251,491.201925 C196.847068,518.363851 168.626884,538.11798 126.995059,538.11798 C59.2666183,538.11798 6.00102202,488.732659 6.00102202,416.418439" id="Fill-18"></path>
                <polygon id="Fill-20" points="268.092449 533.887774 268.092449 298.587884 422.252256 298.587884 422.252256 324.691554 297.363834 324.691554 297.363834 400.540352 419.78299 400.540352 419.78299 426.644022 297.363834 426.644022 297.363834 507.784105 422.252256 507.784105 422.252256 533.887774"></polygon>
                <polygon id="Fill-22" points="635.306175 533.887774 498.078478 346.209444 498.078478 533.887774 468.807093 533.887774 468.807093 298.587884 498.791038 298.587884 634.254973 482.378884 634.254973 298.587884 663.533414 298.587884 663.533414 533.887774"></polygon>
                <polygon id="Fill-24" points="776.752084 533.887774 776.752084 324.691554 702.314295 324.691554 702.314295 298.587884 880.828121 298.587884 880.828121 324.691554 806.030525 324.691554 806.030525 533.887774"></polygon>
                <polygon id="Fill-26" points="926.671809 533.887774 926.671809 298.587884 1080.83867 298.587884 1080.83867 324.691554 955.95025 324.691554 955.95025 400.540352 1078.36235 400.540352 1078.36235 426.644022 955.95025 426.644022 955.95025 507.784105 1080.83867 507.784105 1080.83867 533.887774"></polygon>
                <path d="M1286.83896,369.500267 C1286.83896,342.684038 1267.43758,324.686616 1239.56309,324.686616 L1177.83144,324.686616 L1177.83144,414.652561 L1239.56309,414.652561 C1267.43758,414.652561 1286.83896,395.956689 1286.83896,369.500267 L1286.83896,369.500267 Z M1284.71539,533.889891 L1225.10025,440.403478 L1177.83144,440.403478 L1177.83144,533.889891 L1148.54595,533.889891 L1148.54595,298.590001 L1243.09062,298.590001 C1286.1264,298.590001 1317.17565,326.111735 1317.17565,369.500267 C1317.17565,411.830542 1287.89016,435.112194 1255.79675,437.934212 L1319.29217,533.889891 L1284.71539,533.889891 Z" id="Fill-28"></path>
                <polygon id="Fill-30" points="757.71616 766.705699 757.71616 649.091029 832.302105 649.091029 832.302105 658.262589 767.7696 658.262589 767.7696 701.820442 831.067472 701.820442 831.067472 710.984947 767.7696 710.984947 767.7696 766.705699"></polygon>
                <path d="M966.529291,683.478028 C966.529291,668.662432 956.123098,658.263294 940.432676,658.263294 L907.457392,658.263294 L907.457392,708.869139 L940.432676,708.869139 C956.123098,708.869139 966.529291,698.293625 966.529291,683.478028 L966.529291,683.478028 Z M966.352915,766.706405 L933.37763,718.033643 L907.457392,718.033643 L907.457392,766.706405 L897.403951,766.706405 L897.403951,649.091735 L941.314557,649.091735 C961.590759,649.091735 977.11186,661.960139 977.11186,683.478028 C977.11186,704.812487 962.119887,716.622634 944.489328,717.335194 L978.515814,766.706405 L966.352915,766.706405 Z" id="Fill-32"></path>
                <polygon id="Fill-34" points="1046.2633 766.70711 1056.31674 766.70711 1056.31674 649.09244 1046.2633 649.09244"></polygon>
                <path d="M1202.16359,734.262365 C1202.16359,722.268787 1193.87391,710.980714 1177.47798,710.980714 L1139.74054,710.980714 L1139.74054,757.536961 L1177.47798,757.536961 C1192.99203,757.536961 1202.16359,748.541778 1202.16359,734.262365 L1202.16359,734.262365 Z M1199.87776,680.121943 C1199.87776,668.13542 1191.94083,658.265411 1176.77248,658.265411 L1139.74054,658.265411 L1139.74054,701.816209 L1176.77248,701.816209 C1191.94083,701.816209 1199.87776,692.291897 1199.87776,680.121943 L1199.87776,680.121943 Z M1129.69416,766.708521 L1129.69416,649.093851 L1178.00711,649.093851 C1197.75419,649.093851 1210.45327,660.558301 1210.45327,679.070741 C1210.45327,693.879283 1200.39983,703.932723 1189.82431,706.049237 C1202.33997,707.982319 1212.74616,721.034154 1212.74616,734.96787 C1212.74616,754.538567 1200.04708,766.708521 1179.07242,766.708521 L1129.69416,766.708521 Z" id="Fill-36"></path>
                <path d="M1381.53672,707.985141 C1381.53672,678.184628 1363.1936,656.32104 1334.98047,656.32104 C1306.59097,656.32104 1288.43128,678.184628 1288.43128,707.985141 C1288.43128,737.609279 1306.59097,759.649242 1334.98047,759.649242 C1363.1936,759.649242 1381.53672,737.609279 1381.53672,707.985141 M1277.84871,707.985141 C1277.84871,673.598848 1300.4178,647.149481 1334.98047,647.149481 C1369.36677,647.149481 1392.11223,673.598848 1392.11223,707.985141 C1392.11223,742.371435 1369.36677,768.820802 1334.98047,768.820802 C1300.4178,768.820802 1277.84871,742.371435 1277.84871,707.985141" id="Fill-37"></path>
                <path d="M1461.09859,721.564694 L1461.09859,649.095262 L1471.32841,649.095262 L1471.32841,721.388317 C1471.32841,745.199097 1483.85111,759.647831 1506.94933,759.647831 C1530.0405,759.647831 1542.57026,745.199097 1542.57026,721.388317 L1542.57026,649.095262 L1552.79302,649.095262 L1552.79302,721.564694 C1552.79302,750.659703 1537.27897,768.819391 1506.94933,768.819391 C1476.79607,768.819391 1461.09859,750.483327 1461.09859,721.564694" id="Fill-38"></path>
                <path d="M1695.30706,683.478028 C1695.30706,668.662432 1684.90087,658.263294 1669.21045,658.263294 L1636.23516,658.263294 L1636.23516,708.869139 L1669.21045,708.869139 C1684.90087,708.869139 1695.30706,698.293625 1695.30706,683.478028 L1695.30706,683.478028 Z M1695.13069,766.706405 L1662.1554,718.033643 L1636.23516,718.033643 L1636.23516,766.706405 L1626.18172,766.706405 L1626.18172,649.091735 L1670.09233,649.091735 C1690.36853,649.091735 1705.88963,661.960139 1705.88963,683.478028 C1705.88963,704.812487 1690.89766,716.622634 1673.2671,717.335194 L1707.29359,766.706405 L1695.13069,766.706405 Z" id="Fill-39"></path>
                <path d="M1770.63167,707.985141 C1770.63167,671.665765 1797.08809,647.149481 1830.2327,647.149481 C1849.62702,647.149481 1863.73711,654.917086 1874.49606,667.256361 L1866.91188,672.724022 C1858.62926,662.846958 1845.22467,656.32104 1830.2327,656.32104 C1802.72508,656.32104 1781.21424,677.302747 1781.21424,707.985141 C1781.21424,738.314783 1802.72508,759.832673 1830.2327,759.832673 C1845.93018,759.832673 1858.44583,752.072123 1864.80242,745.546206 L1864.80242,717.333077 L1820.36269,717.333077 L1820.36269,708.337894 L1874.84175,708.337894 L1874.84175,749.426481 C1864.44262,761.060251 1848.74514,768.997178 1830.2327,768.997178 C1797.08809,768.997178 1770.63167,744.311572 1770.63167,707.985141" id="Fill-40"></path>
            </g>
        </g>
    </g>
</svg>