<?xml version="1.0" encoding="UTF-8" standalone="no"?>
<svg width="1940px" height="791px" viewBox="0 0 1940 791" version="1.1" xmlns="http://www.w3.org/2000/svg" xmlns:xlink="http://www.w3.org/1999/xlink" xmlns:sketch="http://www.bohemiancoding.com/sketch/ns">
    <!-- Generator: Sketch 3.0.4 (8054) - http://www.bohemiancoding.com/sketch -->
    <title>LogoGCAnnecy</title>
    <desc>Created with Sketch.</desc>
    <defs>
        <linearGradient x1="49.9981435%" y1="-14.0708529%" x2="49.9981435%" y2="81.5889125%" id="linearGradient-1">
            <stop stop-color="#E42616" offset="0%"></stop>
            <stop stop-color="#D11015" offset="100%"></stop>
        </linearGradient>
        <linearGradient x1="50.0000311%" y1="-21.3507074%" x2="50.0000311%" y2="123.499145%" id="linearGradient-2">
            <stop stop-color="#E42616" offset="0%"></stop>
            <stop stop-color="#D11015" offset="100%"></stop>
        </linearGradient>
    </defs>
    <g id="Icon" stroke="none" stroke-width="1" fill="none" fill-rule="evenodd" sketch:type="MSPage">
        <g id="LogoGCAnnecy" sketch:type="MSArtboardGroup">
            <g id="GCAnnecy" sketch:type="MSLayerGroup" transform="translate(10.000000, 10.000000)">
                <g id="Group" transform="translate(1427.509294, 14.277778)" sketch:type="MSShapeGroup">
                    <path d="M313.224089,384.607639 C289.92,385.592806 266.630186,383.151306 243.732937,377.254583 C214.062156,369.601694 186.653978,356.187722 162.264981,337.391028 C137.155093,318.023222 116.898736,294.557694 102.08119,267.636944 C87.3136059,240.801861 77.8349442,212.210611 73.8450558,182.66275 C69.8623048,153.100611 71.6038662,123.03875 79.034052,93.3052778 C86.4999257,63.5146944 100.082677,35.6801667 119.432565,10.5584167 C122.230483,6.92472222 125.156877,3.42666667 128.140372,-2.84217094e-14 C98.3910781,15.9197222 71.4254275,38.1859167 49.4988848,66.6486667 C-33.3965799,174.224583 -13.4043123,328.667306 94.158513,411.556944 C156.918959,459.937194 235.610409,473.222667 306.757472,454.561611 L276.979628,431.624361 L313.224089,384.607639 L313.224089,384.607639 Z" id="Shape" fill="url(#linearGradient-1)"></path>
                    <path d="M398.089517,28.8839444 C380.623941,17.1261944 362.90855,9.68033333 343.280297,4.883 C323.594944,0.06425 303.70974,-1.08511111 284.181413,1.42777778 C264.703048,3.95494444 245.752862,10.1443611 227.894721,19.8175556 C210.136506,29.4550556 194.747955,42.6048889 182.185874,58.9315278 C169.352565,75.5936944 160.409219,93.9834722 155.619926,113.608278 C150.816357,133.361583 149.645799,153.257667 152.186766,172.732556 C154.713457,192.221722 160.95881,211.06125 170.758662,228.722861 C180.522825,246.327361 193.92,261.768778 210.614721,274.625917 C227.266617,287.468778 245.417398,296.356694 264.58171,301.046944 C283.831673,305.76575 303.488476,306.893694 322.981115,304.35225 C326.335762,303.916778 329.697546,303.317111 333.073606,302.638917 L259.906617,246.234556 L313.117026,177.172944 L474.989442,301.953583 C503.789442,223.9755 491.020372,135.831639 440.886245,69.1187222 C429.501859,54.4483056 413.999108,39.6136944 398.089517,28.8839444 L398.089517,28.8839444 Z" id="Shape" fill="url(#linearGradient-2)"></path>
                </g>
                <path d="M0,123.160111 C0,47.8376944 57.1075093,0 127.055465,0 C176.304535,0 207.36,24.9861111 225.203866,53.1918611 L183.449219,76.0291667 C172.378885,59.2527778 152.044015,44.975 127.055465,44.975 C83.5164312,44.975 52.1112268,78.1708333 52.1112268,123.152972 C52.1112268,168.127972 83.5164312,201.323806 127.055465,201.323806 C148.111227,201.323806 167.73948,192.04325 177.382305,183.119639 L177.382305,154.571222 L114.564758,154.571222 L114.564758,110.310111 L228.058885,110.310111 L228.058885,201.687889 C203.791227,228.822806 169.887881,246.305944 127.055465,246.305944 C57.1075093,246.305944 0,198.118444 0,123.160111 L0,123.160111 Z" id="Shape" fill="#3B3B3B" sketch:type="MSShapeGroup"></path>
                <path d="M256.951673,123.160111 C256.951673,51.4071389 309.419777,0 381.508996,0 C453.241338,0 505.702305,51.4071389 505.702305,123.160111 C505.702305,194.905944 453.234201,246.305944 381.508996,246.305944 C309.419777,246.305944 256.951673,194.905944 256.951673,123.160111 L256.951673,123.160111 Z M453.605353,123.160111 C453.605353,78.5349167 425.404907,44.9821389 381.508996,44.9821389 C337.249071,44.9821389 309.0629,78.5349167 309.0629,123.160111 C309.0629,167.414083 337.249071,201.330944 381.508996,201.330944 C425.404907,201.330944 453.605353,167.414083 453.605353,123.160111 L453.605353,123.160111 Z" id="Shape" fill="#3B3B3B" sketch:type="MSShapeGroup"></path>
                <path d="M521.040892,208.10575 L548.877323,168.484917 C565.664833,185.968056 591.716877,200.966861 624.549591,200.966861 C652.735762,200.966861 665.947361,188.466667 665.947361,174.552972 C665.947361,133.140278 528.906468,162.059917 528.906468,72.4597222 C528.906468,32.83175 563.159554,0 619.196431,0 C657.025428,0 688.430632,11.4222222 711.984535,33.1958333 L683.791227,71.0319444 C664.519851,53.1847222 638.824684,44.975 614.557026,44.975 C593.144387,44.975 581.00342,54.2555556 581.00342,68.5333333 C581.00342,106.019639 717.694572,80.6765833 717.694572,169.55575 C717.694572,213.110111 686.296506,245.941861 622.40119,245.941861 C576.371152,245.941861 543.524164,230.59325 521.040892,208.10575 L521.040892,208.10575 Z" id="Shape" fill="#3B3B3B" sketch:type="MSShapeGroup"></path>
                <path d="M756.579926,238.096222 L756.579926,0 L867.947063,0 C919.694275,0 947.887584,34.9805556 947.887584,76.7430556 C947.887584,118.15575 919.33026,153.136306 867.947063,153.136306 L807.263643,153.136306 L807.263643,238.089083 L756.579926,238.089083 L756.579926,238.096222 Z M896.133234,76.7430556 C896.133234,56.7541667 880.787509,44.6180556 860.809517,44.6180556 L807.263643,44.6180556 L807.263643,108.51825 L860.809517,108.51825 C880.780372,108.51825 896.133234,96.375 896.133234,76.7430556 L896.133234,76.7430556 Z" id="Shape" fill="#3B3B3B" sketch:type="MSShapeGroup"></path>
                <path d="M977.843866,238.096222 L977.843866,0 L1146.31138,0 L1146.31138,44.6180556 L1028.52758,44.6180556 L1028.52758,94.5902778 L1143.8061,94.5902778 L1143.8061,139.208333 L1028.52758,139.208333 L1028.52758,193.478167 L1146.31138,193.478167 L1146.31138,238.096222 L977.843866,238.096222 L977.843866,238.096222 Z" id="Shape" fill="#3B3B3B" sketch:type="MSShapeGroup"></path>
                <path d="M1184.83271,238.096222 L1184.83271,0 L1235.86617,0 L1235.86617,193.478167 L1336.52699,193.478167 L1336.52699,238.096222 L1184.83271,238.096222 L1184.83271,238.096222 Z" id="Shape" fill="#3B3B3B" sketch:type="MSShapeGroup"></path>
                <path d="M7.13754647,415.854556 C7.13754647,342.666667 61.0260223,292.694444 129.546468,292.694444 C171.657993,292.694444 200.921933,312.690472 219.836431,339.81825 L195.219033,353.739083 C181.657695,333.39325 156.676283,319.115472 129.546468,319.115472 C77.4423792,319.115472 37.8218587,358.736306 37.8218587,415.854556 C37.8218587,472.251778 77.4423792,512.593639 129.546468,512.593639 C156.676283,512.593639 181.657695,497.951778 195.219033,477.95575 L220.200446,491.519639 C200.208178,519.0115 171.657993,538.99325 129.546468,538.99325 C61.0260223,539.000389 7.13754647,489.028167 7.13754647,415.854556 L7.13754647,415.854556 Z" id="Shape" fill="#3B3B3B" sketch:type="MSShapeGroup"></path>
                <path d="M271.226766,530.790667 L271.226766,292.694444 L427.189294,292.694444 L427.189294,319.101194 L300.847584,319.101194 L300.847584,395.851389 L424.69829,395.851389 L424.69829,422.265278 L300.847584,422.265278 L300.847584,504.369639 L427.189294,504.369639 L427.189294,530.783528 L271.226766,530.783528 L271.226766,530.790667 Z" id="Shape" fill="#3B3B3B" sketch:type="MSShapeGroup"></path>
                <path d="M639.524164,530.790667 L500.691747,340.881944 L500.691747,530.790667 L471.078067,530.790667 L471.078067,292.694444 L501.412639,292.694444 L638.460669,478.669639 L638.460669,292.694444 L668.081487,292.694444 L668.081487,530.790667 L639.524164,530.790667 L639.524164,530.790667 Z" id="Shape" fill="#3B3B3B" sketch:type="MSShapeGroup"></path>
                <path d="M781.925353,530.790667 L781.925353,319.101194 L706.6171,319.101194 L706.6171,292.694444 L887.218439,292.694444 L887.218439,319.101194 L811.546171,319.101194 L811.546171,530.783528 L781.925353,530.783528 L781.925353,530.790667 Z" id="Shape" fill="#3B3B3B" sketch:type="MSShapeGroup"></path>
                <path d="M935.018587,530.790667 L935.018587,292.694444 L1090.98825,292.694444 L1090.98825,319.101194 L964.646543,319.101194 L964.646543,395.851389 L1088.49011,395.851389 L1088.49011,422.265278 L964.646543,422.265278 L964.646543,504.369639 L1090.98825,504.369639 L1090.98825,530.783528 L935.018587,530.783528 L935.018587,530.790667 Z" id="Shape" fill="#3B3B3B" sketch:type="MSShapeGroup"></path>
                <path d="M1301.17472,530.790667 L1240.86245,436.19325 L1193.04089,436.19325 L1193.04089,530.790667 L1163.42007,530.790667 L1163.42007,292.694444 L1259.0632,292.694444 C1302.60937,292.694444 1334.01457,320.536111 1334.01457,364.447417 C1334.01457,407.28075 1304.39375,430.839083 1271.91792,433.694639 L1336.15584,530.790667 L1301.17472,530.790667 L1301.17472,530.790667 Z M1303.32312,364.447417 C1303.32312,337.3125 1283.69487,319.101194 1255.49442,319.101194 L1193.04089,319.101194 L1193.04089,410.136306 L1255.49442,410.136306 C1283.69487,410.136306 1303.32312,391.21825 1303.32312,364.447417 L1303.32312,364.447417 Z" id="Shape" fill="#3B3B3B" sketch:type="MSShapeGroup"></path>
                <g id="Group" transform="translate(992.118959, 649.638889)" fill="#3B3B3B" sketch:type="MSShapeGroup">
                    <path d="M99.7900372,118.227139 L88.020223,88.9648333 L25.0456506,88.9648333 L13.2758364,118.227139 L1.5060223,118.227139 L50.2055019,-0.785277778 L62.8675093,-0.785277778 L111.566989,118.227139 L99.7900372,118.227139 L99.7900372,118.227139 Z M56.6221561,10.0943889 L28.4431227,79.6842778 L84.637026,79.6842778 L56.6221561,10.0943889 L56.6221561,10.0943889 Z" id="Shape"></path>
                    <path d="M258.778885,118.227139 L183.856059,15.9911111 L183.856059,118.227139 L173.685056,118.227139 L173.685056,-0.785277778 L184.034498,-0.785277778 L258.600446,100.022972 L258.600446,-0.785277778 L268.77145,-0.785277778 L268.77145,118.227139 L258.778885,118.227139 L258.778885,118.227139 Z" id="Shape"></path>
                    <path d="M428.110037,118.227139 L353.187212,15.9911111 L353.187212,118.227139 L343.016208,118.227139 L343.016208,-0.785277778 L353.365651,-0.785277778 L427.931599,100.022972 L427.931599,-0.785277778 L438.102602,-0.785277778 L438.102602,118.227139 L428.110037,118.227139 L428.110037,118.227139 Z" id="Shape"></path>
                    <path d="M512.354498,118.227139 L512.354498,-0.785277778 L587.812639,-0.785277778 L587.812639,8.49527778 L522.525502,8.49527778 L522.525502,52.5707778 L586.570706,52.5707778 L586.570706,61.8441944 L522.525502,61.8441944 L522.525502,108.953722 L587.812639,108.953722 L587.812639,118.234278 L512.354498,118.234278 L512.354498,118.227139 Z" id="Shape"></path>
                    <path d="M653.142602,58.8030278 C653.142602,22.2305 679.729963,-2.75561111 713.440595,-2.75561111 C732.347955,-2.75561111 746.801487,5.63258333 756.786914,18.3041111 L748.228996,23.8296111 C740.734572,13.4782222 727.715688,6.51780556 713.440595,6.51780556 C685.611301,6.51780556 663.848922,27.756 663.848922,58.7958889 C663.848922,89.4859722 685.611301,111.073972 713.440595,111.073972 C727.715688,111.073972 740.734572,104.113556 748.228996,93.7693056 L756.972491,99.1163333 C746.266171,112.144806 732.355093,120.354528 713.440595,120.354528 C679.722825,120.361667 653.142602,95.3826944 653.142602,58.8030278 L653.142602,58.8030278 Z" id="Shape"></path>
                    <path d="M854.771152,118.227139 L854.771152,67.3768333 L807.499182,-0.785277778 L819.81145,-0.785277778 L859.945874,57.7393333 L900.087435,-0.785277778 L912.399703,-0.785277778 L865.127732,67.3768333 L865.127732,118.227139 L854.771152,118.227139 L854.771152,118.227139 Z" id="Shape"></path>
                </g>
            </g>
        </g>
    </g>
</svg>