<?xml version="1.0" encoding="UTF-8" standalone="no"?>
<svg width="140px" height="52px" viewBox="0 0 140 52" version="1.1" xmlns="http://www.w3.org/2000/svg" xmlns:xlink="http://www.w3.org/1999/xlink" xmlns:sketch="http://www.bohemiancoding.com/sketch/ns">
    <!-- Generator: Sketch 3.2.2 (9983) - http://www.bohemiancoding.com/sketch -->
    <title>logoTV_mini</title>
    <desc>Created with Sketch.</desc>
    <defs>
        <linearGradient x1="49.9974635%" y1="-14.0727045%" x2="49.9974635%" y2="81.5878324%" id="linearGradient-1">
            <stop stop-color="#E42616" offset="0%"></stop>
            <stop stop-color="#D11015" offset="100%"></stop>
        </linearGradient>
        <linearGradient x1="49.9991094%" y1="-21.3519825%" x2="49.9991094%" y2="123.498929%" id="linearGradient-2">
            <stop stop-color="#E42616" offset="0%"></stop>
            <stop stop-color="#D11015" offset="100%"></stop>
        </linearGradient>
    </defs>
    <g id="Logo" stroke="none" stroke-width="1" fill="none" fill-rule="evenodd" sketch:type="MSPage">
        <g id="logoTV_mini" sketch:type="MSArtboardGroup">
            <g id="Group-+-GC-2-+-TV-3" sketch:type="MSLayerGroup" transform="translate(5.000000, 0.000000)">
                <g id="Group" transform="translate(19.000000, 0.622549)" sketch:type="MSShapeGroup">
                    <path d="M34.5811304,41.6869231 C32.025913,41.7930769 29.4722609,41.53 26.9616522,40.8946154 C23.7083478,40.0692308 20.7031304,38.6238462 18.0289565,36.5992308 C15.2757391,34.5123077 13.0546957,31.9838462 11.4307826,29.0838462 C9.81156522,26.1923077 8.77147826,23.1115385 8.334,19.9276923 C7.89730435,16.7423077 8.08826087,13.5030769 8.90295652,10.2992308 C9.72156522,7.08923077 11.2116522,4.09 13.3325217,1.38384615 C13.640087,0.992307692 13.9601739,0.615384615 14.2873043,0.246153846 C11.0253913,1.96153846 8.06869565,4.36 5.66452174,7.42692308 C-3.42469565,19.0192308 -1.2326087,35.66 10.5613043,44.5923077 C17.4427826,49.8053846 26.0710435,51.2369231 33.872087,49.2261538 L30.6070435,46.7538462 L34.5811304,41.6869231 L34.5811304,41.6869231 Z" id="Shape" fill="url(#linearGradient-1)"></path>
                    <path d="M43.8863478,3.35769231 C41.972087,2.09 40.0288696,1.28769231 37.8766957,0.771538462 C35.7182609,0.252307692 33.537913,0.128461538 31.3966957,0.399230769 C29.2609565,0.671538462 27.1831304,1.33846154 25.2250435,2.38076923 C23.2786957,3.41923077 21.5906087,4.83615385 20.2132174,6.59538462 C18.806087,8.39076923 17.8254783,10.3723077 17.3003478,12.4869231 C16.7744348,14.6146154 16.6453043,16.7584615 16.923913,18.8576923 C17.2009565,20.9576923 17.8857391,22.9884615 18.9602609,24.8907692 C20.0308696,26.7876923 21.5006087,28.4515385 23.3303478,29.8369231 C25.1561739,31.2207692 27.1463478,32.1784615 29.2476522,32.6846154 C31.3583478,33.1930769 33.5136522,33.3146154 35.6509565,33.04 C36.0195652,32.9930769 36.3881739,32.9284615 36.7575652,32.8553846 L28.7350435,26.7776923 L34.5701739,19.3361538 L52.3181739,32.7815385 C55.476,24.3792308 54.075913,14.8823077 48.5796522,7.69307692 C47.3313913,6.11153846 45.6307826,4.51384615 43.8863478,3.35769231 L43.8863478,3.35769231 Z" id="Shape" fill="url(#linearGradient-2)"></path>
                </g>
                <path d="M92.146,18.313 L79.336,18.313 L79.336,19.762 L84.943,19.762 L84.943,33.748 L86.539,33.748 L86.539,19.762 L92.146,19.762 L92.146,18.313 Z M110.99304,18.313 L109.27104,18.313 L103.76904,30.493 L98.2460405,18.313 L96.5240405,18.313 L103.72704,34 L103.81104,34 L110.99304,18.313 Z" id="TV-2" fill="#3B3B3B" sketch:type="MSShapeGroup"></path>
            </g>
        </g>
    </g>
</svg>