<?xml version="1.0" encoding="UTF-8" standalone="no"?>
<svg width="138px" height="45px" viewBox="0 0 138 45" version="1.1" xmlns="http://www.w3.org/2000/svg" xmlns:xlink="http://www.w3.org/1999/xlink" xmlns:sketch="http://www.bohemiancoding.com/sketch/ns">
    <!-- Generator: Sketch 3.2.2 (9983) - http://www.bohemiancoding.com/sketch -->
    <title>logoTV_mobile</title>
    <desc>Created with Sketch.</desc>
    <defs>
        <linearGradient x1="49.9974635%" y1="-14.0727045%" x2="49.9974635%" y2="81.5878324%" id="linearGradient-1">
            <stop stop-color="#E42616" offset="0%"></stop>
            <stop stop-color="#D11015" offset="100%"></stop>
        </linearGradient>
        <linearGradient x1="49.9991094%" y1="-21.3519825%" x2="49.9991094%" y2="123.498929%" id="linearGradient-2">
            <stop stop-color="#E42616" offset="0%"></stop>
            <stop stop-color="#D11015" offset="100%"></stop>
        </linearGradient>
    </defs>
    <g id="Logo" stroke="none" stroke-width="1" fill="none" fill-rule="evenodd" sketch:type="MSPage">
        <g id="logoTV_mobile" sketch:type="MSArtboardGroup">
            <g id="Logo-mobile-2" sketch:type="MSLayerGroup" transform="translate(5.000000, 4.000000)">
                <g id="Essai" transform="translate(11.000000, 0.000000)" sketch:type="MSShapeGroup">
                    <g id="Group" transform="translate(12.024345, 0.559641)">
                        <path d="M24.7502585,29.1808462 C22.9214493,29.2551538 21.0937603,29.071 19.2968782,28.6262308 C16.9684371,28.0484615 14.8175558,27.0366923 12.9036075,25.6194615 C10.9330866,24.1586154 9.34345084,22.3886923 8.18119076,20.3586923 C7.02229142,18.3346154 6.27788484,16.1780769 5.96477477,13.9493846 C5.65222483,11.7196154 5.78889542,9.45215385 6.3719859,7.20946154 C6.95787701,4.96246154 8.02435566,2.863 9.54229534,0.968692308 C9.7624246,0.694615385 9.99151586,0.430769231 10.2256483,0.172307692 C7.89104583,1.37307692 5.77489228,3.052 4.05418723,5.19884615 C-2.4511085,13.3134615 -0.882197415,24.962 7.5588915,31.2146154 C12.4840736,34.8637692 18.6594555,35.8658462 24.242785,34.4583077 L21.905942,32.7276923 L24.7502585,29.1808462 L24.7502585,29.1808462 Z" id="Shape" fill="url(#linearGradient-1)"></path>
                        <path d="M27.1089463,0.540076923 C25.5641206,0.176615385 24.0036114,0.0899230769 22.4711085,0.279461538 C20.9425264,0.470076923 19.4553937,0.936923077 18.05396,1.66653846 C16.6609283,2.39346154 15.452738,3.38530769 14.4669174,4.61676923 C13.459812,5.87353846 12.7579749,7.26061538 12.3821308,8.74084615 C12.0057266,10.2302308 11.9133059,11.7309231 12.1127105,13.2003846 C12.3109949,14.6703846 12.8011046,16.0919231 13.5701567,17.4235385 C14.3364081,18.7513846 15.3883235,19.9160769 16.6978966,20.8858462 C18.004669,21.8545385 19.4290678,22.5249231 20.9330043,22.8792308 C22.4436624,23.2351538 23.9862476,23.3202308 25.5159499,23.128 C25.7797689,23.0951538 26.0435879,23.0499231 26.3079671,22.9987692 L20.5661222,18.7443846 L24.7424168,13.5353077 L37.4449393,22.9470769 C39.705045,17.0654615 38.7029808,10.4176154 34.7692205,5.38515385 C33.8758206,4.27807692 32.6586682,3.15969231 31.4101488,2.35038462 C30.0400823,1.463 28.649291,0.901384615 27.1089463,0.540076923 Z" id="Shape" fill="url(#linearGradient-2)"></path>
                    </g>
                    <path d="M72.7501795,10.6985 L57.6329523,10.6985 L57.6329523,12.389 L64.249837,12.389 L64.249837,28.706 L66.1332948,28.706 L66.1332948,12.389 L72.7501795,12.389 L72.7501795,10.6985 Z M94.991787,10.6985 L92.9596352,10.6985 L86.4666622,24.9085 L79.9489069,10.6985 L77.916755,10.6985 L86.4170975,29 L86.5162269,29 L94.991787,10.6985 Z" id="TV-3" fill="#3B3B3B"></path>
                </g>
            </g>
        </g>
    </g>
</svg>