<?xml version="1.0" encoding="UTF-8" standalone="no"?>
<svg width="385px" height="160px" viewBox="0 0 385 160" version="1.1" xmlns="http://www.w3.org/2000/svg" xmlns:xlink="http://www.w3.org/1999/xlink" xmlns:sketch="http://www.bohemiancoding.com/sketch/ns">
    <!-- Generator: Sketch 3.1 (8751) - http://www.bohemiancoding.com/sketch -->
    <title>logoTV</title>
    <desc>Created with Sketch.</desc>
    <defs></defs>
    <g id="Logo" stroke="none" stroke-width="1" fill="none" fill-rule="evenodd" sketch:type="MSPage">
        <g id="logoTV" sketch:type="MSArtboardGroup" fill="#FDFDFC">
            <g id="Logo-2" sketch:type="MSLayerGroup" transform="translate(5.000000, 5.000000)">
                <g id="Group" transform="translate(278.123582, 2.776427)" sketch:type="MSShapeGroup">
                    <path d="M61.4472336,75.2314644 C56.9068662,75.4230379 52.3692799,74.9482688 47.9081777,73.8016043 C42.127379,72.312051 36.7874062,69.7035975 32.0356648,66.049819 C27.143471,62.2835953 23.1968974,57.7205369 20.3113652,52.4869713 C17.4341768,47.2686761 15.5860455,41.7088802 14.8086901,35.9630638 C14.0327253,30.2144709 14.3720361,24.3687031 15.8196694,18.5867931 C17.2742557,12.7937773 19.9219922,7.38113218 23.6905667,2.49739642 C24.2370796,1.79079566 24.8058423,1.11057095 25.3871206,0.44422838 C19.5910251,3.5399449 14.3372707,7.86839518 10.0652924,13.4032032 C-6.08534398,34.3235834 -2.19022321,64.3548101 18.7663887,80.4747475 C30.994092,89.8826716 46.3256545,92.4661373 60.1873338,88.8373467 L54.3856759,84.3756279 L61.4472336,75.2314644 L61.4472336,75.2314644 Z" id="Shape"></path>
                    <path d="M77.9816806,6.05955275 C74.5802292,3.77177659 71.1273249,2.32386971 67.3031257,1.39237833 C63.4678015,0.45533409 59.59354,0.231831686 55.7888094,0.720482904 C51.9938131,1.21191055 48.3017225,2.41549182 44.8223965,4.29652136 C41.3639298,6.17060984 38.3643669,8.72769945 35.9168794,11.9025442 C33.4165484,15.1426349 31.6741042,18.7186734 30.7409995,22.5348728 C29.8065043,26.3746719 29.5770524,30.2436234 30.0721123,34.0320586 C30.5643911,37.8218819 31.7811817,41.4867661 33.6905001,44.9198185 C35.5928654,48.3431535 38.2044459,51.3458597 41.4557106,53.8460325 C44.7000221,56.3434289 48.2363635,58.071755 51.9701726,58.9851996 C55.7206691,59.9028088 59.5504308,60.1221466 63.3482083,59.6265543 C64.0031894,59.5418733 64.6581704,59.4252633 65.3145421,59.293383 L51.0593178,48.3251067 L61.427765,34.8955275 L92.964198,59.1601145 C98.5753413,43.9966564 96.0875258,26.8577702 86.3212162,13.8835251 C84.1031807,11.0293577 81.0813679,8.14603792 77.9816806,6.05955275 L77.9816806,6.05955275 Z" id="Shape"></path>
                </g>
                <path d="M3.55271368e-15,23.9494625 C3.55271368e-15,9.30241992 11.1263339,0 24.7543894,0 C34.349653,0 40.4002316,4.85874791 43.8767763,10.3435802 L35.7416616,14.7844758 C33.5848132,11.5221736 29.6229427,8.74574623 24.7543894,8.74574623 C16.2702296,8.74574623 10.1515108,15.2009399 10.1515108,23.9480743 C10.1515108,32.6938206 16.2702296,39.1490142 24.7543894,39.1490142 C28.8567123,39.1490142 32.6809115,37.3443364 34.5596363,35.6090693 L34.5596363,30.0548263 L22.3208081,30.0548263 L22.3208081,21.4479015 L44.4330235,21.4479015 L44.4330235,39.2184249 C39.7049226,44.4950251 33.0994875,47.8947604 24.7543894,47.8947604 C11.1263339,47.8961487 3.55271368e-15,38.5257063 3.55271368e-15,23.9494625 L3.55271368e-15,23.9494625 Z" id="Shape" sketch:type="MSShapeGroup"></path>
                <path d="M50.0622448,23.9494625 C50.0622448,9.99652676 60.2860677,0 74.329918,0 C88.3070186,0 98.5280602,9.99652676 98.5280602,23.9494625 C98.5280602,37.9010101 88.305628,47.8961487 74.329918,47.8961487 C60.2846771,47.8961487 50.0622448,37.8996219 50.0622448,23.9494625 L50.0622448,23.9494625 Z M88.3779401,23.9494625 C88.3779401,15.2717388 82.8836087,8.74713445 74.329918,8.74713445 C65.7080869,8.74713445 60.2151462,15.2717388 60.2151462,23.9494625 C60.2151462,32.5549992 65.7080869,39.1504024 74.329918,39.1504024 C82.8822181,39.1504024 88.3779401,32.5549992 88.3779401,23.9494625 L88.3779401,23.9494625 Z" id="Shape" sketch:type="MSShapeGroup"></path>
                <path d="M102.905725,40.4678172 L108.329135,32.7632312 C111.598478,36.1629666 116.674233,39.0796035 123.071076,39.0796035 C128.564017,39.0796035 131.13805,36.6488414 131.13805,33.9432129 C131.13805,25.8901853 104.436796,31.5138389 104.436796,14.0903689 C104.436796,6.38439475 111.111762,0 122.028112,0 C129.399778,0 135.518497,2.2211419 140.106145,6.45519365 L134.614595,13.8127262 C130.858536,10.342192 125.852312,8.74574623 121.124211,8.74574623 C116.952357,8.74574623 114.588307,10.550424 114.588307,13.3268514 C114.588307,20.6163615 141.22003,15.6882029 141.22003,32.9714633 C141.22003,41.440955 135.101311,47.8253498 122.65389,47.8253498 C113.684405,47.8253498 107.286172,44.8393021 102.905725,40.4678172 L102.905725,40.4678172 Z" id="Shape" sketch:type="MSShapeGroup"></path>
                <path d="M147.405499,47.6879166 L147.405499,1.38821369 L169.101919,1.38821369 C179.183899,1.38821369 184.67823,8.19046076 184.67823,16.3115108 C184.67823,24.3645384 179.114368,31.1667855 169.101919,31.1667855 L157.280276,31.1667855 L157.280276,47.6865284 L147.405499,47.6865284 L147.405499,47.6879166 Z M174.593469,16.3115108 C174.593469,12.4245125 171.603641,10.0645492 167.709911,10.0645492 L157.278886,10.0645492 L157.278886,22.49045 L167.709911,22.49045 C171.603641,22.4918382 174.593469,20.1290985 174.593469,16.3115108 L174.593469,16.3115108 Z" id="Shape" sketch:type="MSShapeGroup"></path>
                <path d="M190.514654,47.6879166 L190.514654,1.38821369 L223.336018,1.38821369 L223.336018,10.0645492 L200.389432,10.0645492 L200.389432,19.782045 L222.849302,19.782045 L222.849302,28.4583806 L200.389432,28.4583806 L200.389432,39.0115811 L223.336018,39.0115811 L223.336018,47.6879166 L190.514654,47.6879166 L190.514654,47.6879166 Z" id="Shape" sketch:type="MSShapeGroup"></path>
                <path d="M230.842573,47.6879166 L230.842573,1.38821369 L240.785491,1.38821369 L240.785491,39.0115811 L260.395985,39.0115811 L260.395985,47.6879166 L230.842573,47.6879166 L230.842573,47.6879166 Z" id="Shape" sketch:type="MSShapeGroup"></path>
                <path d="M1.39061791,80.8662237 C1.39061791,66.634257 11.8897831,56.9167612 25.2397151,56.9167612 C33.4443608,56.9167612 39.1458942,60.8051477 42.8310317,66.0803597 L38.0347905,68.7873764 C35.3926165,64.8309674 30.5254538,62.0545401 25.2397151,62.0545401 C15.0868137,62.0545401 7.36888431,69.759126 7.36888431,80.8662237 C7.36888431,91.8331119 15.0868137,99.6779074 25.2397151,99.6779074 C30.5254538,99.6779074 35.3926165,96.8306811 38.0347905,92.9422946 L42.9019532,95.5799006 C39.0068324,100.925912 33.4443608,104.811522 25.2397151,104.811522 C11.8897831,104.81291 1.39061791,95.095414 1.39061791,80.8662237 L1.39061791,80.8662237 Z" id="Shape" sketch:type="MSShapeGroup"></path>
                <path d="M52.8434806,104.604678 L52.8434806,58.3049749 L83.2298726,58.3049749 L83.2298726,63.4399773 L58.6131543,63.4399773 L58.6131543,78.3646627 L82.7431563,78.3646627 L82.7431563,83.5010533 L58.6131543,83.5010533 L58.6131543,99.4668989 L83.228482,99.4668989 L83.228482,104.60329 L52.8434806,104.60329 L52.8434806,104.604678 Z" id="Shape" sketch:type="MSShapeGroup"></path>
                <path d="M125.989983,104.604678 L98.9410738,67.6754173 L98.9410738,104.604678 L93.1714001,104.604678 L93.1714001,58.3049749 L99.0815262,58.3049749 L125.782781,94.4693297 L125.782781,58.3049749 L131.553845,58.3049749 L131.553845,104.604678 L125.989983,104.604678 L125.989983,104.604678 Z" id="Shape" sketch:type="MSShapeGroup"></path>
                <path d="M153.734201,104.60329 L153.734201,63.4399773 L139.061791,63.4399773 L139.061791,58.3049749 L174.248596,58.3049749 L174.248596,63.4399773 L159.505265,63.4399773 L159.505265,104.60329 L153.734201,104.60329 L153.734201,104.60329 Z" id="Shape" sketch:type="MSShapeGroup"></path>
                <path d="M183.561564,104.604678 L183.561564,58.3049749 L213.949347,58.3049749 L213.949347,63.4399773 L189.334019,63.4399773 L189.334019,78.3646627 L213.462631,78.3646627 L213.462631,83.5010533 L189.334019,83.5010533 L189.334019,99.4668989 L213.949347,99.4668989 L213.949347,104.60329 L183.561564,104.60329 L183.561564,104.604678 Z" id="Shape" sketch:type="MSShapeGroup"></path>
                <path d="M253.509645,104.604678 L241.758924,86.2094582 L232.441784,86.2094582 L232.441784,104.604678 L226.67072,104.604678 L226.67072,58.3049749 L245.305,58.3049749 C253.789159,58.3049749 259.907878,63.7190083 259.907878,72.2579107 C259.907878,80.5871928 254.136814,85.168298 247.809502,85.7235834 L260.325064,104.604678 L253.509645,104.604678 L253.509645,104.604678 Z M253.926831,72.2579107 C253.926831,66.9813104 250.102631,63.4399773 244.6083,63.4399773 L232.440393,63.4399773 L232.440393,81.1424783 L244.6083,81.1424783 C250.102631,81.1438665 253.926831,77.463712 253.926831,72.2579107 L253.926831,72.2579107 Z" id="Shape" sketch:type="MSShapeGroup"></path>
                <path d="M122.593547,126.721439 L103.459159,126.721439 L103.459159,128.881672 L111.834375,128.881672 L111.834375,149.73262 L114.218331,149.73262 L114.218331,128.881672 L122.593547,128.881672 L122.593547,126.721439 Z M149.902475,126.721439 L135.975149,126.721439 L135.975149,149.73262 L150.153417,149.73262 L150.153417,147.509772 L138.327738,147.509772 L138.327738,139.150608 L148.553657,139.150608 L148.553657,136.990374 L138.327738,136.990374 L138.327738,128.944288 L149.902475,128.944288 L149.902475,126.721439 Z M166.326758,126.721439 L163.974169,126.721439 L163.974169,149.73262 L177.901495,149.73262 L177.901495,147.572387 L166.326758,147.572387 L166.326758,126.721439 Z M205.084951,126.721439 L191.157625,126.721439 L191.157625,149.73262 L205.335893,149.73262 L205.335893,147.509772 L193.510214,147.509772 L193.510214,139.150608 L203.736133,139.150608 L203.736133,136.990374 L193.510214,136.990374 L193.510214,128.944288 L205.084951,128.944288 L205.084951,126.721439 Z M238.416505,126.721439 L235.844342,126.721439 L227.625965,144.879922 L219.376221,126.721439 L216.804057,126.721439 L227.563229,150.108313 L227.688701,150.108313 L238.416505,126.721439 Z M254.025225,126.721439 L251.672636,126.721439 L251.672636,149.73262 L254.025225,149.73262 L254.025225,126.721439 Z M275.656571,126.314439 C271.29644,126.314439 268.37923,128.756441 268.37923,132.763831 C268.37923,136.238989 270.324037,137.960914 275.750675,139.150608 C279.859863,140.027224 281.647831,141.18561 281.647831,143.53369 C281.647831,146.414001 279.263874,147.916772 276.127089,147.916772 C273.554926,147.916772 270.920026,146.914925 269.25753,145.286923 L267.877345,147.25931 C269.978991,149.075158 272.676626,150.139621 276.064354,150.139621 C280.92637,150.139621 284.000419,147.384541 284.000419,143.377151 C284.000419,139.839378 281.836038,138.054837 276.4094,136.865143 C272.300212,135.957219 270.763187,135.111911 270.763187,132.701215 C270.763187,129.820904 272.864833,128.537287 275.625204,128.537287 C278.00916,128.537287 280.04807,129.445211 281.585095,130.697521 L282.839809,128.756441 C281.083209,127.347594 278.667885,126.314439 275.656571,126.314439 Z M300.205128,126.721439 L297.852539,126.721439 L297.852539,149.73262 L300.205128,149.73262 L300.205128,126.721439 Z M325.663352,126.314439 C318.982001,126.314439 314.18272,131.386291 314.18272,138.242684 C314.18272,145.130384 318.982001,150.139621 325.663352,150.139621 C332.281969,150.139621 337.175353,145.130384 337.175353,138.242684 C337.175353,131.386291 332.281969,126.314439 325.663352,126.314439 Z M325.663352,128.537287 C330.964519,128.537287 334.760029,132.6386 334.760029,138.242684 C334.760029,143.846767 330.964519,147.916772 325.663352,147.916772 C320.362186,147.916772 316.566676,143.846767 316.566676,138.242684 C316.566676,132.6386 320.362186,128.537287 325.663352,128.537287 Z M368.43663,126.721439 L366.052673,126.721439 L366.052673,144.097229 L351.247048,126.314439 L351.121577,126.314439 L351.121577,149.73262 L353.474166,149.73262 L353.474166,132.325523 L368.311158,150.139621 L368.43663,150.139621 L368.43663,126.721439 Z" id="TELEVISION-2" sketch:type="MSShapeGroup"></path>
            </g>
        </g>
    </g>
</svg>