<?xml version="1.0" encoding="UTF-8" standalone="no"?>
<svg width="1940px" height="791px" viewBox="0 0 1940 791" version="1.1" xmlns="http://www.w3.org/2000/svg" xmlns:xlink="http://www.w3.org/1999/xlink" xmlns:sketch="http://www.bohemiancoding.com/sketch/ns">
    <!-- Generator: Sketch 3.0.4 (8054) - http://www.bohemiancoding.com/sketch -->
    <title>LogoGCJura</title>
    <desc>Created with Sketch.</desc>
    <defs>
        <linearGradient x1="49.9996203%" y1="-14.0711459%" x2="49.9996203%" y2="81.589717%" id="linearGradient-1">
            <stop stop-color="#E42616" offset="0%"></stop>
            <stop stop-color="#D11015" offset="100%"></stop>
        </linearGradient>
        <linearGradient x1="49.9975529%" y1="-21.350347%" x2="49.9975529%" y2="123.500565%" id="linearGradient-2">
            <stop stop-color="#E42616" offset="0%"></stop>
            <stop stop-color="#D11015" offset="100%"></stop>
        </linearGradient>
    </defs>
    <g id="Icon" stroke="none" stroke-width="1" fill="none" fill-rule="evenodd" sketch:type="MSPage">
        <g id="LogoGCJura" sketch:type="MSArtboardGroup">
            <g id="GCJura" sketch:type="MSLayerGroup" transform="translate(10.000000, 10.000000)">
                <path d="M0,123.160111 C0,47.8376944 57.1075093,0 127.055465,0 C176.304535,0 207.36,24.9861111 225.203866,53.1918611 L183.449219,76.0291667 C172.378885,59.2527778 152.044015,44.975 127.055465,44.975 C83.5092937,44.975 52.1040892,78.1708333 52.1040892,123.152972 C52.1040892,168.127972 83.5092937,201.323806 127.055465,201.323806 C148.111227,201.323806 167.73948,192.04325 177.382305,183.119639 L177.382305,154.571222 L114.564758,154.571222 L114.564758,110.310111 L228.058885,110.310111 L228.058885,201.687889 C203.791227,228.822806 169.887881,246.305944 127.055465,246.305944 C57.1075093,246.305944 0,198.118444 0,123.160111 L0,123.160111 Z" id="Shape" fill="#3B3B3B" sketch:type="MSShapeGroup"></path>
                <path d="M256.951673,123.160111 C256.951673,51.4071389 309.426914,0 381.508996,0 C453.248476,0 505.709442,51.4071389 505.709442,123.160111 C505.709442,194.905944 453.241338,246.305944 381.508996,246.305944 C309.426914,246.305944 256.951673,194.905944 256.951673,123.160111 L256.951673,123.160111 Z M453.612491,123.160111 C453.612491,78.5349167 425.412045,44.9821389 381.508996,44.9821389 C337.256208,44.9821389 309.0629,78.5349167 309.0629,123.160111 C309.0629,167.414083 337.256208,201.330944 381.508996,201.330944 C425.412045,201.330944 453.612491,167.414083 453.612491,123.160111 L453.612491,123.160111 Z" id="Shape" fill="#3B3B3B" sketch:type="MSShapeGroup"></path>
                <path d="M528.178439,208.10575 L556.01487,168.484917 C572.795242,185.968056 598.847286,200.966861 631.68,200.966861 C659.873309,200.966861 673.084907,188.466667 673.084907,174.552972 C673.084907,133.140278 536.036877,162.059917 536.036877,72.4597222 C536.036877,32.83175 570.2971,0 626.32684,0 C664.162974,0 695.568178,11.4222222 719.114944,33.1958333 L690.928773,71.0319444 C671.65026,53.1847222 645.955093,44.975 621.687435,44.975 C600.274796,44.975 588.140967,54.2555556 588.140967,68.5333333 C588.140967,106.019639 724.832119,80.6765833 724.832119,169.55575 C724.832119,213.110111 693.426914,245.941861 629.538736,245.941861 C583.501561,245.941861 550.66171,230.59325 528.178439,208.10575 L528.178439,208.10575 Z" id="Shape" fill="#3B3B3B" sketch:type="MSShapeGroup"></path>
                <path d="M756.579926,238.096222 L756.579926,0 L867.939926,0 C919.687138,0 947.887584,34.9805556 947.887584,76.7430556 C947.887584,118.15575 919.33026,153.136306 867.939926,153.136306 L807.263643,153.136306 L807.263643,238.089083 L756.579926,238.089083 L756.579926,238.096222 Z M896.126097,76.7430556 C896.126097,56.7541667 880.780372,44.6180556 860.795242,44.6180556 L807.256506,44.6180556 L807.256506,108.51825 L860.795242,108.51825 C880.780372,108.51825 896.126097,96.375 896.126097,76.7430556 L896.126097,76.7430556 Z" id="Shape" fill="#3B3B3B" sketch:type="MSShapeGroup"></path>
                <path d="M977.843866,238.096222 L977.843866,0 L1146.30424,0 L1146.30424,44.6180556 L1028.52758,44.6180556 L1028.52758,94.5902778 L1143.8061,94.5902778 L1143.8061,139.208333 L1028.52758,139.208333 L1028.52758,193.478167 L1146.30424,193.478167 L1146.30424,238.096222 L977.843866,238.096222 L977.843866,238.096222 Z" id="Shape" fill="#3B3B3B" sketch:type="MSShapeGroup"></path>
                <path d="M1184.83271,238.096222 L1184.83271,0 L1235.86617,0 L1235.86617,193.478167 L1336.51985,193.478167 L1336.51985,238.096222 L1184.83271,238.096222 L1184.83271,238.096222 Z" id="Shape" fill="#3B3B3B" sketch:type="MSShapeGroup"></path>
                <path d="M7.13754647,415.854556 C7.13754647,342.666667 61.0260223,292.694444 129.546468,292.694444 C171.657993,292.694444 200.921933,312.690472 219.836431,339.81825 L195.219033,353.739083 C181.657695,333.39325 156.676283,319.115472 129.546468,319.115472 C77.4352416,319.115472 37.8218587,358.736306 37.8218587,415.854556 C37.8218587,472.251778 77.4352416,512.593639 129.546468,512.593639 C156.676283,512.593639 181.657695,497.951778 195.219033,477.95575 L220.200446,491.519639 C200.208178,519.0115 171.657993,538.99325 129.546468,538.99325 C61.0188848,539.000389 7.13754647,489.028167 7.13754647,415.854556 L7.13754647,415.854556 Z" id="Shape" fill="#3B3B3B" sketch:type="MSShapeGroup"></path>
                <path d="M271.226766,530.790667 L271.226766,292.694444 L427.189294,292.694444 L427.189294,319.101194 L300.847584,319.101194 L300.847584,395.851389 L424.69829,395.851389 L424.69829,422.265278 L300.847584,422.265278 L300.847584,504.369639 L427.189294,504.369639 L427.189294,530.783528 L271.226766,530.783528 L271.226766,530.790667 Z" id="Shape" fill="#3B3B3B" sketch:type="MSShapeGroup"></path>
                <path d="M646.66171,530.790667 L507.829294,340.881944 L507.829294,530.790667 L478.215613,530.790667 L478.215613,292.694444 L508.550186,292.694444 L645.591078,478.669639 L645.591078,292.694444 L675.211896,292.694444 L675.211896,530.790667 L646.66171,530.790667 L646.66171,530.790667 Z" id="Shape" fill="#3B3B3B" sketch:type="MSShapeGroup"></path>
                <path d="M789.0629,530.790667 L789.0629,319.101194 L713.754647,319.101194 L713.754647,292.694444 L894.355985,292.694444 L894.355985,319.101194 L818.683717,319.101194 L818.683717,530.783528 L789.0629,530.783528 L789.0629,530.790667 Z" id="Shape" fill="#3B3B3B" sketch:type="MSShapeGroup"></path>
                <path d="M942.156134,530.790667 L942.156134,292.694444 L1098.1258,292.694444 L1098.1258,319.101194 L971.784089,319.101194 L971.784089,395.851389 L1095.62766,395.851389 L1095.62766,422.265278 L971.784089,422.265278 L971.784089,504.369639 L1098.1258,504.369639 L1098.1258,530.783528 L942.156134,530.783528 L942.156134,530.790667 Z" id="Shape" fill="#3B3B3B" sketch:type="MSShapeGroup"></path>
                <path d="M1301.17472,530.790667 L1240.86245,436.19325 L1193.04089,436.19325 L1193.04089,530.790667 L1163.42007,530.790667 L1163.42007,292.694444 L1259.0632,292.694444 C1302.60937,292.694444 1334.01457,320.536111 1334.01457,364.447417 C1334.01457,407.28075 1304.39375,430.839083 1271.91792,433.694639 L1336.15584,530.790667 L1301.17472,530.790667 L1301.17472,530.790667 Z M1303.32312,364.447417 C1303.32312,337.3125 1283.69487,319.101194 1255.49442,319.101194 L1193.04089,319.101194 L1193.04089,410.136306 L1255.49442,410.136306 C1283.69487,410.136306 1303.32312,391.21825 1303.32312,364.447417 L1303.32312,364.447417 Z" id="Shape" fill="#3B3B3B" sketch:type="MSShapeGroup"></path>
                <g id="Group" transform="translate(1348.996283, 649.638889)" fill="#474341" sketch:type="MSShapeGroup">
                    <path d="M0.984981413,105.734083 L7.23033457,97.8813056 C12.5834944,105.020194 19.892342,111.08825 30.955539,111.08825 C47.1863197,111.08825 57.3573234,99.8516389 57.3573234,83.7891389 L57.3573234,-0.785277778 L67.5283271,-0.785277778 L67.5283271,83.7891389 C67.5283271,108.596778 51.2975465,120.368806 31.490855,120.368806 C18.6432714,120.361667 8.82914498,115.899861 0.984981413,105.734083 L0.984981413,105.734083 Z" id="Shape"></path>
                    <path d="M141.765948,72.5453889 L141.765948,-0.785277778 L152.11539,-0.785277778 L152.11539,72.3669167 C152.11539,96.4606667 164.777398,111.08825 188.152862,111.08825 C211.514052,111.08825 224.190335,96.4606667 224.190335,72.3669167 L224.190335,-0.785277778 L234.532639,-0.785277778 L234.532639,72.5453889 C234.532639,101.986167 218.837175,120.361667 188.152862,120.361667 C157.646989,120.361667 141.765948,101.807694 141.765948,72.5453889 L141.765948,72.5453889 Z" id="Shape"></path>
                    <path d="M378.532639,118.227139 L345.171747,68.9830833 L318.948401,68.9830833 L318.948401,118.227139 L308.777398,118.227139 L308.777398,-0.785277778 L353.201487,-0.785277778 C373.714796,-0.785277778 389.417398,12.2360556 389.417398,34.0096667 C389.417398,55.5976667 374.250112,67.5481667 356.413383,68.2691944 L390.83777,118.227139 L378.532639,118.227139 L378.532639,118.227139 Z M378.718216,34.0096667 C378.718216,19.018 368.190335,8.49527778 352.316431,8.49527778 L318.955539,8.49527778 L318.955539,59.7025278 L352.316431,59.7025278 C368.190335,59.6953889 378.718216,48.9941944 378.718216,34.0096667 L378.718216,34.0096667 Z" id="Shape"></path>
                    <path d="M545.551227,118.227139 L533.781413,88.9648333 L470.80684,88.9648333 L459.037026,118.227139 L447.267212,118.227139 L495.966691,-0.785277778 L508.628699,-0.785277778 L557.328178,118.227139 L545.551227,118.227139 L545.551227,118.227139 Z M502.376208,10.0943889 L474.197175,79.6842778 L530.391078,79.6842778 L502.376208,10.0943889 L502.376208,10.0943889 Z" id="Shape"></path>
                </g>
                <g id="Group" transform="translate(1427.509294, 14.277778)" sketch:type="MSShapeGroup">
                    <path d="M315.736506,384.607639 C292.432416,385.592806 269.142602,383.151306 246.245353,377.254583 C216.574572,369.601694 189.166394,356.187722 164.777398,337.391028 C139.660372,318.023222 119.411152,294.557694 104.593606,267.644083 C89.8331599,240.801861 80.3473606,212.210611 76.3574721,182.669889 C72.3747212,153.100611 74.1162825,123.03875 81.5464684,93.3052778 C89.012342,63.5218333 102.60223,35.6801667 121.944981,10.5655556 C124.7429,6.92472222 127.669294,3.43380556 130.652788,0.00713888889 C100.903494,15.9197222 73.9378439,38.1859167 52.0113011,66.6486667 C-30.8841636,174.224583 -10.8990335,328.667306 96.6709294,411.556944 C159.424238,459.937194 238.122825,473.222667 309.269888,454.56875 L279.492045,431.624361 L315.736506,384.607639 L315.736506,384.607639 Z" id="Shape" fill="url(#linearGradient-1)"></path>
                    <path d="M400.609071,28.8839444 C383.143494,17.1261944 365.428104,9.68033333 345.792714,4.883 C326.107361,0.06425 306.229294,-1.08511111 286.700967,1.42777778 C267.222602,3.95494444 248.272416,10.1515 230.414275,19.8175556 C212.656059,29.4550556 197.267509,42.6048889 184.705428,58.9315278 C171.872119,75.6008333 162.928773,93.9834722 158.13948,113.608278 C153.335911,133.361583 152.158216,153.257667 154.70632,172.732556 C157.233011,192.221722 163.471227,211.06125 173.278216,228.722861 C183.042379,246.327361 196.439554,261.768778 213.134275,274.625917 C229.786171,287.468778 247.936952,296.363833 267.101264,301.054083 C286.344089,305.772889 306.00803,306.900833 325.500669,304.35225 C328.855316,303.916778 332.2171,303.317111 335.59316,302.638917 L262.426171,246.241694 L315.63658,177.180083 L477.508996,301.960722 C506.308996,223.982639 493.539926,135.838778 443.405799,69.1258611 C432.014275,54.4483056 416.511524,39.6136944 400.609071,28.8839444 L400.609071,28.8839444 Z" id="Shape" fill="url(#linearGradient-2)"></path>
                </g>
            </g>
        </g>
    </g>
</svg>