<?xml version="1.0" encoding="UTF-8" standalone="no"?>
<svg width="610px" height="238px" viewBox="0 0 610 238" version="1.1" xmlns="http://www.w3.org/2000/svg" xmlns:xlink="http://www.w3.org/1999/xlink" xmlns:sketch="http://www.bohemiancoding.com/sketch/ns">
    <!-- Generator: Sketch 3.1.1 (8761) - http://www.bohemiancoding.com/sketch -->
    <title>logo_home</title>
    <desc>Created with Sketch.</desc>
    <defs></defs>
    <g id="Icon" stroke="none" stroke-width="1" fill="none" fill-rule="evenodd" sketch:type="MSPage">
        <g id="logo_home" sketch:type="MSArtboardGroup" fill="#FDFDFC">
            <g id="Logo-2" sketch:type="MSLayerGroup" transform="translate(5.000000, 5.000000)">
                <g id="GCEurope-3" sketch:type="MSShapeGroup">
                    <g id="Arrow" transform="translate(445.351380, 5.322957)">
                        <path d="M98.7276834,121.24575 C91.4455909,121.5585 84.1657294,120.789 77.0108057,118.9305 C67.7341695,116.51625 59.1670018,112.2885 51.5413301,106.3665 C43.6925552,100.26225 37.3631138,92.86425 32.7337198,84.38175 C28.115481,75.924 25.1526689,66.91275 23.9055213,57.6 C22.6583737,48.28275 23.2049768,38.808 25.5274824,29.43675 C27.8633743,20.0475 32.1067995,11.27475 38.1551306,3.35925 C39.0319267,2.214 39.9466503,1.10925 40.8792222,0.0315 C31.5802757,5.049 23.149201,12.0645 16.2932358,21.03525 C-9.61575331,54.94275 -3.36662917,103.617 30.2550419,129.74175 C49.8725173,144.99 74.4696589,149.1795 96.7063673,143.298 L87.3984965,136.06875 L98.7276834,121.24575 L98.7276834,121.24575 Z" id="Shape"></path>
                        <path d="M125.261362,9.1305 C119.802023,5.4225 114.262368,3.07575 108.127026,1.566 C101.973837,0.04725 95.7604092,-0.315 89.6518401,0.477 C83.5633504,1.2735 77.6421881,3.22425 72.0601429,6.273 C66.5093322,9.30825 61.7014556,13.455 57.772606,18.60075 C53.7589772,23.85225 50.9657236,29.64825 49.4709313,35.8335 C47.9672149,42.057 47.6013254,48.32775 48.3955733,54.468 C49.185359,60.6105 51.1375131,66.5505 54.2007218,72.11475 C57.2550063,77.66325 61.4426557,82.53 66.6588114,86.58225 C71.861581,90.62775 77.5350985,93.43125 83.5276539,94.91175 C89.5447505,96.399 95.6890161,96.7545 101.781968,95.95125 C102.832785,95.814 103.88137,95.625 104.936649,95.41125 L82.064096,77.634 L98.700911,55.86975 L149.296283,95.1975 C158.298502,70.62075 154.307184,42.84225 138.638637,21.81375 C135.077908,17.18775 130.227642,12.51225 125.261362,9.1305 L125.261362,9.1305 Z" id="Shape"></path>
                    </g>
                    <path d="M0,38.817 C0,15.07725 17.850497,0 39.7146229,0 C55.1087523,0 64.815978,7.875 70.3935611,16.76475 L57.3420166,23.9625 C53.881684,18.675 47.5254703,14.175 39.7146229,14.175 C26.103089,14.175 16.2865427,24.6375 16.2865427,38.81475 C16.2865427,52.98975 26.103089,63.45225 39.7146229,63.45225 C46.296171,63.45225 52.4315124,60.52725 55.4456383,57.71475 L55.4456383,48.7125 L35.8103147,48.7125 L35.8103147,34.7625 L71.2859744,34.7625 L71.2859744,63.56475 C63.7004614,72.117 53.1030534,77.62725 39.7146229,77.62725 C17.850497,77.6295 0,62.442 0,38.817 L0,38.817 Z" id="Shape"></path>
                    <path d="M80.4931383,38.817 C80.4931383,16.20225 96.8956947,0 119.4269,0 C141.851015,0 158.249109,16.20225 158.249109,38.817 C158.249109,61.4295 141.848784,77.6295 119.4269,77.6295 C96.8934637,77.6295 80.4931383,61.4295 80.4931383,38.817 L80.4931383,38.817 Z M141.964797,38.817 C141.964797,24.75225 133.149985,14.17725 119.4269,14.17725 C105.594493,14.17725 96.781912,24.75225 96.781912,38.817 C96.781912,52.76475 105.594493,63.4545 119.4269,63.4545 C133.147754,63.4545 141.964797,52.76475 141.964797,38.817 L141.964797,38.817 Z" id="Shape"></path>
                    <path d="M164.285176,65.58975 L172.986205,53.10225 C178.231365,58.6125 186.374636,63.33975 196.637389,63.33975 C205.44997,63.33975 209.579613,59.4 209.579613,55.01475 C209.579613,41.9625 166.741543,51.07725 166.741543,22.8375 C166.741543,10.34775 177.450503,0 194.964114,0 C206.790821,0 216.607367,3.6 223.967546,10.4625 L215.157196,22.3875 C209.131175,16.7625 201.099455,14.175 193.513942,14.175 C186.820843,14.175 183.028086,17.1 183.028086,21.6 C183.028086,33.41475 225.754604,25.42725 225.754604,53.43975 C225.754604,67.167 215.938057,77.51475 195.968079,77.51475 C181.577914,77.51475 171.31293,72.675 164.285176,65.58975 L164.285176,65.58975 Z" id="Shape"></path>
                    <path d="M236.201176,76.3727393 L236.201176,1.3307393 L271.009757,1.3307393 C287.184748,1.3307393 295.99956,12.3557393 295.99956,25.5182393 C295.99956,38.5704893 287.073196,49.5954893 271.009757,49.5954893 L252.043743,49.5954893 L252.043743,76.3704893 L236.201176,76.3704893 L236.201176,76.3727393 Z M279.822338,25.5204893 C279.822338,19.2204893 275.025617,15.3954893 268.778724,15.3954893 L252.043743,15.3954893 L252.043743,35.5352393 L268.778724,35.5352393 C275.025617,35.5352393 279.822338,31.7079893 279.822338,25.5204893 L279.822338,25.5204893 Z" id="Shape"></path>
                    <path d="M306.137837,76.3727393 L306.137837,1.3307393 L358.794684,1.3307393 L358.794684,15.3932393 L321.978174,15.3932393 L321.978174,31.1432393 L358.013823,31.1432393 L358.013823,45.2057393 L321.978174,45.2057393 L321.978174,62.3102393 L358.794684,62.3102393 L358.794684,76.3727393 L306.137837,76.3727393 L306.137837,76.3727393 Z" id="Shape"></path>
                    <path d="M370.13648,76.3727393 L370.13648,1.3307393 L386.088368,1.3307393 L386.088368,62.3102393 L417.550399,62.3102393 L417.550399,76.3727393 L370.13648,76.3727393 L370.13648,76.3727393 Z" id="Shape"></path>
                    <path d="M1.97933947,131.303381 C1.97933947,108.236381 18.8236405,92.4863813 40.2415597,92.4863813 C53.4046559,92.4863813 62.5518922,98.7886313 68.4641303,107.338631 L60.7692966,111.726131 C56.5303335,105.313631 48.7217171,100.813631 40.2415597,100.813631 C23.9527859,100.813631 11.5705514,113.301131 11.5705514,131.303381 C11.5705514,149.078381 23.9527859,161.793131 40.2415597,161.793131 C48.7217171,161.793131 56.5303335,157.178381 60.7692966,150.876131 L68.577913,155.151131 C62.3287889,163.818131 53.4046559,170.113631 40.2415597,170.113631 C18.8236405,170.115881 1.97933947,154.365881 1.97933947,131.303381 L1.97933947,131.303381 Z" id="Shape"></path>
                    <path d="M84.4518172,168.193751 L84.4518172,93.151751 L133.199894,93.151751 L133.199894,101.474501 L93.7083742,101.474501 L93.7083742,125.666501 L132.419032,125.666501 L132.419032,133.989251 L93.7083742,133.989251 L93.7083742,159.868751 L133.199894,159.868751 L133.199894,168.191501 L84.4518172,168.191501 L84.4518172,168.193751 Z" id="Shape"></path>
                    <path d="M201.105076,168.193751 L157.707017,108.339251 L157.707017,168.193751 L148.45046,168.193751 L148.45046,93.151751 L157.932351,93.151751 L200.770421,151.766501 L200.770421,93.151751 L210.029209,93.151751 L210.029209,168.193751 L201.105076,168.193751 L201.105076,168.193751 Z" id="Shape"></path>
                    <path d="M245.885432,168.191501 L245.885432,101.474501 L222.3458,101.474501 L222.3458,93.151751 L278.797634,93.151751 L278.797634,101.474501 L255.14422,101.474501 L255.14422,168.191501 L245.885432,168.191501 L245.885432,168.191501 Z" id="Shape"></path>
                    <path d="M292.942241,168.193751 L292.942241,93.151751 L341.69478,93.151751 L341.69478,101.474501 L302.201029,101.474501 L302.201029,125.666501 L340.909456,125.666501 L340.909456,133.989251 L302.201029,133.989251 L302.201029,159.868751 L341.69478,159.868751 L341.69478,168.191501 L292.942241,168.191501 L292.942241,168.193751 Z" id="Shape"></path>
                    <path d="M405.937844,168.193751 L387.083382,138.381251 L372.13769,138.381251 L372.13769,168.193751 L362.878902,168.193751 L362.878902,93.151751 L392.774748,93.151751 C406.384051,93.151751 416.200597,101.926751 416.200597,115.766501 C416.200597,129.266501 406.941809,136.693751 396.792839,137.593751 L416.872138,168.193751 L405.937844,168.193751 L405.937844,168.193751 Z M406.609385,115.766501 C406.609385,107.214251 400.474043,101.474501 391.659231,101.474501 L372.13769,101.474501 L372.13769,130.166501 L391.659231,130.166501 C400.474043,130.168751 406.609385,124.204001 406.609385,115.766501 L406.609385,115.766501 Z" id="Shape"></path>
                </g>
                <path d="M10.7227741,209.3405 L15.2062741,219.68 L6.23927414,219.68 L10.7227741,209.3405 Z M10.7837741,204.186 L10.6617741,204.186 L0.627274139,227 L3.09777414,227 L5.35477414,221.754 L16.0907741,221.754 L18.3477741,227 L20.8182741,227 L10.7837741,204.186 Z M43.4802043,204.5825 L36.3127043,204.5825 L36.3127043,227 L38.6002043,227 L38.6002043,218.4295 L43.4802043,218.4295 C47.9942043,218.4295 51.2272043,215.9895 51.2272043,211.506 C51.2272043,207.0225 47.9637043,204.5825 43.4802043,204.5825 L43.4802043,204.5825 Z M43.2972043,206.6565 C46.6522043,206.6565 48.8787043,208.3645 48.8787043,211.506 C48.8787043,214.678 46.6827043,216.3555 43.2972043,216.3555 L38.6002043,216.3555 L38.6002043,206.6565 L43.2972043,206.6565 Z M59.5081693,204.5825 L57.2206693,204.5825 L57.2206693,227 L70.7626693,227 L70.7626693,224.8955 L59.5081693,224.8955 L59.5081693,204.5825 Z M84.1371344,209.3405 L88.6206344,219.68 L79.6536344,219.68 L84.1371344,209.3405 Z M84.1981344,204.186 L84.0761344,204.186 L74.0416344,227 L76.5121344,227 L78.7691344,221.754 L89.5051344,221.754 L91.7621344,227 L94.2326344,227 L84.1981344,204.186 Z M108.888099,204.186 C102.361099,204.186 97.7250994,209.127 97.7250994,215.8065 C97.7250994,222.486 102.361099,227.3965 108.888099,227.3965 C112.121099,227.3965 114.835599,226.268 116.879099,224.072 L115.415099,222.3335 C113.859599,224.072 111.602599,225.231 108.888099,225.231 C103.672599,225.231 100.043099,221.266 100.043099,215.8065 C100.043099,210.347 103.672599,206.3515 108.888099,206.3515 C111.511099,206.3515 113.676599,207.4495 115.232099,209.066 L116.726599,207.3885 C114.683099,205.345 112.151599,204.186 108.888099,204.186 L108.888099,204.186 Z M136.140064,204.5825 L122.598064,204.5825 L122.598064,227 L136.384064,227 L136.384064,224.8345 L124.885564,224.8345 L124.885564,216.691 L134.828564,216.691 L134.828564,214.5865 L124.885564,214.5865 L124.885564,206.748 L136.140064,206.748 L136.140064,204.5825 Z M179.541995,204.5825 L176.979995,204.5825 L170.879995,221.205 L164.901995,204.5825 L164.779995,204.5825 L158.801995,221.205 L152.732495,204.5825 L150.170495,204.5825 L158.771495,227.366 L158.893495,227.366 L164.840995,210.835 L170.818995,227.366 L170.940995,227.366 L179.541995,204.5825 Z M201.91396,204.5825 L199.59596,204.5825 L199.59596,214.4645 L187.39596,214.4645 L187.39596,204.5825 L185.10846,204.5825 L185.10846,227 L187.39596,227 L187.39596,216.5995 L199.59596,216.5995 L199.59596,227 L201.91396,227 L201.91396,204.5825 Z M223.309925,204.5825 L209.767925,204.5825 L209.767925,227 L223.553925,227 L223.553925,224.8345 L212.055425,224.8345 L212.055425,216.691 L221.998425,216.691 L221.998425,214.5865 L212.055425,214.5865 L212.055425,206.748 L223.309925,206.748 L223.309925,204.5825 Z M236.31839,204.5825 L229.60839,204.5825 L229.60839,227 L231.92639,227 L231.92639,218.1855 L236.95889,218.1855 L242.50989,227 L245.25489,227 L239.42939,217.7585 C242.32689,216.9045 244.21789,214.7085 244.21789,211.384 C244.21789,206.992 240.89339,204.5825 236.31839,204.5825 L236.31839,204.5825 Z M236.16589,206.6565 C239.61239,206.6565 241.86939,208.273 241.86939,211.384 C241.86939,214.495 239.64289,216.1115 236.16589,216.1115 L231.92639,216.1115 L231.92639,206.6565 L236.16589,206.6565 Z M264.576855,204.5825 L251.034855,204.5825 L251.034855,227 L264.820855,227 L264.820855,224.8345 L253.322355,224.8345 L253.322355,216.691 L263.265355,216.691 L263.265355,214.5865 L253.322355,214.5865 L253.322355,206.748 L264.576855,206.748 L264.576855,204.5825 Z M301.970285,204.186 L301.848285,204.186 L291.417285,222.8825 L281.016785,204.186 L280.894785,204.186 L280.894785,227 L283.182285,227 L283.182285,212.177 L291.325785,227.122 L291.539285,227.122 L299.652285,212.177 L299.652285,227 L301.970285,227 L301.970285,204.186 Z M312.14225,204.5825 L309.85475,204.5825 L309.85475,227 L312.14225,227 L312.14225,204.5825 Z M326.645215,204.5825 L319.935215,204.5825 L319.935215,227 L322.253215,227 L322.253215,218.1855 L327.285715,218.1855 L332.836715,227 L335.581715,227 L329.756215,217.7585 C332.653715,216.9045 334.544715,214.7085 334.544715,211.384 C334.544715,206.992 331.220215,204.5825 326.645215,204.5825 L326.645215,204.5825 Z M326.492715,206.6565 C329.939215,206.6565 332.196215,208.273 332.196215,211.384 C332.196215,214.495 329.969715,216.1115 326.492715,216.1115 L322.253215,216.1115 L322.253215,206.6565 L326.492715,206.6565 Z M349.13918,209.3405 L353.62268,219.68 L344.65568,219.68 L349.13918,209.3405 Z M349.20018,204.186 L349.07818,204.186 L339.04368,227 L341.51418,227 L343.77118,221.754 L354.50718,221.754 L356.76418,227 L359.23468,227 L349.20018,204.186 Z M373.890145,204.186 C367.363145,204.186 362.727145,209.127 362.727145,215.8065 C362.727145,222.486 367.363145,227.3965 373.890145,227.3965 C377.123145,227.3965 379.837645,226.268 381.881145,224.072 L380.417145,222.3335 C378.861645,224.072 376.604645,225.231 373.890145,225.231 C368.674645,225.231 365.045145,221.266 365.045145,215.8065 C365.045145,210.347 368.674645,206.3515 373.890145,206.3515 C376.513145,206.3515 378.678645,207.4495 380.234145,209.066 L381.728645,207.3885 C379.685145,205.345 377.153645,204.186 373.890145,204.186 L373.890145,204.186 Z M389.88761,204.5825 L387.60011,204.5825 L387.60011,227 L401.14211,227 L401.14211,224.8955 L389.88761,224.8955 L389.88761,204.5825 Z M420.281075,204.5825 L406.739075,204.5825 L406.739075,227 L420.525075,227 L420.525075,224.8345 L409.026575,224.8345 L409.026575,216.691 L418.969575,216.691 L418.969575,214.5865 L409.026575,214.5865 L409.026575,206.748 L420.281075,206.748 L420.281075,204.5825 Z M432.52704,204.186 C428.28754,204.186 425.45104,206.565 425.45104,210.469 C425.45104,213.8545 427.34204,215.532 432.61854,216.691 C436.61404,217.545 438.35254,218.6735 438.35254,220.961 C438.35254,223.767 436.03454,225.231 432.98454,225.231 C430.48354,225.231 427.92154,224.255 426.30504,222.669 L424.96304,224.5905 C427.00654,226.3595 429.62954,227.3965 432.92354,227.3965 C437.65104,227.3965 440.64004,224.7125 440.64004,220.8085 C440.64004,217.362 438.53554,215.6235 433.25904,214.4645 C429.26354,213.58 427.76904,212.7565 427.76904,210.408 C427.76904,207.602 429.81254,206.3515 432.49654,206.3515 C434.81454,206.3515 436.79704,207.236 438.29154,208.456 L439.51154,206.565 C437.80354,205.1925 435.45504,204.186 432.52704,204.186 L432.52704,204.186 Z M473.54997,204.5825 L471.23197,204.5825 L471.23197,214.4645 L459.03197,214.4645 L459.03197,204.5825 L456.74447,204.5825 L456.74447,227 L459.03197,227 L459.03197,216.5995 L471.23197,216.5995 L471.23197,227 L473.54997,227 L473.54997,204.5825 Z M489.181436,209.3405 L493.664936,219.68 L484.697936,219.68 L489.181436,209.3405 Z M489.242436,204.186 L489.120436,204.186 L479.085936,227 L481.556436,227 L483.813436,221.754 L494.549436,221.754 L496.806436,227 L499.276936,227 L489.242436,204.186 Z M512.010901,204.5825 L504.843401,204.5825 L504.843401,227 L507.130901,227 L507.130901,218.4295 L512.010901,218.4295 C516.524901,218.4295 519.757901,215.9895 519.757901,211.506 C519.757901,207.0225 516.494401,204.5825 512.010901,204.5825 L512.010901,204.5825 Z M511.827901,206.6565 C515.182901,206.6565 517.409401,208.3645 517.409401,211.506 C517.409401,214.678 515.213401,216.3555 511.827901,216.3555 L507.130901,216.3555 L507.130901,206.6565 L511.827901,206.6565 Z M532.918866,204.5825 L525.751366,204.5825 L525.751366,227 L528.038866,227 L528.038866,218.4295 L532.918866,218.4295 C537.432866,218.4295 540.665866,215.9895 540.665866,211.506 C540.665866,207.0225 537.402366,204.5825 532.918866,204.5825 L532.918866,204.5825 Z M532.735866,206.6565 C536.090866,206.6565 538.317366,208.3645 538.317366,211.506 C538.317366,214.678 536.121366,216.3555 532.735866,216.3555 L528.038866,216.3555 L528.038866,206.6565 L532.735866,206.6565 Z M560.201331,204.5825 L546.659331,204.5825 L546.659331,227 L560.445331,227 L560.445331,224.8345 L548.946831,224.8345 L548.946831,216.691 L558.889831,216.691 L558.889831,214.5865 L548.946831,214.5865 L548.946831,206.748 L560.201331,206.748 L560.201331,204.5825 Z M583.427296,204.5825 L581.109296,204.5825 L581.109296,221.51 L566.713296,204.186 L566.591296,204.186 L566.591296,227 L568.878796,227 L568.878796,210.042 L583.305296,227.3965 L583.427296,227.3965 L583.427296,204.5825 Z M593.477261,204.5825 L591.281261,204.5825 L591.281261,221.083 L593.477261,221.083 L593.477261,204.5825 Z M592.379261,224.194 C591.494761,224.194 590.793261,224.926 590.793261,225.8105 C590.793261,226.7255 591.494761,227.3965 592.379261,227.3965 C593.294261,227.3965 593.995761,226.7255 593.995761,225.8105 C593.995761,224.926 593.294261,224.194 592.379261,224.194 L592.379261,224.194 Z" id="A-PLACE-WHERE-MIRACL-2" sketch:type="MSShapeGroup"></path>
            </g>
        </g>
    </g>
</svg>