<?xml version="1.0" encoding="UTF-8" standalone="no"?>
<svg width="1940px" height="791px" viewBox="0 0 1940 791" version="1.1" xmlns="http://www.w3.org/2000/svg" xmlns:xlink="http://www.w3.org/1999/xlink" xmlns:sketch="http://www.bohemiancoding.com/sketch/ns">
    <!-- Generator: Sketch 3.0.4 (8054) - http://www.bohemiancoding.com/sketch -->
    <title>LogoGCLausanne</title>
    <desc>Created with Sketch.</desc>
    <defs>
        <linearGradient x1="49.9974635%" y1="-14.0727045%" x2="49.9974635%" y2="81.5878324%" id="linearGradient-1">
            <stop stop-color="#E42616" offset="0%"></stop>
            <stop stop-color="#D11015" offset="100%"></stop>
        </linearGradient>
        <linearGradient x1="49.9991094%" y1="-21.3519825%" x2="49.9991094%" y2="123.498929%" id="linearGradient-2">
            <stop stop-color="#E42616" offset="0%"></stop>
            <stop stop-color="#D11015" offset="100%"></stop>
        </linearGradient>
    </defs>
    <g id="Icon" stroke="none" stroke-width="1" fill="none" fill-rule="evenodd" sketch:type="MSPage">
        <g id="LogoGCLausanne" sketch:type="MSArtboardGroup">
            <g id="GCLausanne" sketch:type="MSLayerGroup" transform="translate(10.000000, 10.000000)">
                <g id="Group" transform="translate(1427.509294, 14.277778)" sketch:type="MSShapeGroup">
                    <path d="M315.386766,386.877806 C292.082677,387.862972 268.792862,385.421472 245.895613,379.52475 C216.224833,371.864722 188.816654,358.45075 164.427658,339.661194 C139.31777,320.293389 119.061413,296.827861 104.251004,269.91425 C89.4834201,243.079167 79.9976208,214.487917 76.0077323,184.940056 C72.0249814,155.377917 73.7665428,125.316056 81.1967286,95.5825833 C88.6626022,65.792 102.252491,37.9574722 121.595242,12.8428611 C124.400297,9.20916667 127.319554,5.71111111 130.303048,2.28444444 C100.553755,18.2041667 73.5881041,40.4632222 51.6615613,68.9259722 C-31.2339033,176.509028 -11.2416357,330.944611 96.3211896,413.841389 C159.081636,462.221639 237.773086,475.507111 308.920149,456.846056 L279.142305,433.901667 L315.386766,386.877806 L315.386766,386.877806 Z" id="Shape" fill="url(#linearGradient-1)"></path>
                    <path d="M400.252193,31.16125 C382.793755,19.3963611 365.071227,11.9505 345.442974,7.16030556 C325.757621,2.34155556 305.872416,1.19219444 286.344089,3.70508333 C266.865725,6.23225 247.915539,12.4216667 230.057398,22.0948611 C212.30632,31.7323611 196.910632,44.8821944 184.34855,61.2088333 C171.515242,77.871 162.571896,96.2607778 157.782602,115.885583 C152.986171,135.63175 151.808476,155.527833 154.349442,175.009861 C156.876134,194.499028 163.121487,213.345694 172.921338,231.000167 C182.685502,248.604667 196.089814,264.046083 212.777398,276.903222 C229.429294,289.746083 247.580074,298.634 266.744387,303.331389 C285.994349,308.050194 305.651152,309.178139 325.143792,306.629556 C328.505576,306.194083 331.867361,305.594417 335.236283,304.916222 L262.069294,248.511861 L315.28684,179.45025 L477.152119,304.230889 C505.952119,226.252806 493.183048,138.116083 443.056059,71.3960278 C431.671673,56.7184722 416.161784,41.891 400.252193,31.16125 L400.252193,31.16125 Z" id="Shape" fill="url(#linearGradient-2)"></path>
                </g>
                <path d="M1.42108547e-14,123.160111 C1.42108547e-14,47.8376944 57.1075093,0 127.055465,0 C176.304535,0 207.36,24.9861111 225.203866,53.1918611 L183.449219,76.0291667 C172.378885,59.2527778 152.044015,44.975 127.055465,44.975 C83.5092937,44.975 52.1040892,78.1708333 52.1040892,123.152972 C52.1040892,168.127972 83.5092937,201.323806 127.055465,201.323806 C148.111227,201.323806 167.73948,192.04325 177.382305,183.119639 L177.382305,154.556944 L114.564758,154.556944 L114.564758,110.295833 L228.058885,110.295833 L228.058885,201.68075 C203.791227,228.815667 169.887881,246.298806 127.055465,246.298806 C57.1075093,246.305944 1.42108547e-14,198.118444 1.42108547e-14,123.160111 L1.42108547e-14,123.160111 Z" id="Shape" fill="#3B3B3B" sketch:type="MSShapeGroup"></path>
                <path d="M256.951673,123.160111 C256.951673,51.4071389 309.426914,0 381.508996,0 C453.248476,0 505.709442,51.4071389 505.709442,123.160111 C505.709442,194.905944 453.241338,246.305944 381.508996,246.305944 C309.419777,246.305944 256.951673,194.898806 256.951673,123.160111 L256.951673,123.160111 Z M453.612491,123.160111 C453.612491,78.5349167 425.412045,44.9821389 381.508996,44.9821389 C337.256208,44.9821389 309.0629,78.5349167 309.0629,123.160111 C309.0629,167.414083 337.256208,201.330944 381.508996,201.330944 C425.404907,201.330944 453.612491,167.414083 453.612491,123.160111 L453.612491,123.160111 Z" id="Shape" fill="#3B3B3B" sketch:type="MSShapeGroup"></path>
                <path d="M528.178439,208.10575 L556.01487,168.484917 C572.795242,185.968056 598.847286,200.966861 631.68,200.966861 C659.873309,200.966861 673.084907,188.466667 673.084907,174.552972 C673.084907,133.140278 536.036877,162.059917 536.036877,72.4597222 C536.036877,32.83175 570.2971,0 626.32684,0 C664.162974,0 695.568178,11.4222222 719.114944,33.1958333 L690.928773,71.0319444 C671.65026,53.1847222 645.955093,44.975 621.687435,44.975 C600.274796,44.975 588.140967,54.2555556 588.140967,68.5333333 C588.140967,106.019639 724.832119,80.6765833 724.832119,169.55575 C724.832119,213.110111 693.426914,245.941861 629.538736,245.941861 C583.501561,245.941861 550.66171,230.586111 528.178439,208.10575 L528.178439,208.10575 Z" id="Shape" fill="#3B3B3B" sketch:type="MSShapeGroup"></path>
                <path d="M756.579926,245.235111 L756.579926,7.13888889 L867.939926,7.13888889 C919.687138,7.13888889 947.887584,42.1194444 947.887584,83.8819444 C947.887584,125.294639 919.33026,160.275194 867.939926,160.275194 L807.263643,160.275194 L807.263643,245.227972 L756.579926,245.227972 L756.579926,245.235111 Z M896.126097,83.8819444 C896.126097,63.8930556 880.780372,51.7569444 860.795242,51.7569444 L807.256506,51.7569444 L807.256506,115.657139 L860.795242,115.657139 C880.780372,115.664278 896.126097,103.513889 896.126097,83.8819444 L896.126097,83.8819444 Z" id="Shape" fill="#3B3B3B" sketch:type="MSShapeGroup"></path>
                <path d="M977.843866,245.235111 L977.843866,7.13888889 L1146.30424,7.13888889 L1146.30424,51.7569444 L1028.52758,51.7569444 L1028.52758,101.729167 L1143.8061,101.729167 L1143.8061,146.347222 L1028.52758,146.347222 L1028.52758,200.617056 L1146.30424,200.617056 L1146.30424,245.235111 L977.843866,245.235111 L977.843866,245.235111 Z" id="Shape" fill="#3B3B3B" sketch:type="MSShapeGroup"></path>
                <path d="M1184.83271,245.235111 L1184.83271,7.13888889 L1235.86617,7.13888889 L1235.86617,200.617056 L1336.51985,200.617056 L1336.51985,245.235111 L1184.83271,245.235111 L1184.83271,245.235111 Z" id="Shape" fill="#3B3B3B" sketch:type="MSShapeGroup"></path>
                <path d="M7.13754647,415.854556 C7.13754647,342.666667 61.0260223,292.694444 129.546468,292.694444 C171.657993,292.694444 200.921933,312.690472 219.836431,339.81825 L195.219033,353.739083 C181.657695,333.39325 156.676283,319.115472 129.546468,319.115472 C77.4352416,319.115472 37.8218587,358.736306 37.8218587,415.854556 C37.8218587,472.251778 77.4352416,512.593639 129.546468,512.593639 C156.676283,512.593639 181.657695,497.951778 195.219033,477.95575 L220.200446,491.519639 C200.208178,519.0115 171.657993,538.99325 129.546468,538.99325 C61.0260223,539.000389 7.13754647,489.028167 7.13754647,415.854556 L7.13754647,415.854556 Z" id="Shape" fill="#3B3B3B" sketch:type="MSShapeGroup"></path>
                <path d="M271.226766,537.929556 L271.226766,299.833333 L427.189294,299.833333 L427.189294,326.240083 L300.840446,326.240083 L300.840446,402.990278 L424.691152,402.990278 L424.691152,429.404167 L300.840446,429.404167 L300.840446,511.508528 L427.182156,511.508528 L427.182156,537.922417 L271.226766,537.922417 L271.226766,537.929556 Z" id="Shape" fill="#3B3B3B" sketch:type="MSShapeGroup"></path>
                <path d="M646.66171,537.929556 L507.829294,348.020833 L507.829294,537.929556 L478.215613,537.929556 L478.215613,299.833333 L508.550186,299.833333 L645.598216,485.808528 L645.598216,299.833333 L675.219033,299.833333 L675.219033,537.929556 L646.66171,537.929556 L646.66171,537.929556 Z" id="Shape" fill="#3B3B3B" sketch:type="MSShapeGroup"></path>
                <path d="M789.0629,537.922417 L789.0629,326.240083 L713.754647,326.240083 L713.754647,299.833333 L894.355985,299.833333 L894.355985,326.240083 L818.683717,326.240083 L818.683717,537.922417 L789.0629,537.922417 L789.0629,537.922417 Z" id="Shape" fill="#3B3B3B" sketch:type="MSShapeGroup"></path>
                <path d="M942.156134,537.929556 L942.156134,299.833333 L1098.1258,299.833333 L1098.1258,326.240083 L971.784089,326.240083 L971.784089,402.990278 L1095.62766,402.990278 L1095.62766,429.404167 L971.784089,429.404167 L971.784089,511.508528 L1098.1258,511.508528 L1098.1258,537.922417 L942.156134,537.922417 L942.156134,537.929556 Z" id="Shape" fill="#3B3B3B" sketch:type="MSShapeGroup"></path>
                <path d="M1301.17472,537.929556 L1240.86245,443.332139 L1193.04089,443.332139 L1193.04089,537.929556 L1163.42007,537.929556 L1163.42007,299.833333 L1259.0632,299.833333 C1302.60937,299.833333 1334.01457,327.675 1334.01457,371.586306 C1334.01457,414.419639 1304.39375,437.977972 1271.91792,440.833528 L1336.15584,537.929556 L1301.17472,537.929556 L1301.17472,537.929556 Z M1303.31599,371.586306 C1303.31599,344.451389 1283.68773,326.240083 1255.48729,326.240083 L1193.03375,326.240083 L1193.03375,417.275194 L1255.48729,417.275194 C1283.68773,417.282333 1303.31599,398.357139 1303.31599,371.586306 L1303.31599,371.586306 Z" id="Shape" fill="#3B3B3B" sketch:type="MSShapeGroup"></path>
                <g id="Group" transform="translate(720.892193, 649.638889)" fill="#3B3B3B" sketch:type="MSShapeGroup">
                    <path d="M0.984981413,120.497306 L0.984981413,1.48488889 L11.3272862,1.48488889 L11.3272862,111.21675 L68.9486989,111.21675 L68.9486989,120.497306 L0.984981413,120.497306 L0.984981413,120.497306 Z" id="Shape"></path>
                    <path d="M220.614424,120.497306 L208.84461,91.235 L145.870037,91.235 L134.100223,120.497306 L122.330409,120.497306 L171.029888,1.48488889 L183.691896,1.48488889 L232.391375,120.497306 L220.614424,120.497306 L220.614424,120.497306 Z M177.439405,12.3645556 L149.260372,81.9544444 L205.454275,81.9544444 L177.439405,12.3645556 L177.439405,12.3645556 Z" id="Shape"></path>
                    <path d="M290.405353,74.8155556 L290.405353,1.48488889 L300.754796,1.48488889 L300.754796,74.6370833 C300.754796,98.7308333 313.416803,113.358417 336.792268,113.358417 C360.153457,113.358417 372.82974,98.7308333 372.82974,74.6370833 L372.82974,1.48488889 L383.172045,1.48488889 L383.172045,74.8155556 C383.172045,104.256333 367.47658,122.631833 336.792268,122.631833 C306.279257,122.638972 290.405353,104.077861 290.405353,74.8155556 L290.405353,74.8155556 Z" id="Shape"></path>
                    <path d="M450.814572,103.720917 L457.416803,96.05375 C465.089665,104.798889 477.573234,113.358417 494.703346,113.358417 C518.963866,113.358417 525.922974,99.8016667 525.922974,89.62875 C525.922974,54.6624722 454.568922,72.8523611 454.568922,31.2826111 C454.568922,11.8291389 472.048773,-0.478305556 493.639851,-0.478305556 C511.305279,-0.478305556 524.85948,5.76822222 533.952714,16.2980833 L527.172045,23.7939167 C518.614126,13.4496667 506.487435,8.80225 493.104535,8.80225 C477.223494,8.80225 465.275242,17.9043333 465.275242,30.7471944 C465.275242,61.2588056 536.636431,44.4895556 536.636431,88.9148611 C536.636431,104.256333 526.465428,122.638972 494.353606,122.638972 C474.725353,122.638972 459.922082,114.607722 450.814572,103.720917 L450.814572,103.720917 Z" id="Shape"></path>
                    <path d="M690.079405,120.497306 L678.309591,91.235 L615.335019,91.235 L603.565204,120.497306 L591.79539,120.497306 L640.49487,1.48488889 L653.156877,1.48488889 L701.856357,120.497306 L690.079405,120.497306 L690.079405,120.497306 Z M646.904387,12.3645556 L618.725353,81.9544444 L674.919257,81.9544444 L646.904387,12.3645556 L646.904387,12.3645556 Z" id="Shape"></path>
                    <path d="M849.061115,120.497306 L774.13829,18.2612778 L774.13829,120.497306 L763.967286,120.497306 L763.967286,1.48488889 L774.316729,1.48488889 L848.882677,102.293139 L848.882677,1.48488889 L859.05368,1.48488889 L859.05368,120.497306 L849.061115,120.497306 L849.061115,120.497306 Z" id="Shape"></path>
                    <path d="M1018.39941,120.497306 L943.47658,18.2612778 L943.47658,120.497306 L933.305576,120.497306 L933.305576,1.48488889 L943.655019,1.48488889 L1018.22097,102.293139 L1018.22097,1.48488889 L1028.39197,1.48488889 L1028.39197,120.497306 L1018.39941,120.497306 L1018.39941,120.497306 Z" id="Shape"></path>
                    <path d="M1102.63673,120.497306 L1102.63673,1.48488889 L1178.09487,1.48488889 L1178.09487,10.7654444 L1112.80773,10.7654444 L1112.80773,54.8409444 L1176.85294,54.8409444 L1176.85294,64.1143611 L1112.80773,64.1143611 L1112.80773,111.223889 L1178.09487,111.223889 L1178.09487,120.504444 L1102.63673,120.504444 L1102.63673,120.497306 Z" id="Shape"></path>
                </g>
            </g>
        </g>
    </g>
</svg>