<?xml version="1.0" encoding="UTF-8" standalone="no"?>
<svg width="107px" height="30px" viewBox="0 0 107 30" version="1.1" xmlns="http://www.w3.org/2000/svg" xmlns:xlink="http://www.w3.org/1999/xlink" xmlns:sketch="http://www.bohemiancoding.com/sketch/ns">
    <!-- Generator: Sketch 3.0.4 (8054) - http://www.bohemiancoding.com/sketch -->
    <title>logoWhite</title>
    <desc>Created with Sketch.</desc>
    <defs></defs>
    <g id="Icon" stroke="none" stroke-width="1" fill="none" fill-rule="evenodd" sketch:type="MSPage">
        <g id="logoWhite" sketch:type="MSArtboardGroup" fill="#FDFDFC">
            <g id="Group" sketch:type="MSLayerGroup">
                <g id="Arrow-2" transform="translate(79.318874, 0.940076)" sketch:type="MSShapeGroup">
                    <path d="M17.5837981,21.4129404 C16.286828,21.4681744 14.9902554,21.3322748 13.7159347,21.0040492 C12.0637284,20.577674 10.5378813,19.8310205 9.17971849,18.7851493 C7.78182005,17.7070914 6.65452106,16.4005472 5.83000735,14.9024719 C5.00748041,13.4087676 4.47979163,11.8173109 4.25766962,10.172607 C4.03554761,8.52710834 4.13289984,6.85379397 4.54654744,5.19875849 C4.96257918,3.54054408 5.71835031,1.99120835 6.79558244,0.593269619 C6.95174335,0.391009581 7.11465932,0.195902158 7.28075413,0.00556314445 C5.62457429,0.891692582 4.12296594,2.13068433 2.90189092,3.71498839 C-1.71260439,9.70331603 -0.599610216,18.2995663 5.38854482,22.9133999 C8.8824962,25.6063592 13.2633462,26.3462574 17.2237935,25.3075388 L15.5660242,24.0307972 L17.5837981,21.4129404 L17.5837981,21.4129404 Z" id="Shape"></path>
                    <path d="M22.3095531,1.61251716 C21.3372229,0.957655581 20.3505879,0.543201319 19.2578589,0.276567753 C18.161951,0.00834471668 17.0553146,-0.0556314445 15.9673538,0.0842419017 C14.8829693,0.224909983 13.8283864,0.569427571 12.8342017,1.10786048 C11.8455799,1.64390919 10.9892777,2.37625742 10.2895338,3.2850368 C9.57469036,4.21249245 9.07720064,5.23611103 8.81097211,6.32847418 C8.54315417,7.42759258 8.47798778,8.53505569 8.61944652,9.61947149 C8.76011055,10.7042847 9.10779705,11.7533348 9.65336685,12.7360245 C10.1973472,13.7159326 10.9431845,14.5754385 11.8722028,15.2910973 C12.798837,16.005564 13.8093133,16.5006838 14.8766116,16.7621516 C15.9482807,17.0248115 17.0425992,17.0875956 18.1277784,16.9457354 C18.3149331,16.921496 18.5016904,16.8881171 18.6896398,16.8503672 L14.615946,13.7107669 L17.5790298,9.86703142 L26.5902693,16.8126173 C28.1936008,12.4721725 27.4827309,7.56627382 24.6920997,3.85247753 C24.0579195,3.03549003 23.1940675,2.20976045 22.3095531,1.61251716 L22.3095531,1.61251716 Z" id="Shape"></path>
                </g>
                <path d="M0,6.85538343 C0,2.66275936 3.17924542,0 7.07333429,0 C9.81509075,0 11.5439867,1.39078611 12.5373768,2.96078495 L10.2128441,4.23196346 C9.59654494,3.29814993 8.46447768,2.503415 7.07333429,2.503415 C4.64906529,2.503415 2.90069886,4.3511737 2.90069886,6.85498607 C2.90069886,9.35840107 4.64906529,11.2061598 7.07333429,11.2061598 C8.24553452,11.2061598 9.33826354,10.6895821 9.8750915,10.1928727 L9.8750915,8.60300553 L6.37796128,8.60300553 L6.37796128,6.13932727 L12.6963192,6.13932727 L12.6963192,11.2260281 C11.3453087,12.7364219 9.4578677,13.7095748 7.07333429,13.7095748 C3.17924542,13.7099721 0,11.0277418 0,6.85538343 L0,6.85538343 Z" id="Shape-2" sketch:type="MSShapeGroup"></path>
                <path d="M14.3361521,6.85538343 C14.3361521,2.86144309 17.2575135,0 21.2704118,0 C25.2642371,0 28.1848037,2.86144309 28.1848037,6.85538343 C28.1848037,10.8489264 25.2638397,13.7099721 21.2704118,13.7099721 C17.2571161,13.7099721 14.3361521,10.8489264 14.3361521,6.85538343 L14.3361521,6.85538343 Z M25.2845022,6.85538343 C25.2845022,4.37143944 23.7145486,2.50381237 21.2704118,2.50381237 C18.8068046,2.50381237 17.2372483,4.37143944 17.2372483,6.85538343 C17.2372483,9.31866432 18.8068046,11.2065571 21.2704118,11.2065571 C23.7141513,11.2065571 25.2845022,9.31866432 25.2845022,6.85538343 L25.2845022,6.85538343 Z" id="Shape-3" sketch:type="MSShapeGroup"></path>
                <path d="M29.2598515,11.5836589 L30.8095399,9.37826944 C31.7437239,10.3514224 33.1940733,11.1862914 35.0219109,11.1862914 C36.5914672,11.1862914 37.3269731,10.490501 37.3269731,9.71603179 C37.3269731,7.41090315 29.6973404,9.02063873 29.6973404,4.03327973 C29.6973404,1.82749295 31.6046493,0 34.7238939,0 C36.8302781,0 38.5786446,0.635787937 39.889522,1.84775869 L38.3203632,3.95380624 C37.2471046,2.96038758 35.816623,2.503415 34.4656125,2.503415 C33.2735445,2.503415 32.5980393,3.0199927 32.5980393,3.81472762 C32.5980393,5.90130416 40.2078042,4.49064968 40.2078042,9.43787456 C40.2078042,11.8622134 38.4594378,13.6897064 34.9027041,13.6897064 C32.3397579,13.6897064 30.5115229,12.834969 29.2598515,11.5836589 L29.2598515,11.5836589 Z" id="Shape-4" sketch:type="MSShapeGroup"></path>
                <path d="M42.0683808,13.4880184 L42.0683808,0.235018887 L48.2679293,0.235018887 C51.1487603,0.235018887 52.7187139,2.18211945 52.7187139,4.50671909 C52.7187139,6.81184773 51.1288925,8.75894829 48.2679293,8.75894829 L44.8900058,8.75894829 L44.8900058,13.4876211 L42.0683808,13.4876211 L42.0683808,13.4880184 Z M49.8374855,4.50711646 C49.8374855,3.39448757 48.9831701,2.71896289 47.8705733,2.71896289 L44.8900058,2.71896289 L44.8900058,6.27579903 L47.8705733,6.27579903 C48.9831701,6.27579903 49.8374855,5.59987698 49.8374855,4.50711646 L49.8374855,4.50711646 Z" id="Shape-5" sketch:type="MSShapeGroup"></path>
                <path d="M54.5243819,13.4880184 L54.5243819,0.235018887 L63.9027784,0.235018887 L63.9027784,2.71856552 L57.3456095,2.71856552 L57.3456095,5.50013774 L63.7637038,5.50013774 L63.7637038,7.98368437 L57.3456095,7.98368437 L57.3456095,11.0044718 L63.9027784,11.0044718 L63.9027784,13.4880184 L54.5243819,13.4880184 L54.5243819,13.4880184 Z" id="Shape-6" sketch:type="MSShapeGroup"></path>
                <path d="M65.9227979,13.4880184 L65.9227979,0.235018887 L68.7638934,0.235018887 L68.7638934,11.0044718 L74.3674078,11.0044718 L74.3674078,13.4880184 L65.9227979,13.4880184 L65.9227979,13.4880184 Z" id="Shape-7" sketch:type="MSShapeGroup"></path>
                <path d="M0.352528331,23.1891961 C0.352528331,19.1153849 3.35256619,16.3338127 7.16718386,16.3338127 C9.51158431,16.3338127 11.1407439,17.4468389 12.1937374,18.9568353 L10.8232565,19.7317018 C10.0682801,18.5992046 8.67753405,17.8044696 7.16718386,17.8044696 C4.26608765,17.8044696 2.06076181,20.0098591 2.06076181,23.1891961 C2.06076181,26.328399 4.26608765,28.5739226 7.16718386,28.5739226 C8.67753405,28.5739226 10.0682801,27.7589219 10.8232565,26.6458956 L12.2140025,27.4008938 C11.1010083,28.9315533 9.51158431,30.0433874 7.16718386,30.0433874 C3.35256619,30.0437848 0.352528331,27.2622126 0.352528331,23.1891961 L0.352528331,23.1891961 Z" id="Shape-8" sketch:type="MSShapeGroup"></path>
                <path d="M15.0412088,29.7043217 L15.0412088,16.4513221 L23.7234376,16.4513221 L23.7234376,17.9211844 L16.6898389,17.9211844 L16.6898389,22.1936793 L23.584363,22.1936793 L23.584363,23.6635415 L16.6898389,23.6635415 L16.6898389,28.2340621 L23.7234376,28.2340621 L23.7234376,29.7039243 L15.0412088,29.7039243 L15.0412088,29.7043217 Z" id="Shape-9" sketch:type="MSShapeGroup"></path>
                <path d="M35.817624,29.7043217 L28.0882549,19.1335525 L28.0882549,29.7043217 L26.4396248,29.7043217 L26.4396248,16.4513221 L28.1283879,16.4513221 L35.7580206,26.8031418 L35.7580206,16.4513221 L37.407048,16.4513221 L37.407048,29.7043217 L35.817624,29.7043217 L35.817624,29.7043217 Z" id="Shape-10" sketch:type="MSShapeGroup"></path>
                <path d="M43.7931858,29.7039243 L43.7931858,17.9211844 L39.6006825,17.9211844 L39.6006825,16.4513221 L49.6549816,16.4513221 L49.6549816,17.9211844 L45.4422132,17.9211844 L45.4422132,29.7039243 L43.7931858,29.7039243 L43.7931858,29.7039243 Z" id="Shape-11" sketch:type="MSShapeGroup"></path>
                <path d="M52.174193,29.7043217 L52.174193,16.4513221 L60.8572165,16.4513221 L60.8572165,17.9211844 L53.8232204,17.9211844 L53.8232204,22.1936793 L60.7173472,22.1936793 L60.7173472,23.6635415 L53.8232204,23.6635415 L53.8232204,28.2340621 L60.8572165,28.2340621 L60.8572165,29.7039243 L52.174193,29.7039243 L52.174193,29.7043217 Z" id="Shape-12" sketch:type="MSShapeGroup"></path>
                <path d="M72.299165,29.7043217 L68.9411094,24.4392028 L66.2792215,24.4392028 L66.2792215,29.7043217 L64.630194,29.7043217 L64.630194,16.4513221 L69.9547645,16.4513221 C72.3786362,16.4513221 74.1270026,18.0010552 74.1270026,20.4452625 C74.1270026,22.8294672 72.4779752,24.1411772 70.6704027,24.3001242 L74.2466068,29.7043217 L72.299165,29.7043217 L72.299165,29.7043217 Z M72.4187691,20.4452625 C72.4187691,18.9348687 71.3260401,17.9211844 69.7560865,17.9211844 L66.2792215,17.9211844 L66.2792215,22.9884142 L69.7560865,22.9884142 C71.3260401,22.9888116 72.4187691,21.9353904 72.4187691,20.4452625 L72.4187691,20.4452625 Z" id="Shape-13" sketch:type="MSShapeGroup"></path>
            </g>
        </g>
    </g>
</svg>