<?xml version="1.0" encoding="UTF-8" standalone="no"?>
<svg width="1940px" height="791px" viewBox="0 0 1940 791" version="1.1" xmlns="http://www.w3.org/2000/svg" xmlns:xlink="http://www.w3.org/1999/xlink" xmlns:sketch="http://www.bohemiancoding.com/sketch/ns">
    <!-- Generator: Sketch 3.0.4 (8054) - http://www.bohemiancoding.com/sketch -->
    <title>LogoGCMontreux</title>
    <desc>Created with Sketch.</desc>
    <defs>
        <linearGradient x1="49.9978062%" y1="-14.0734605%" x2="49.9978062%" y2="81.5887912%" id="linearGradient-1">
            <stop stop-color="#E42616" offset="0%"></stop>
            <stop stop-color="#D11015" offset="100%"></stop>
        </linearGradient>
        <linearGradient x1="49.9999085%" y1="-21.3482442%" x2="49.9999085%" y2="123.501032%" id="linearGradient-2">
            <stop stop-color="#E42616" offset="0%"></stop>
            <stop stop-color="#D11015" offset="100%"></stop>
        </linearGradient>
    </defs>
    <g id="Icon" stroke="none" stroke-width="1" fill="none" fill-rule="evenodd" sketch:type="MSPage">
        <g id="LogoGCMontreux" sketch:type="MSArtboardGroup">
            <g id="GCMontreux" sketch:type="MSLayerGroup" transform="translate(10.000000, 10.000000)">
                <g id="Group" transform="translate(1427.509294, 14.277778)" sketch:type="MSShapeGroup">
                    <path d="M311.703792,387.456056 C288.399703,388.441222 265.109888,385.999722 242.212639,380.103 C212.541859,372.442972 185.13368,359.036139 160.744684,340.239444 C135.634796,320.871639 115.378439,297.406111 100.56803,270.4925 C85.8004461,243.657417 76.3146468,215.066167 72.3318959,185.518306 C68.3420074,155.956167 70.0907063,125.894306 77.5208922,96.1608333 C84.9796283,66.3773889 98.5695167,38.5357222 117.919405,13.4211111 C120.717323,9.78741667 123.63658,6.28936111 126.620074,2.86269444 C96.8779182,18.7824167 69.9051301,41.0414722 47.9785874,69.5042222 C-34.9097398,177.080139 -14.9246097,331.522861 92.6453532,414.4125 C155.398662,462.79275 234.090112,476.078222 305.237175,457.424306 L275.459331,434.479917 L311.703792,387.456056 L311.703792,387.456056 Z" id="Shape" fill="url(#linearGradient-1)"></path>
                    <path d="M396.576357,31.7323611 C379.110781,19.9746111 361.39539,12.5216111 341.76,7.73141667 C322.074647,2.91266667 302.189442,1.76330556 282.661115,4.27619444 C263.182751,6.80336111 244.239703,12.9927778 226.374424,22.6731111 C208.623346,32.3034722 193.227658,45.4604444 180.665576,61.7870833 C167.832268,78.44925 158.896059,96.8390278 154.106766,116.463833 C149.303197,136.21 148.125502,156.113222 150.666468,175.588111 C153.19316,195.077278 159.438513,213.916806 169.238364,231.571278 C179.002528,249.182917 192.40684,264.617194 209.094424,277.474333 C225.74632,290.317194 243.8971,299.205111 263.061413,303.9025 C282.311375,308.621306 301.968178,309.74925 321.460818,307.200667 C324.822602,306.765194 328.184387,306.165528 331.553309,305.487333 L258.38632,249.082972 L311.603866,180.021361 L473.469145,304.802 C502.269145,226.823917 489.500074,138.687194 439.373086,71.9671389 C427.988699,57.2967222 412.47881,42.46925 396.576357,31.7323611 L396.576357,31.7323611 Z" id="Shape" fill="url(#linearGradient-2)"></path>
                </g>
                <path d="M0,123.152972 C0,47.8305556 57.1075093,0 127.055465,0 C176.304535,0 207.36,24.9861111 225.203866,53.1918611 L183.449219,76.0363056 C172.378885,59.2599167 152.044015,44.9821389 127.055465,44.9821389 C83.5092937,44.9821389 52.1040892,78.1779722 52.1040892,123.160111 C52.1040892,168.135111 83.5092937,201.338083 127.055465,201.338083 C148.111227,201.338083 167.73948,192.057528 177.382305,183.133917 L177.382305,154.571222 L114.564758,154.571222 L114.564758,110.310111 L228.058885,110.310111 L228.058885,201.695028 C203.791227,228.829944 169.887881,246.313083 127.055465,246.313083 C57.1075093,246.305944 0,198.118444 0,123.152972 L0,123.152972 Z" id="Shape" fill="#3B3B3B" sketch:type="MSShapeGroup"></path>
                <path d="M256.951673,123.152972 C256.951673,51.4 309.426914,0 381.508996,0 C453.248476,0 505.709442,51.4071389 505.709442,123.152972 C505.709442,194.898806 453.241338,246.298806 381.508996,246.298806 C309.426914,246.305944 256.951673,194.898806 256.951673,123.152972 L256.951673,123.152972 Z M453.612491,123.152972 C453.612491,78.5277778 425.412045,44.975 381.508996,44.975 C337.256208,44.975 309.0629,78.5277778 309.0629,123.152972 C309.0629,167.406944 337.256208,201.330944 381.508996,201.330944 C425.412045,201.330944 453.612491,167.406944 453.612491,123.152972 L453.612491,123.152972 Z" id="Shape" fill="#3B3B3B" sketch:type="MSShapeGroup"></path>
                <path d="M521.040892,208.10575 L548.877323,168.484917 C565.657695,185.968056 591.70974,200.966861 624.542454,200.966861 C652.735762,200.966861 665.947361,188.466667 665.947361,174.552972 C665.947361,133.140278 528.899331,162.059917 528.899331,72.4597222 C528.899331,32.8388889 563.159554,1.98951966e-13 619.189294,1.98951966e-13 C657.025428,1.98951966e-13 688.430632,11.4222222 711.977398,33.1958333 L683.791227,71.0319444 C664.512714,53.1847222 638.817546,44.975 614.549888,44.975 C593.137249,44.975 581.00342,54.2555556 581.00342,68.5333333 C581.00342,106.0125 717.694572,80.6765833 717.694572,169.55575 C717.694572,213.110111 686.289368,245.949 622.40119,245.949 C576.364015,245.941861 543.531301,230.586111 521.040892,208.10575 L521.040892,208.10575 Z" id="Shape" fill="#3B3B3B" sketch:type="MSShapeGroup"></path>
                <path d="M756.579926,245.235111 L756.579926,7.13888889 L867.939926,7.13888889 C919.687138,7.13888889 947.887584,42.1194444 947.887584,83.8819444 C947.887584,125.294639 919.33026,160.282333 867.939926,160.282333 L807.263643,160.282333 L807.263643,245.235111 L756.579926,245.235111 L756.579926,245.235111 Z M896.133234,83.8819444 C896.133234,63.8930556 880.787509,51.7569444 860.802379,51.7569444 L807.263643,51.7569444 L807.263643,115.657139 L860.802379,115.657139 C880.780372,115.657139 896.133234,103.513889 896.133234,83.8819444 L896.133234,83.8819444 Z" id="Shape" fill="#3B3B3B" sketch:type="MSShapeGroup"></path>
                <path d="M977.843866,245.235111 L977.843866,7.13888889 L1146.30424,7.13888889 L1146.30424,51.7569444 L1028.52758,51.7569444 L1028.52758,101.729167 L1143.8061,101.729167 L1143.8061,146.347222 L1028.52758,146.347222 L1028.52758,200.617056 L1146.30424,200.617056 L1146.30424,245.235111 L977.843866,245.235111 L977.843866,245.235111 Z" id="Shape" fill="#3B3B3B" sketch:type="MSShapeGroup"></path>
                <path d="M1184.83271,245.235111 L1184.83271,7.13888889 L1235.86617,7.13888889 L1235.86617,200.617056 L1336.51985,200.617056 L1336.51985,245.235111 L1184.83271,245.235111 L1184.83271,245.235111 Z" id="Shape" fill="#3B3B3B" sketch:type="MSShapeGroup"></path>
                <path d="M7.13754647,415.854556 C7.13754647,342.666667 61.0260223,292.694444 129.546468,292.694444 C171.657993,292.694444 200.921933,312.683333 219.836431,339.811111 L195.219033,353.731944 C181.657695,333.386111 156.676283,319.108333 129.546468,319.108333 C77.4352416,319.108333 37.8218587,358.729167 37.8218587,415.847417 C37.8218587,472.244639 77.4352416,512.5865 129.546468,512.5865 C156.676283,512.5865 181.657695,497.944639 195.219033,477.948611 L220.200446,491.5125 C200.208178,519.004361 171.657993,538.986111 129.546468,538.986111 C61.0260223,539.000389 7.13754647,489.028167 7.13754647,415.854556 L7.13754647,415.854556 Z" id="Shape" fill="#3B3B3B" sketch:type="MSShapeGroup"></path>
                <path d="M271.226766,537.929556 L271.226766,299.833333 L427.189294,299.833333 L427.189294,326.247222 L300.847584,326.247222 L300.847584,402.990278 L424.69829,402.990278 L424.69829,429.404167 L300.847584,429.404167 L300.847584,511.508528 L427.189294,511.508528 L427.189294,537.922417 L271.226766,537.922417 L271.226766,537.929556 Z" id="Shape" fill="#3B3B3B" sketch:type="MSShapeGroup"></path>
                <path d="M639.524164,537.929556 L500.691747,348.020833 L500.691747,537.929556 L471.078067,537.929556 L471.078067,299.833333 L501.412639,299.833333 L638.460669,485.808528 L638.460669,299.833333 L668.081487,299.833333 L668.081487,537.929556 L639.524164,537.929556 L639.524164,537.929556 Z" id="Shape" fill="#3B3B3B" sketch:type="MSShapeGroup"></path>
                <path d="M781.925353,537.929556 L781.925353,326.247222 L706.6171,326.247222 L706.6171,299.833333 L887.218439,299.833333 L887.218439,326.247222 L811.546171,326.247222 L811.546171,537.929556 L781.925353,537.929556 L781.925353,537.929556 Z" id="Shape" fill="#3B3B3B" sketch:type="MSShapeGroup"></path>
                <path d="M935.018587,537.929556 L935.018587,299.833333 L1090.98825,299.833333 L1090.98825,326.247222 L964.646543,326.247222 L964.646543,402.990278 L1088.49011,402.990278 L1088.49011,429.404167 L964.646543,429.404167 L964.646543,511.508528 L1090.98825,511.508528 L1090.98825,537.922417 L935.018587,537.922417 L935.018587,537.929556 Z" id="Shape" fill="#3B3B3B" sketch:type="MSShapeGroup"></path>
                <path d="M1294.03717,537.929556 L1233.72491,443.332139 L1185.90335,443.332139 L1185.90335,537.929556 L1156.28253,537.929556 L1156.28253,299.833333 L1251.92565,299.833333 C1295.47182,299.833333 1326.87703,327.675 1326.87703,371.586306 C1326.87703,414.419639 1297.25621,437.977972 1264.78037,440.833528 L1329.01829,537.929556 L1294.03717,537.929556 L1294.03717,537.929556 Z M1296.18558,371.586306 C1296.18558,344.451389 1276.55732,326.240083 1248.35688,326.240083 L1185.90335,326.240083 L1185.90335,417.275194 L1248.35688,417.275194 C1276.55732,417.282333 1296.18558,398.357139 1296.18558,371.586306 L1296.18558,371.586306 Z" id="Shape" fill="#3B3B3B" sketch:type="MSShapeGroup"></path>
                <g id="Group" transform="translate(663.791822, 649.638889)" fill="#3B3B3B" sketch:type="MSShapeGroup">
                    <path d="M98.6266171,121.075556 L98.6266171,14.9131389 L55.2802974,121.075556 L51.3546468,121.075556 L7.82275093,14.9131389 L7.82275093,121.075556 L-2.34825279,121.075556 L-2.34825279,2.06313889 L12.8190335,2.06313889 L53.3174721,101.093806 L93.6303346,2.06313889 L108.968922,2.06313889 L108.968922,121.075556 L98.6266171,121.075556 L98.6266171,121.075556 Z" id="Shape"></path>
                    <path d="M178.774126,61.6585833 C178.774126,26.8636389 201.607138,0.0999444444 236.581115,0.0999444444 C271.369517,0.0999444444 294.380967,26.8636389 294.380967,61.6585833 C294.380967,96.4535278 271.369517,123.217222 236.581115,123.217222 C201.607138,123.217222 178.774126,96.4535278 178.774126,61.6585833 L178.774126,61.6585833 Z M283.674647,61.6585833 C283.674647,31.5039167 265.117026,9.3805 236.573978,9.3805 C207.852491,9.3805 189.473309,31.5110556 189.473309,61.6585833 C189.473309,91.6347778 207.845353,113.936667 236.573978,113.936667 C265.124164,113.936667 283.674647,91.6347778 283.674647,61.6585833 L283.674647,61.6585833 Z" id="Shape"></path>
                    <path d="M449.258587,121.075556 L374.335762,18.8395278 L374.335762,121.075556 L364.164758,121.075556 L364.164758,2.06313889 L374.514201,2.06313889 L449.080149,102.871389 L449.080149,2.06313889 L459.251152,2.06313889 L459.251152,121.075556 L449.258587,121.075556 L449.258587,121.075556 Z" id="Shape"></path>
                    <path d="M563.830483,121.075556 L563.830483,11.3436944 L524.94513,11.3436944 L524.94513,2.06313889 L613.072416,2.06313889 L613.072416,11.3436944 L574.187063,11.3436944 L574.187063,121.075556 L563.830483,121.075556 L563.830483,121.075556 Z" id="Shape"></path>
                    <path d="M748.500223,121.075556 L715.139331,71.8315 L688.915985,71.8315 L688.915985,121.075556 L678.744981,121.075556 L678.744981,2.06313889 L723.169071,2.06313889 C743.682379,2.06313889 759.384981,15.0844722 759.384981,36.8580833 C759.384981,58.4460833 744.217695,70.3965833 726.380967,71.1176111 L760.805353,121.075556 L748.500223,121.075556 L748.500223,121.075556 Z M748.685799,36.8580833 C748.685799,21.8664167 738.157918,11.3436944 722.284015,11.3436944 L688.923123,11.3436944 L688.923123,62.5509444 L722.284015,62.5509444 C738.157918,62.5509444 748.685799,51.84975 748.685799,36.8580833 L748.685799,36.8580833 Z" id="Shape"></path>
                    <path d="M829.354349,121.075556 L829.354349,2.06313889 L904.812491,2.06313889 L904.812491,11.3436944 L839.525353,11.3436944 L839.525353,55.4191944 L903.570558,55.4191944 L903.570558,64.6926111 L839.525353,64.6926111 L839.525353,111.802139 L904.812491,111.802139 L904.812491,121.082694 L829.354349,121.082694 L829.354349,121.075556 Z" id="Shape"></path>
                    <path d="M974.60342,75.4009444 L974.60342,2.07027778 L984.952862,2.07027778 L984.952862,75.2224722 C984.952862,99.3162222 997.61487,113.943806 1020.99033,113.943806 C1044.35152,113.943806 1057.02781,99.3162222 1057.02781,75.2224722 L1057.02781,2.07027778 L1067.37011,2.07027778 L1067.37011,75.4009444 C1067.37011,104.841722 1051.67465,123.217222 1020.99033,123.217222 C990.484461,123.217222 974.60342,104.656111 974.60342,75.4009444 L974.60342,75.4009444 Z" id="Shape"></path>
                    <path d="M1225.82364,121.075556 L1184.25457,67.3696944 L1142.86394,121.075556 L1130.20193,121.075556 L1178.00922,60.0523333 L1132.87851,2.06313889 L1145.7261,2.06313889 L1184.25457,52.5565 L1222.96862,2.06313889 L1235.81621,2.06313889 L1190.6855,59.8738611 L1238.49279,121.075556 L1225.82364,121.075556 L1225.82364,121.075556 Z" id="Shape"></path>
                </g>
            </g>
        </g>
    </g>
</svg>