<?xml version="1.0" encoding="UTF-8"?>
<svg width="1940px" height="791px" viewBox="0 0 1940 791" version="1.1" xmlns="http://www.w3.org/2000/svg" xmlns:xlink="http://www.w3.org/1999/xlink">
    <!-- Generator: Sketch 41.2 (35397) - http://www.bohemiancoding.com/sketch -->
    <title>LogoGCLacote</title>
    <desc>Created with Sketch.</desc>
    <defs>
        <linearGradient x1="49.9996203%" y1="-14.0711459%" x2="49.9996203%" y2="81.589717%" id="linearGradient-1">
            <stop stop-color="#E42616" offset="0%"></stop>
            <stop stop-color="#D11015" offset="100%"></stop>
        </linearGradient>
        <linearGradient x1="49.9975529%" y1="-21.350347%" x2="49.9975529%" y2="123.500565%" id="linearGradient-2">
            <stop stop-color="#E42616" offset="0%"></stop>
            <stop stop-color="#D11015" offset="100%"></stop>
        </linearGradient>
    </defs>
    <g id="Icon" stroke="none" stroke-width="1" fill="none" fill-rule="evenodd">
        <g id="LogoGCLacote">
            <g id="Group-45" transform="translate(10.000000, 10.000000)" fill="#3B3B3B">
                <path d="M0,122.637202 C0,47.6537617 56.8900186,0.0313531161 126.571581,0.0313531161 C175.633089,0.0313531161 206.570281,24.9050182 224.34619,52.9838328 L182.750563,75.7183627 C171.72239,59.02458 151.464964,44.8110571 126.571581,44.8110571 C83.1912532,44.8110571 51.9056537,77.8574979 51.9056537,122.637202 C51.9056537,167.409799 83.1912532,200.45624 126.571581,200.45624 C147.547154,200.45624 167.100653,191.21745 176.706754,182.333998 L176.706754,153.899846 L114.128445,153.899846 L114.128445,109.837925 L227.190335,109.837925 L227.190335,200.811578 C203.015099,227.824378 169.240873,245.228837 126.571581,245.228837 C56.8900186,245.228837 0,197.258197 0,122.637202" id="Fill-7"></path>
                <path d="M451.876401,122.637202 C451.876401,78.212836 423.783354,44.8110571 380.047508,44.8110571 C335.963255,44.8110571 307.877319,78.212836 307.877319,122.637202 C307.877319,166.692016 335.963255,200.45624 380.047508,200.45624 C423.783354,200.45624 451.876401,166.692016 451.876401,122.637202 M255.964554,122.637202 C255.964554,51.2071424 308.239947,0.0313531161 380.047508,0.0313531161 C451.513772,0.0313531161 503.782054,51.2071424 503.782054,122.637202 C503.782054,194.060155 451.513772,245.228837 380.047508,245.228837 C308.239947,245.228837 255.964554,194.060155 255.964554,122.637202" id="Fill-10"></path>
                <path d="M522.958705,207.564423 L550.689123,168.121897 C567.405587,185.533462 593.358414,200.457661 626.066086,200.457661 C654.152022,200.457661 667.313305,188.013722 667.313305,174.162644 C667.313305,132.936321 530.787215,161.725811 530.787215,72.5288482 C530.787215,33.0792153 564.90985,0.395219303 620.733314,0.395219303 C658.425351,0.395219303 689.71095,11.7589309 713.16804,33.4416601 L685.089214,71.1074959 C665.884122,53.3405922 640.286813,45.1607098 616.111577,45.1607098 C594.780487,45.1607098 582.685758,54.3994997 582.685758,68.6130226 C582.685758,105.930627 718.863441,80.7087306 718.863441,169.187911 C718.863441,212.539156 687.570731,245.230259 623.932977,245.230259 C578.071133,245.230259 545.35635,229.950721 522.958705,207.564423" id="Fill-13"></path>
                <path d="M891.64243,80.3434431 C891.64243,60.444511 876.355149,48.3630165 856.446131,48.3630165 L803.111294,48.3630165 L803.111294,111.975638 L856.446131,111.975638 C876.355149,111.975638 891.64243,99.8870371 891.64243,80.3434431 L891.64243,80.3434431 Z M752.620603,240.970466 L752.620603,3.94575733 L863.556494,3.94575733 C915.10663,3.94575733 943.199676,38.7688885 943.199676,80.3434431 C943.199676,121.569766 914.751112,156.392898 863.556494,156.392898 L803.111294,156.392898 L803.111294,240.970466 L752.620603,240.970466 Z" id="Fill-15"></path>
                <polygon id="Fill-17" points="974.821596 240.967623 974.821596 3.94291463 1142.6404 3.94291463 1142.6404 48.3601738 1025.31229 48.3601738 1025.31229 98.1075041 1140.15177 98.1075041 1140.15177 142.524763 1025.31229 142.524763 1025.31229 196.550364 1142.6404 196.550364 1142.6404 240.967623"></polygon>
                <polygon id="Fill-19" points="1179.95274 240.967623 1179.95274 3.94291463 1230.79184 3.94291463 1230.79184 196.550364 1331.06219 196.550364 1331.06219 240.967623"></polygon>
                <path d="M6.04807521,414.014422 C6.04807521,341.155903 59.7313198,291.408573 127.99081,291.408573 C169.949065,291.408573 199.094445,311.314612 217.944019,338.320306 L193.420375,352.178491 C179.903574,331.92422 155.017301,317.710697 127.99081,317.710697 C76.0851559,317.710697 36.6226384,357.153224 36.6226384,414.014422 C36.6226384,470.157838 76.0851559,510.318147 127.99081,510.318147 C155.017301,510.318147 179.903574,495.742179 193.420375,475.83614 L218.306647,489.346094 C198.390519,516.707125 169.949065,536.606057 127.99081,536.606057 C59.7313198,536.606057 6.04807521,486.858727 6.04807521,414.014422" id="Fill-21"></path>
                <polygon id="Fill-23" points="270.194525 532.344843 270.194525 295.320135 425.563078 295.320135 425.563078 321.615152 299.695423 321.615152 299.695423 398.019945 423.074451 398.019945 423.074451 424.314962 299.695423 424.314962 299.695423 506.049826 425.563078 506.049826 425.563078 532.344843"></polygon>
                <polygon id="Fill-25" points="640.287524 532.344843 501.983844 343.290775 501.983844 532.344843 472.482945 532.344843 472.482945 295.320135 502.70199 295.320135 639.22808 480.458378 639.22808 295.320135 668.736089 295.320135 668.736089 532.344843"></polygon>
                <polygon id="Fill-27" points="782.842492 532.344843 782.842492 321.615152 707.821046 321.615152 707.821046 295.320135 887.734574 295.320135 887.734574 321.615152 812.3505 321.615152 812.3505 532.344843"></polygon>
                <polygon id="Fill-29" points="933.937717 532.344843 933.937717 295.320135 1089.31338 295.320135 1089.31338 321.615152 963.445725 321.615152 963.445725 398.019945 1086.81764 398.019945 1086.81764 424.314962 963.445725 424.314962 963.445725 506.049826 1089.31338 506.049826 1089.31338 532.344843"></polygon>
                <path d="M1296.92889,366.752326 C1296.92889,339.739526 1277.37539,321.610177 1249.28234,321.610177 L1187.06666,321.610177 L1187.06666,412.2356 L1249.28234,412.2356 C1277.37539,412.2356 1296.92889,393.402682 1296.92889,366.752326 L1296.92889,366.752326 Z M1294.78867,532.346975 L1234.70609,438.175279 L1187.06666,438.175279 L1187.06666,532.346975 L1157.55154,532.346975 L1157.55154,295.322267 L1252.83752,295.322267 C1296.21074,295.322267 1327.50345,323.045743 1327.50345,366.752326 C1327.50345,409.392895 1297.98833,432.845208 1265.64329,435.687912 L1329.63656,532.346975 L1294.78867,532.346975 Z" id="Fill-31"></path>
                <polygon id="Fill-33" points="948.707364 766.869393 948.707364 648.392573 959.010281 648.392573 959.010281 757.630603 1016.41225 757.630603 1016.41225 766.869393"></polygon>
                <path d="M1124.49475,659.22683 L1096.42303,728.503541 L1152.40292,728.503541 L1124.49475,659.22683 Z M1167.50534,766.86584 L1155.77324,737.742331 L1093.0385,737.742331 L1081.31351,766.86584 L1069.58141,766.86584 L1118.10253,648.396126 L1130.71632,648.396126 L1179.23033,766.86584 L1167.50534,766.86584 Z" id="Fill-35"></path>
                <path d="M1327.14651,707.718396 C1327.14651,671.310457 1353.63261,646.436792 1387.21486,646.436792 C1406.05732,646.436792 1420.4487,654.787236 1430.3961,667.401738 L1421.87077,672.909478 C1414.40489,662.597567 1401.43559,655.675582 1387.21486,655.675582 C1359.49155,655.675582 1337.81205,676.81109 1337.81205,707.718396 C1337.81205,738.270363 1359.49155,759.76121 1387.21486,759.76121 C1401.43559,759.76121 1414.40489,752.839224 1421.87077,742.53442 L1430.58097,747.857385 C1419.91542,760.834331 1406.05732,769 1387.21486,769 C1353.63261,769 1327.14651,744.133442 1327.14651,707.718396" id="Fill-37"></path>
                <path d="M1563.90668,637.559736 L1548.62651,617.490242 L1533.70186,637.559736 L1526.59149,637.559736 L1543.82701,611.975395 L1553.4189,611.975395 L1571.01705,637.559736 L1563.90668,637.559736 Z M1595.37004,707.717685 C1595.37004,677.698725 1576.88309,655.674871 1548.44875,655.674871 C1519.83665,655.674871 1501.53457,677.698725 1501.53457,707.717685 C1501.53457,737.558977 1519.83665,759.760499 1548.44875,759.760499 C1576.88309,759.760499 1595.37004,737.558977 1595.37004,707.717685 L1595.37004,707.717685 Z M1490.86903,707.717685 C1490.86903,673.07933 1513.61508,646.436081 1548.44875,646.436081 C1583.10466,646.436081 1606.02848,673.07933 1606.02848,707.717685 C1606.02848,742.356041 1583.10466,768.999289 1548.44875,768.999289 C1513.61508,768.999289 1490.86903,742.356041 1490.86903,707.717685 L1490.86903,707.717685 Z" id="Fill-39"></path>
                <polygon id="Fill-41" points="1700.61409 766.869393 1700.61409 657.631362 1661.87683 657.631362 1661.87683 648.392573 1749.66137 648.392573 1749.66137 657.631362 1710.92411 657.631362 1710.92411 766.869393"></polygon>
                <polygon id="Fill-43" points="1815.0952 766.869393 1815.0952 648.392573 1890.26597 648.392573 1890.26597 657.631362 1825.22747 657.631362 1825.22747 701.508508 1889.02165 701.508508 1889.02165 710.740191 1825.22747 710.740191 1825.22747 757.630603 1890.26597 757.630603 1890.26597 766.869393"></polygon>
            </g>
            <g id="Group" transform="translate(1437.509294, 24.277778)">
                <path d="M315.736506,384.607639 C292.432416,385.592806 269.142602,383.151306 246.245353,377.254583 C216.574572,369.601694 189.166394,356.187722 164.777398,337.391028 C139.660372,318.023222 119.411152,294.557694 104.593606,267.644083 C89.8331599,240.801861 80.3473606,212.210611 76.3574721,182.669889 C72.3747212,153.100611 74.1162825,123.03875 81.5464684,93.3052778 C89.012342,63.5218333 102.60223,35.6801667 121.944981,10.5655556 C124.7429,6.92472222 127.669294,3.43380556 130.652788,0.00713888889 C100.903494,15.9197222 73.9378439,38.1859167 52.0113011,66.6486667 C-30.8841636,174.224583 -10.8990335,328.667306 96.6709294,411.556944 C159.424238,459.937194 238.122825,473.222667 309.269888,454.56875 L279.492045,431.624361 L315.736506,384.607639 L315.736506,384.607639 Z" id="Shape" fill="url(#linearGradient-1)"></path>
                <path d="M400.609071,28.8839444 C383.143494,17.1261944 365.428104,9.68033333 345.792714,4.883 C326.107361,0.06425 306.229294,-1.08511111 286.700967,1.42777778 C267.222602,3.95494444 248.272416,10.1515 230.414275,19.8175556 C212.656059,29.4550556 197.267509,42.6048889 184.705428,58.9315278 C171.872119,75.6008333 162.928773,93.9834722 158.13948,113.608278 C153.335911,133.361583 152.158216,153.257667 154.70632,172.732556 C157.233011,192.221722 163.471227,211.06125 173.278216,228.722861 C183.042379,246.327361 196.439554,261.768778 213.134275,274.625917 C229.786171,287.468778 247.936952,296.363833 267.101264,301.054083 C286.344089,305.772889 306.00803,306.900833 325.500669,304.35225 C328.855316,303.916778 332.2171,303.317111 335.59316,302.638917 L262.426171,246.241694 L315.63658,177.180083 L477.508996,301.960722 C506.308996,223.982639 493.539926,135.838778 443.405799,69.1258611 C432.014275,54.4483056 416.511524,39.6136944 400.609071,28.8839444 L400.609071,28.8839444 Z" id="Shape" fill="url(#linearGradient-2)"></path>
            </g>
        </g>
    </g>
</svg>