<?xml version="1.0" encoding="iso-8859-1"?>
<!-- Generator: Adobe Illustrator 16.0.4, SVG Export Plug-In . SVG Version: 6.00 Build 0)  -->
<!DOCTYPE svg PUBLIC "-//W3C//DTD SVG 1.1//EN" "http://www.w3.org/Graphics/SVG/1.1/DTD/svg11.dtd">
<svg version="1.1" id="Calque_1" xmlns="http://www.w3.org/2000/svg" xmlns:xlink="http://www.w3.org/1999/xlink" x="0px" y="0px"
	 width="1920px" height="642px" viewBox="0 0 1920 642" style="enable-background:new 0 0 1920 642;" xml:space="preserve">
<g>
	<defs>
		<path id="SVGID_1_" d="M1439.714,148.829c-76.694,99.512-58.198,242.363,41.317,319.039
			c58.058,44.754,130.869,57.046,196.691,39.789l-27.555-21.217l33.539-43.502c-21.558,0.915-43.116-1.342-64.293-6.797
			c-27.453-7.081-52.815-19.502-75.379-36.874c-23.222-17.914-41.969-39.622-55.672-64.513
			c-13.664-24.835-22.441-51.273-26.117-78.606c-3.688-27.345-2.084-55.159,4.791-82.656c6.913-27.555,19.476-53.302,37.377-76.54
			c2.587-3.363,5.302-6.597,8.054-9.766C1484.945,101.911,1459.995,122.499,1439.714,148.829"/>
	</defs>
	<clipPath id="SVGID_2_">
		<use xlink:href="#SVGID_1_"  style="overflow:visible;"/>
	</clipPath>
	
		<linearGradient id="SVGID_3_" gradientUnits="userSpaceOnUse" x1="536.9712" y1="626.2568" x2="543.5739" y2="626.2568" gradientTransform="matrix(0 61.9958 61.9958 0 -37301.9375 -33262.9102)">
		<stop  offset="0" style="stop-color:#C5352A"/>
		<stop  offset="1" style="stop-color:#B52025"/>
	</linearGradient>
	<rect x="1363.02" y="87.185" style="clip-path:url(#SVGID_2_);fill:url(#SVGID_3_);" width="320.688" height="437.728"/>
</g>
<g>
	<defs>
		<path id="SVGID_4_" d="M1656.836,88.49c-18.018,2.338-35.546,8.065-52.066,17.019c-16.432,8.909-30.664,21.078-42.297,36.18
			c-11.866,15.42-20.14,32.425-24.571,50.585c-4.441,18.262-5.533,36.667-3.185,54.687c2.348,18.021,8.112,35.456,17.186,51.787
			c9.034,16.284,21.43,30.577,36.873,42.455c15.407,11.88,32.198,20.107,49.921,24.454c17.816,4.359,36.002,5.403,54.032,3.043
			c3.102-0.398,6.216-0.941,9.339-1.586l-67.693-52.17l49.237-63.874l149.75,115.412c26.646-72.126,14.833-153.654-31.554-215.371
			c-10.518-13.567-24.865-27.284-39.581-37.208c-16.154-10.881-32.54-17.769-50.712-22.206c-11.963-2.928-24.028-4.391-36.017-4.391
			C1669.248,87.305,1663.032,87.694,1656.836,88.49"/>
	</defs>
	<clipPath id="SVGID_5_">
		<use xlink:href="#SVGID_4_"  style="overflow:visible;"/>
	</clipPath>
	
		<linearGradient id="SVGID_6_" gradientUnits="userSpaceOnUse" x1="536.9731" y1="628.6133" x2="543.5739" y2="628.6133" gradientTransform="matrix(0 61.9958 61.9958 0 -37275.1875 -33262.9102)">
		<stop  offset="0" style="stop-color:#C5352A"/>
		<stop  offset="1" style="stop-color:#B52025"/>
	</linearGradient>
	<rect x="1532.368" y="87.305" style="clip-path:url(#SVGID_5_);fill:url(#SVGID_6_);" width="327.64" height="283.755"/>
</g>
<path style="fill:#4B4946;" d="M72.627,185.638c0-69.675,52.834-113.923,117.547-113.923c45.567,0,74.296,23.112,90.804,49.201
	l-38.627,21.125c-10.244-15.511-29.058-28.719-52.177-28.719c-40.288,0-69.343,30.705-69.343,72.316
	c0,41.6,29.055,72.306,69.343,72.306c19.482,0,37.641-8.583,46.563-16.837v-26.422h-58.119v-40.941h105.004v84.532
	c-22.454,25.099-53.821,41.271-93.448,41.271C125.461,299.547,72.627,254.973,72.627,185.638"/>
<path style="fill:#4B4946;" d="M492.292,185.638c0-41.278-26.092-72.316-66.708-72.316c-40.942,0-67.023,31.038-67.023,72.316
	c0,40.933,26.082,72.306,67.023,72.306C466.2,257.944,492.292,226.571,492.292,185.638 M310.345,185.638
	c0-66.374,48.55-113.923,115.238-113.923c66.37,0,114.914,47.55,114.914,113.923c0,66.364-48.543,113.909-114.914,113.909
	C358.895,299.547,310.345,252.001,310.345,185.638"/>
<path style="fill:#4B4946;" d="M558.303,264.551l25.753-36.652c15.525,16.172,39.627,30.048,70.004,30.048
	c26.085,0,38.308-11.563,38.308-24.434c0-38.306-126.793-11.557-126.793-94.436c0-36.657,31.689-67.024,83.532-67.024
	c35.008,0,64.062,10.557,85.845,30.706l-26.075,34.998c-17.837-16.509-41.61-24.109-64.061-24.109
	c-19.81,0-31.045,8.584-31.045,21.791c0,34.674,126.472,11.235,126.472,93.455c0,40.279-29.064,70.655-88.163,70.655
	C609.487,299.547,579.104,285.343,558.303,264.551"/>
<path style="fill:#4B4946;" d="M900.707,146.335c0-18.485-14.206-29.715-32.689-29.715h-49.531v59.112h49.531
	C886.501,175.732,900.707,164.496,900.707,146.335 M771.594,295.587V75.349h103.027c47.875,0,73.967,32.362,73.967,70.987
	c0,38.306-26.42,70.668-73.967,70.668h-56.135v78.583H771.594z"/>
<polygon style="fill:#4B4946;" points="977.957,295.587 977.957,75.349 1133.809,75.349 1133.809,116.62 1024.844,116.62 
	1024.844,162.845 1131.5,162.845 1131.5,204.116 1024.844,204.116 1024.844,254.315 1133.809,254.315 1133.809,295.587 "/>
<polygon style="fill:#4B4946;" points="1168.463,295.587 1168.463,75.349 1215.673,75.349 1215.673,254.315 1308.8,254.315 
	1308.8,295.587 "/>
<path style="fill:#4B4946;" d="M78.244,456.376c0-67.698,49.855-113.922,113.25-113.922c38.966,0,66.034,18.495,83.539,43.592
	l-22.774,12.873c-12.552-18.818-35.664-32.024-60.765-32.024c-48.204,0-84.855,36.653-84.855,89.481
	c0,52.17,36.651,89.481,84.855,89.481c25.101,0,48.213-13.542,60.765-32.037l23.112,12.55
	c-18.498,25.434-44.912,43.915-83.877,43.915C128.099,570.285,78.244,524.061,78.244,456.376"/>
<polygon style="fill:#4B4946;" points="323.559,566.327 323.559,346.091 467.851,346.091 467.851,370.518 350.956,370.518 
	350.956,441.518 465.54,441.518 465.54,465.945 350.956,465.945 350.956,541.898 467.851,541.898 467.851,566.327 "/>
<polygon style="fill:#4B4946;" points="667.268,566.327 538.822,390.664 538.822,566.327 511.424,566.327 511.424,346.091 
	539.49,346.091 666.283,518.115 666.283,346.091 693.688,346.091 693.688,566.327 "/>
<polygon style="fill:#4B4946;" points="799.66,566.327 799.66,370.518 729.988,370.518 729.988,346.091 897.076,346.091 
	897.076,370.518 827.066,370.518 827.066,566.327 "/>
<polygon style="fill:#4B4946;" points="939.982,566.327 939.982,346.091 1084.282,346.091 1084.282,370.518 967.387,370.518 
	967.387,441.518 1081.967,441.518 1081.967,465.945 967.387,465.945 967.387,541.898 1084.282,541.898 1084.282,566.327 "/>
<path style="fill:#4B4946;" d="M1277.098,412.461c0-25.099-18.158-41.943-44.257-41.943h-57.781v84.208h57.781
	C1258.939,454.726,1277.098,437.224,1277.098,412.461 M1275.111,566.327l-55.8-87.498h-44.252v87.498h-27.399V346.091h88.482
	c40.29,0,69.349,25.755,69.349,66.37c0,39.62-27.407,61.418-57.451,64.048l59.431,89.818H1275.111z"/>
<g>
</g>
<g>
</g>
<g>
</g>
<g>
</g>
<g>
</g>
<g>
</g>
<g>
</g>
<g>
</g>
<g>
</g>
<g>
</g>
<g>
</g>
<g>
</g>
<g>
</g>
<g>
</g>
<g>
</g>
</svg>
