<?xml version="1.0" encoding="UTF-8" standalone="no"?>
<svg width="140px" height="52px" viewBox="0 0 140 52" version="1.1" xmlns="http://www.w3.org/2000/svg" xmlns:xlink="http://www.w3.org/1999/xlink" xmlns:sketch="http://www.bohemiancoding.com/sketch/ns">
    <!-- Generator: Sketch 3.1 (8751) - http://www.bohemiancoding.com/sketch -->
    <title>logoTV_mini</title>
    <desc>Created with Sketch.</desc>
    <defs>
        <linearGradient x1="49.9974635%" y1="-14.0727045%" x2="49.9974635%" y2="81.5878324%" id="linearGradient-1">
            <stop stop-color="#E42616" offset="0%"></stop>
            <stop stop-color="#D11015" offset="100%"></stop>
        </linearGradient>
        <linearGradient x1="49.9991094%" y1="-21.3519825%" x2="49.9991094%" y2="123.498929%" id="linearGradient-2">
            <stop stop-color="#E42616" offset="0%"></stop>
            <stop stop-color="#D11015" offset="100%"></stop>
        </linearGradient>
    </defs>
    <g id="Logo" stroke="none" stroke-width="1" fill="none" fill-rule="evenodd" sketch:type="MSPage">
        <g id="logoTV_mini" sketch:type="MSArtboardGroup">
            <g id="Group-+-GC-2-+-TV-2" sketch:type="MSLayerGroup" transform="translate(5.000000, 1.000000)">
                <g id="Group" transform="translate(39.000000, -0.377451)" sketch:type="MSShapeGroup">
                    <path d="M34.5811304,41.6869231 C32.025913,41.7930769 29.4722609,41.53 26.9616522,40.8946154 C23.7083478,40.0692308 20.7031304,38.6238462 18.0289565,36.5992308 C15.2757391,34.5123077 13.0546957,31.9838462 11.4307826,29.0838462 C9.81156522,26.1923077 8.77147826,23.1115385 8.334,19.9276923 C7.89730435,16.7423077 8.08826087,13.5030769 8.90295652,10.2992308 C9.72156522,7.08923077 11.2116522,4.09 13.3325217,1.38384615 C13.640087,0.992307692 13.9601739,0.615384615 14.2873043,0.246153846 C11.0253913,1.96153846 8.06869565,4.36 5.66452174,7.42692308 C-3.42469565,19.0192308 -1.2326087,35.66 10.5613043,44.5923077 C17.4427826,49.8053846 26.0710435,51.2369231 33.872087,49.2261538 L30.6070435,46.7538462 L34.5811304,41.6869231 L34.5811304,41.6869231 Z" id="Shape" fill="url(#linearGradient-1)"></path>
                    <path d="M43.8863478,3.35769231 C41.972087,2.09 40.0288696,1.28769231 37.8766957,0.771538462 C35.7182609,0.252307692 33.537913,0.128461538 31.3966957,0.399230769 C29.2609565,0.671538462 27.1831304,1.33846154 25.2250435,2.38076923 C23.2786957,3.41923077 21.5906087,4.83615385 20.2132174,6.59538462 C18.806087,8.39076923 17.8254783,10.3723077 17.3003478,12.4869231 C16.7744348,14.6146154 16.6453043,16.7584615 16.923913,18.8576923 C17.2009565,20.9576923 17.8857391,22.9884615 18.9602609,24.8907692 C20.0308696,26.7876923 21.5006087,28.4515385 23.3303478,29.8369231 C25.1561739,31.2207692 27.1463478,32.1784615 29.2476522,32.6846154 C31.3583478,33.1930769 33.5136522,33.3146154 35.6509565,33.04 C36.0195652,32.9930769 36.3881739,32.9284615 36.7575652,32.8553846 L28.7350435,26.7776923 L34.5701739,19.3361538 L52.3181739,32.7815385 C55.476,24.3792308 54.075913,14.8823077 48.5796522,7.69307692 C47.3313913,6.11153846 45.6307826,4.51384615 43.8863478,3.35769231 L43.8863478,3.35769231 Z" id="Shape" fill="url(#linearGradient-2)"></path>
                </g>
                <path d="M8.76200001,15.796 C3.67900001,15.796 0.091000006,19.545 0.091000006,24.536 C0.091000006,29.55 3.77100001,33.299 8.99200001,33.299 C11.522,33.299 13.661,32.517 15.294,30.976 L15.294,23.501 L8.14100001,23.501 L8.14100001,26.514 L11.798,26.514 L11.798,29.251 C11.016,29.757 10.096,30.102 8.99200001,30.102 C5.74900001,30.102 3.63300001,27.756 3.63300001,24.536 C3.63300001,21.316 5.65700001,18.993 8.76200001,18.993 C10.487,18.993 11.775,19.821 12.672,20.879 L14.88,18.326 C13.247,16.647 11.43,15.796 8.76200001,15.796 L8.76200001,15.796 Z M26.339,15.796 C21.256,15.796 17.668,19.545 17.668,24.536 C17.668,29.55 21.256,33.299 26.339,33.299 C28.8,33.299 30.801,32.563 32.48,30.723 L30.295,28.17 C29.398,29.251 28.087,30.102 26.339,30.102 C23.234,30.102 21.21,27.756 21.21,24.536 C21.21,21.316 23.234,18.993 26.339,18.993 C28.064,18.993 29.352,19.821 30.249,20.879 L32.457,18.326 C30.824,16.647 29.007,15.796 26.339,15.796 L26.339,15.796 Z" id="GC-2" fill="#363331" sketch:type="MSShapeGroup"></path>
                <path d="M112.146,17.313 L99.336,17.313 L99.336,18.762 L104.943,18.762 L104.943,32.748 L106.539,32.748 L106.539,18.762 L112.146,18.762 L112.146,17.313 Z M130.99304,17.313 L129.27104,17.313 L123.76904,29.493 L118.24604,17.313 L116.52404,17.313 L123.72704,33 L123.81104,33 L130.99304,17.313 Z" id="TV-2" fill="#3B3B3B" sketch:type="MSShapeGroup"></path>
            </g>
        </g>
    </g>
</svg>