<?xml version="1.0" encoding="utf-8"?>
<!-- Generator: Adobe Illustrator 16.0.4, SVG Export Plug-In . SVG Version: 6.00 Build 0)  -->
<!DOCTYPE svg PUBLIC "-//W3C//DTD SVG 1.1//EN" "http://www.w3.org/Graphics/SVG/1.1/DTD/svg11.dtd">
<svg version="1.1" id="Your_Icon" xmlns="http://www.w3.org/2000/svg" xmlns:xlink="http://www.w3.org/1999/xlink" x="0px" y="0px"
	 width="80px" height="80px" viewBox="10 10 80 80" enable-background="new 10 10 80 80" xml:space="preserve">
<path fill="#363331" d="M10.759,85.57v-7.219c0,0,0.461-4.43,5.694-5.807c0,0,8.428-3.137,15.029-6.066
	c3.415-1.514,4.148-2.422,7.592-3.975c0,0,0.359-1.803,0.23-2.877h2.694c0,0,0.614,0.367,0-3.871c0,0-3.283-0.887-3.437-7.635
	c0,0-2.464,0.847-2.616-3.242c-0.103-2.773-2.206-5.179,0.821-7.166l-1.538-4.236c0,0-3.078-17.103,5.77-14.592
	c-3.732-4.55,21.159-9.1,22.776,5.335c0,0,1.152,7.793,0,13.127c0,0,3.634-0.429,1.205,6.695c0,0-1.334,5.125-3.387,3.975
	c0,0,0.335,6.484-2.897,7.585c0,0,0.23,3.451,0.23,3.686l3.08,0.471c0,0-0.464,2.826,0.076,3.137c0,0,3.649,2.551,8.001,3.689
	c8.387,2.193,18.312,5.961,18.312,9.256c0,0,0.848,4.395,0.848,9.729H10.759z"/>
</svg>
