<?xml version="1.0" encoding="UTF-8" standalone="no"?>
<svg width="24px" height="32px" viewBox="0 0 24 32" version="1.1" xmlns="http://www.w3.org/2000/svg" xmlns:xlink="http://www.w3.org/1999/xlink" xmlns:sketch="http://www.bohemiancoding.com/sketch/ns">
    <!-- Generator: Sketch 3.0.4 (8054) - http://www.bohemiancoding.com/sketch -->
    <title>search</title>
    <desc>Created with Sketch.</desc>
    <defs></defs>
    <g id="Icon" stroke="none" stroke-width="1" fill="none" fill-rule="evenodd" sketch:type="MSPage">
        <g id="search" sketch:type="MSArtboardGroup" fill="#878787">
            <path d="M20.88729,23.14207 L15.56884,17.82345 C16.25955,16.79376 16.63066,15.58302 16.63066,14.31533 C16.63066,12.62842 15.97378,11.04249 14.78089,9.8496 C13.588,8.65688 12.00224,8 10.31533,8 C8.62842,8 7.04249,8.65688 5.8496,9.8496 C4.65688,11.04249 4,12.62842 4,14.31533 C4,16.00224 4.65688,17.588 5.84977,18.78089 C7.04266,19.97378 8.62842,20.63066 10.3155,20.63066 C11.59747,20.63066 12.82079,20.25088 13.85796,19.54521 L19.17131,24.85822 C19.35066,25.03774 19.68046,24.99864 19.90775,24.77135 L20.80059,23.87851 C21.02788,23.65122 21.06681,23.32142 20.88729,23.14207 L20.88729,23.14207 Z M10.31533,18.91978 C7.77621,18.91978 5.71071,16.85428 5.71071,14.31533 C5.71071,11.77638 7.77638,9.71071 10.31533,9.71071 C12.85428,9.71071 14.91978,11.77638 14.91978,14.31533 C14.91978,16.85428 12.85428,18.91978 10.31533,18.91978 L10.31533,18.91978 Z" id="Shape-2" sketch:type="MSShapeGroup"></path>
        </g>
    </g>
</svg>