<?xml version="1.0" encoding="utf-8"?>
<!-- Generator: Adobe Illustrator 16.0.4, SVG Export Plug-In . SVG Version: 6.00 Build 0)  -->
<!DOCTYPE svg PUBLIC "-//W3C//DTD SVG 1.1//EN" "http://www.w3.org/Graphics/SVG/1.1/DTD/svg11.dtd">
<svg version="1.1" id="Your_Icon" xmlns="http://www.w3.org/2000/svg" xmlns:xlink="http://www.w3.org/1999/xlink" x="0px" y="0px"
	 width="80px" height="80px" viewBox="10 10 80 80" enable-background="new 10 10 80 80" xml:space="preserve">
<path fill="#363331" d="M72.383,46.989h-2.469V29.993c0-10.981-8.933-19.915-19.915-19.915c-10.98,0-19.913,8.934-19.913,19.915
	v16.996h9.621V29.993c0-5.677,4.617-10.295,10.292-10.295c5.677,0,10.294,4.617,10.294,10.295v16.996H27.619
	c-3.447,0-6.241,2.793-6.241,6.241v30.45c0,3.448,2.794,6.24,6.241,6.24h44.764c3.446,0,6.239-2.792,6.239-6.24V53.23
	C78.622,49.783,75.829,46.989,72.383,46.989z M54.656,68.345c0,2.572-2.084,4.657-4.656,4.657c-2.57,0-4.655-2.085-4.655-4.657
	v-5.676c0-2.573,2.084-4.657,4.655-4.657c2.572,0,4.656,2.084,4.656,4.657V68.345z"/>
</svg>
