<?xml version="1.0" encoding="UTF-8" standalone="no"?>
<svg width="250px" height="32px" viewBox="0 0 250 32" version="1.1" xmlns="http://www.w3.org/2000/svg" xmlns:xlink="http://www.w3.org/1999/xlink" xmlns:sketch="http://www.bohemiancoding.com/sketch/ns">
    <!-- Generator: Sketch 3.1 (8751) - http://www.bohemiancoding.com/sketch -->
    <title>television_mobile</title>
    <desc>Created with Sketch.</desc>
    <defs></defs>
    <g id="Logo" stroke="none" stroke-width="1" fill="none" fill-rule="evenodd" sketch:type="MSPage">
        <g id="television_mobile" sketch:type="MSArtboardGroup" fill="#FDFDFC">
            <g id="TELEVISION_mobile-2" sketch:type="MSLayerGroup" transform="translate(5.000000, 5.000000)">
                <path d="M17.4666244,0.226984608 L0.143034985,0.226984608 L0.143034985,2.2519585 L7.72565526,2.2519585 L7.72565526,21.7973587 L9.8840041,21.7973587 L9.8840041,2.2519585 L17.4666244,2.2519585 L17.4666244,0.226984608 Z M42.1911486,0.226984608 L29.5818475,0.226984608 L29.5818475,21.7973587 L42.4183433,21.7973587 L42.4183433,19.7136899 L31.711797,19.7136899 L31.711797,11.8779214 L40.9699776,11.8779214 L40.9699776,9.85294746 L31.711797,9.85294746 L31.711797,2.3106534 L42.1911486,2.3106534 L42.1911486,0.226984608 Z M57.0611065,0.226984608 L54.931157,0.226984608 L54.931157,21.7973587 L67.5404581,21.7973587 L67.5404581,19.7723848 L57.0611065,19.7723848 L57.0611065,0.226984608 Z M92.151385,0.226984608 L79.5420839,0.226984608 L79.5420839,21.7973587 L92.3785797,21.7973587 L92.3785797,19.7136899 L81.6720334,19.7136899 L81.6720334,11.8779214 L90.930214,11.8779214 L90.930214,9.85294746 L81.6720334,9.85294746 L81.6720334,2.3106534 L92.151385,2.3106534 L92.151385,0.226984608 Z M122.32858,0.226984608 L119.999835,0.226984608 L112.559212,17.2485043 L105.090189,0.226984608 L102.761444,0.226984608 L112.502413,22.1495281 L112.61601,22.1495281 L122.32858,0.226984608 Z M136.460155,0.226984608 L134.330206,0.226984608 L134.330206,21.7973587 L136.460155,21.7973587 L136.460155,0.226984608 Z M156.044402,-0.154532213 C152.096895,-0.154532213 149.455758,2.13456871 149.455758,5.89104202 C149.455758,9.14860872 151.216516,10.7627183 156.129599,11.8779214 C159.849911,12.6996499 161.468673,13.7855055 161.468673,15.986564 C161.468673,18.6865292 159.310324,20.0952067 156.470391,20.0952067 C154.141647,20.0952067 151.756103,19.1560884 150.250939,17.6300211 L149.001368,19.4789103 C150.904123,21.1810623 153.346465,22.1788755 156.413593,22.1788755 C160.815488,22.1788755 163.598622,19.5963001 163.598622,15.8398268 C163.598622,12.5235652 161.639069,10.8507607 156.725985,9.73555767 C153.005674,8.88448169 151.614107,8.0921006 151.614107,5.83234712 C151.614107,3.13238193 153.516861,1.92913658 156.016002,1.92913658 C158.174351,1.92913658 160.020307,2.78021256 161.411874,3.95411047 L162.547847,2.13456871 C160.957485,0.813933562 158.770737,-0.154532213 156.044402,-0.154532213 Z M178.269785,0.226984608 L176.139835,0.226984608 L176.139835,21.7973587 L178.269785,21.7973587 L178.269785,0.226984608 Z M201.318749,-0.154532213 C195.269692,-0.154532213 190.924595,4.59975432 190.924595,11.0268454 C190.924595,17.4832839 195.269692,22.1788755 201.318749,22.1788755 C207.311007,22.1788755 211.741302,17.4832839 211.741302,11.0268454 C211.741302,4.59975432 207.311007,-0.154532213 201.318749,-0.154532213 Z M201.318749,1.92913658 C206.118235,1.92913658 209.554554,5.77365223 209.554554,11.0268454 C209.554554,16.2800385 206.118235,20.0952067 201.318749,20.0952067 C196.519263,20.0952067 193.082944,16.2800385 193.082944,11.0268454 C193.082944,5.77365223 196.519263,1.92913658 201.318749,1.92913658 Z M240.044141,0.226984608 L237.885793,0.226984608 L237.885793,16.5148181 L224.48131,-0.154532213 L224.367713,-0.154532213 L224.367713,21.7973587 L226.497662,21.7973587 L226.497662,5.48017775 L239.930544,22.1788755 L240.044141,22.1788755 L240.044141,0.226984608 Z" id="TELEVISION-2" sketch:type="MSShapeGroup"></path>
            </g>
        </g>
    </g>
</svg>