<?xml version="1.0" encoding="UTF-8" standalone="no"?>
<svg width="24px" height="24px" viewBox="0 0 24 24" version="1.1" xmlns="http://www.w3.org/2000/svg" xmlns:xlink="http://www.w3.org/1999/xlink" xmlns:sketch="http://www.bohemiancoding.com/sketch/ns">
    <!-- Generator: Sketch 3.0.4 (8054) - http://www.bohemiancoding.com/sketch -->
    <title>twitter</title>
    <desc>Created with Sketch.</desc>
    <defs></defs>
    <g id="Icon" stroke="none" stroke-width="1" fill="none" fill-rule="evenodd" sketch:type="MSPage">
        <g id="twitter" sketch:type="MSArtboardGroup">
            <g id="Twitter-2" sketch:type="MSLayerGroup" transform="translate(2.000000, 2.000000)">
                <circle id="Oval-227" stroke="#878787" sketch:type="MSShapeGroup" cx="10" cy="10" r="10"></circle>
                <path d="M14.9025287,6.59602871 C14.9162069,6.58022624 14.9283218,6.55928797 14.9474713,6.55533735 C14.9474713,6.55533735 14.9443448,6.56165834 14.9154253,6.61617686 C14.9298851,6.64067068 14.9443448,6.66476945 14.958023,6.68965834 C15.4707586,6.79000402 15.8510115,6.91958427 15.8510115,7.00373241 C15.8510115,7.07010278 15.6184828,7.19889291 15.2730115,7.33716451 C15.4187816,7.69351019 15.5383678,8.07909044 15.6223908,8.48797933 C15.8826667,9.75217686 15.7513563,10.9527695 15.3374943,11.7978065 C14.6375632,14.1326213 12.494,15.8337571 9.95455172,15.8337571 C7.56868966,15.8337571 5.53455172,14.329362 4.71698851,12.2102509 C5.65062069,12.908325 6.80154023,13.3247201 8.05172414,13.3247201 C8.74891954,13.3247201 9.41367816,13.1903991 10.029977,12.9549423 C9.35974713,13.0027448 8.66958621,12.9134608 7.99974713,12.6562756 C5.74285057,11.7918806 5.32273563,9.0631892 5.32273563,9.0631892 C5.15468966,7.97202871 5.39698851,7.8977571 5.86087356,8.89726328 C5.86087356,8.89726328 6.41073563,10.0808682 8.02514943,10.6991398 C8.06774713,10.7157324 8.11151724,10.7263991 8.15489655,10.7402262 C8.12754023,10.7271892 8.09901149,10.7157324 8.07165517,10.7007201 C5.94255172,9.55346081 5.87025287,6.79158427 5.87025287,6.79158427 C5.84133333,5.68817686 6.09105747,5.64551019 6.4251954,6.69597933 C6.4251954,6.69597933 6.82108046,7.94121389 8.34404598,8.76215217 C9.10885057,9.17499167 9.93383908,9.35237439 10.7424138,9.3274855 C10.3652874,7.20560896 11.0777241,5.30101636 12.3806667,5.0260534 C12.9668736,4.90279414 13.5745747,5.13074476 14.1103678,5.60916451 C14.2651264,5.58941143 14.4370805,5.59020155 14.6191954,5.61746081 C15.2956782,5.72017686 15.8498391,5.88847315 15.8498391,5.99079414 C15.8498391,6.08244846 15.4078391,6.2926213 14.8321839,6.48304106 C14.8568046,6.52254723 14.8794713,6.55770772 14.9025287,6.59602871 L14.9025287,6.59602871 Z" id="Path" fill="#878787" sketch:type="MSShapeGroup"></path>
            </g>
        </g>
    </g>
</svg>