<?xml version="1.0" encoding="UTF-8" standalone="no"?>
<svg width="60px" height="40px" viewBox="0 0 60 40" version="1.1" xmlns="http://www.w3.org/2000/svg" xmlns:xlink="http://www.w3.org/1999/xlink" xmlns:sketch="http://www.bohemiancoding.com/sketch/ns">
    <!-- Generator: Sketch 3.0.4 (8054) - http://www.bohemiancoding.com/sketch -->
    <title>where</title>
    <desc>Created with Sketch.</desc>
    <defs></defs>
    <g id="Icon" stroke="none" stroke-width="1" fill="none" fill-rule="evenodd" sketch:type="MSPage">
        <g id="where" sketch:type="MSArtboardGroup" fill="#363331">
            <g id="Where-2" sketch:type="MSLayerGroup" transform="translate(19.000000, 2.000000)">
                <path d="M36.952766,18.5 C36.952766,28.6911383 28.6911383,36.952766 18.5,36.952766 C14.3237234,36.952766 10.4725745,35.5636915 7.37992553,33.2244255 L10.0970638,31.7979574 C12.5304043,33.3413298 15.4108936,34.2387766 18.5,34.2387766 C27.1784681,34.2387766 34.2387766,27.1780745 34.2387766,18.5 C34.2387766,15.4116809 33.3413298,12.5311915 31.7983511,10.0970638 L33.2244255,7.38031915 C35.5636915,10.4725745 36.952766,14.3237234 36.952766,18.5 L36.952766,18.5 Z M5.2008617,26.9021489 C3.6582766,24.4688085 2.76082979,21.5879255 2.76082979,18.5 C2.76082979,9.8211383 9.8211383,2.76082979 18.5,2.76082979 C21.5879255,2.76082979 24.4688085,3.65867021 26.9029362,5.2008617 L29.6196809,3.77518085 C26.5278191,1.43591489 22.6762766,0.0472340426 18.5,0.0472340426 C8.30807447,0.0472340426 0.0472340426,8.30846809 0.0472340426,18.5 C0.0472340426,22.6762766 1.43591489,26.5278191 3.77518085,29.6196809 L5.2008617,26.9021489 L5.2008617,26.9021489 Z M18.3638085,10.9083085 C18.4094681,10.9079149 18.4539468,10.901617 18.5,10.901617 C22.689266,10.901617 26.098383,14.3095532 26.098383,18.5 C26.098383,18.5456596 26.0916915,18.5901383 26.0909043,18.6361915 L31.1044043,9.08389362 L32.4797021,6.46358511 L34.6260957,2.37390426 L30.5360213,4.51990426 L27.9157128,5.89520213 L18.3638085,10.9083085 L18.3638085,10.9083085 Z M18.6357979,26.0905106 C18.5901383,26.0916915 18.5456596,26.098383 18.5,26.098383 C14.3095532,26.098383 10.901617,22.689266 10.901617,18.5 C10.901617,18.4531596 10.9075213,18.4094681 10.9083085,18.3630213 L5.89559574,27.9157128 L4.51951064,30.5364149 L2.37351064,34.6260957 L6.46240426,32.4797021 L9.08389362,31.1044043 L18.6357979,26.0905106 L18.6357979,26.0905106 Z M18.5,13.0728085 C17.1963404,13.0728085 16.0013191,13.5325532 15.0652979,14.2981383 C14.9255638,14.4130745 14.789766,14.5343085 14.6614468,14.6618404 C14.5339149,14.7901596 14.4130745,14.9255638 14.2981383,15.0656915 C13.5325532,16.0017128 13.0728085,17.1963404 13.0728085,18.5003936 C13.0728085,21.4973936 15.5022128,23.9275851 18.5,23.9275851 C19.8028723,23.9275851 20.9986809,23.4674468 21.9339149,22.7018617 C22.0744362,22.5869255 22.2090532,22.4656915 22.3373723,22.337766 C22.4652979,22.2094468 22.5865319,22.0748298 22.7014681,21.9343085 C23.4670532,20.9990745 23.9271915,19.803266 23.9271915,18.5003936 C23.9271915,15.5022128 21.497,13.0728085 18.5,13.0728085 L18.5,13.0728085 Z" id="Shape" sketch:type="MSShapeGroup"></path>
            </g>
        </g>
    </g>
</svg>