<?xml version="1.0" encoding="utf-8"?>
<!-- Generator: Adobe Illustrator 16.0.4, SVG Export Plug-In . SVG Version: 6.00 Build 0)  -->
<!DOCTYPE svg PUBLIC "-//W3C//DTD SVG 1.1//EN" "http://www.w3.org/Graphics/SVG/1.1/DTD/svg11.dtd">
<svg version="1.1" id="Your_Icon" xmlns="http://www.w3.org/2000/svg" xmlns:xlink="http://www.w3.org/1999/xlink" x="0px" y="0px"
	 width="80px" height="80px" viewBox="10 10 80 80" enable-background="new 10 10 80 80" xml:space="preserve">
<path fill="#B5B5B5" d="M85.049,85.445c0.028-0.145-0.995-7.647-1.006-7.799c0,0-1.907-4.84-4.922-5.331
	c-3.014-0.498-6.886-1.548-8.506-2.771c-0.947-0.719-4.032-1.967-5.461-2.487c-0.666-0.239-1.809-2.211-2.2-3.102
	c-0.396-0.891-3.115-2.693-3.809-2.791l-0.108-3.709l7.871-2.448c0,0,2.029-0.938,2.226-0.938c0.198,0-0.94-1.492-1.087-1.893
	c-0.147-0.398-0.892-3.103-0.892-3.103s2.658,3.249,4.005,3.857c0,0-2.646-4.969-3.434-7.737c-0.792-2.77-1.312-7.096-1.312-7.49
	c0-0.398-1.631-12.016-2.521-13.944c-0.891-1.931-2.098-4.549-4.165-5.835c-2.066-1.286-5.131-3.116-9.533-3.36
	c-0.065-0.002-0.132-0.002-0.195-0.01c-0.066,0.006-0.134,0.006-0.2,0.01c-4.398,0.245-7.462,2.076-9.53,3.36
	c-2.064,1.285-3.273,3.905-4.164,5.835c-0.89,1.928-2.522,13.546-2.522,13.944c0,0.395-0.462,4.896-1.252,7.662
	c-0.791,2.771-3.494,7.563-3.494,7.563c1.348-0.606,4.004-3.856,4.004-3.856s-0.957,2.969-1.107,3.365
	c-0.149,0.398-1.067,1.631-0.868,1.631c0.195,0,2.225,0.938,2.225,0.938l7.874,2.448l-0.112,3.709
	c-0.691,0.098-3.411,1.9-3.807,2.791c-0.397,0.891-1.535,2.862-2.202,3.102c-1.432,0.519-4.513,1.769-5.46,2.487
	c-1.623,1.224-5.486,2.273-8.505,2.771c-3.015,0.491-4.921,4.991-4.921,4.991c-0.011,0.153-1.033,7.994-1.007,8.139H85.049z"/>
</svg>
